G04 ---------------------------- Layer name :BOTTOM SILK LAYER*
G04 EasyEDA v5.7.26, Mon, 08 Oct 2018 11:53:26 GMT*
G04 3e30844db99a4207a4187d0db1b8c40a*
G04 Gerber Generator version 0.2*
G04 Scale: 100 percent, Rotated: No, Reflected: No *
G04 Dimensions in inches *
G04 leading zeros omitted , absolute positions ,2 integer and 4 decimal *
%FSLAX24Y24*%
%MOIN*%
G90*
G70D02*

%ADD10C,0.010000*%
%ADD13C,0.008000*%
%ADD58C,0.007874*%
%ADD59C,0.007870*%
%ADD60C,0.013000*%
%ADD66C,0.007000*%
%ADD67C,0.004724*%
%ADD68C,0.005910*%
%ADD69C,0.005080*%

%LPD*%
G54D10*
G01X19128Y7928D02*
G01X28418Y7928D01*
G01X28443Y7955D01*
G01X28443Y376D01*
G01X28471Y350D01*
G01X19155Y350D01*
G01X19155Y7928D01*
G01X8869Y19480D02*
G01X8869Y18459D01*
G01X9650Y18459D01*
G01X9650Y19480D01*
G54D60*
G01X9630Y18659D02*
G01X8889Y18659D01*
G54D10*
G01X9650Y20119D02*
G01X9650Y20923D01*
G01X8861Y20923D01*
G01X8861Y20119D01*
G01X31847Y8369D02*
G01X29406Y8369D01*
G01X29406Y8369D02*
G01X29406Y6951D01*
G01X29406Y6951D02*
G01X31847Y6951D01*
G01X31847Y6951D02*
G01X31847Y8369D01*
G01X31626Y8059D02*
G01X31626Y8059D01*
G01X31626Y8159D01*
G01X29626Y8159D01*
G01X29626Y7159D01*
G01X31626Y7159D01*
G01X31626Y8059D01*
G01X31626Y8059D01*
G01X31626Y8159D02*
G01X31426Y7959D01*
G01X31626Y7159D02*
G01X31426Y7359D01*
G01X29626Y7159D02*
G01X29826Y7359D01*
G01X29626Y8159D02*
G01X29826Y7959D01*
G01X31426Y7859D02*
G01X31426Y7859D01*
G01X31426Y7959D01*
G01X29826Y7959D01*
G01X29826Y7359D01*
G01X31426Y7359D01*
G01X31426Y7859D01*
G01X31426Y7859D01*
G01X31026Y7759D02*
G01X30226Y7759D01*
G01X30226Y7559D01*
G01X31026Y7559D01*
G01X31026Y7759D01*
G01X15178Y490D02*
G01X17619Y490D01*
G01X17619Y490D02*
G01X17619Y1909D01*
G01X17619Y1909D02*
G01X15178Y1909D01*
G01X15178Y1909D02*
G01X15178Y490D01*
G01X15400Y800D02*
G01X15400Y800D01*
G01X15400Y700D01*
G01X17400Y700D01*
G01X17400Y1700D01*
G01X15400Y1700D01*
G01X15400Y800D01*
G01X15400Y800D01*
G01X15400Y700D02*
G01X15600Y900D01*
G01X15400Y1700D02*
G01X15600Y1500D01*
G01X17400Y1700D02*
G01X17200Y1500D01*
G01X17400Y700D02*
G01X17200Y900D01*
G01X15600Y1000D02*
G01X15600Y1000D01*
G01X15600Y900D01*
G01X17200Y900D01*
G01X17200Y1500D01*
G01X15600Y1500D01*
G01X15600Y1000D01*
G01X15600Y1000D01*
G01X16000Y1100D02*
G01X16800Y1100D01*
G01X16800Y1300D01*
G01X16000Y1300D01*
G01X16000Y1100D01*
G01X31957Y1909D02*
G01X29517Y1909D01*
G01X29517Y1909D02*
G01X29517Y490D01*
G01X29517Y490D02*
G01X31957Y490D01*
G01X31957Y490D02*
G01X31957Y1909D01*
G01X31736Y1600D02*
G01X31736Y1600D01*
G01X31736Y1700D01*
G01X29736Y1700D01*
G01X29736Y700D01*
G01X31736Y700D01*
G01X31736Y1600D01*
G01X31736Y1600D01*
G01X31736Y1700D02*
G01X31536Y1500D01*
G01X31736Y700D02*
G01X31536Y900D01*
G01X29736Y700D02*
G01X29936Y900D01*
G01X29736Y1700D02*
G01X29936Y1500D01*
G01X31536Y1400D02*
G01X31536Y1400D01*
G01X31536Y1500D01*
G01X29936Y1500D01*
G01X29936Y900D01*
G01X31536Y900D01*
G01X31536Y1400D01*
G01X31536Y1400D01*
G01X31136Y1300D02*
G01X30336Y1300D01*
G01X30336Y1100D01*
G01X31136Y1100D01*
G01X31136Y1300D01*
G01X15021Y6944D02*
G01X17461Y6944D01*
G01X17461Y6944D02*
G01X17461Y8361D01*
G01X17461Y8361D02*
G01X15021Y8361D01*
G01X15021Y8361D02*
G01X15021Y6944D01*
G01X15242Y7253D02*
G01X15242Y7253D01*
G01X15242Y7153D01*
G01X17242Y7153D01*
G01X17242Y8153D01*
G01X15242Y8153D01*
G01X15242Y7253D01*
G01X15242Y7253D01*
G01X15242Y7153D02*
G01X15442Y7353D01*
G01X15242Y8153D02*
G01X15442Y7953D01*
G01X17242Y8153D02*
G01X17042Y7953D01*
G01X17242Y7153D02*
G01X17042Y7353D01*
G01X15442Y7453D02*
G01X15442Y7453D01*
G01X15442Y7353D01*
G01X17042Y7353D01*
G01X17042Y7953D01*
G01X15442Y7953D01*
G01X15442Y7453D01*
G01X15442Y7453D01*
G01X15842Y7553D02*
G01X16642Y7553D01*
G01X16642Y7753D01*
G01X15842Y7753D01*
G01X15842Y7553D01*
G54D67*
G01X11521Y19142D02*
G01X10813Y19142D01*
G01X10813Y20409D02*
G01X11777Y20409D01*
G54D10*
G01X12719Y19505D02*
G01X12719Y18484D01*
G01X13500Y18484D01*
G01X13500Y19505D01*
G54D60*
G01X13480Y18684D02*
G01X12739Y18684D01*
G54D10*
G01X13500Y20144D02*
G01X13500Y20948D01*
G01X12711Y20948D01*
G01X12711Y20144D01*
G54D59*
G01X10481Y20492D02*
G01X9961Y20492D01*
G01X9961Y21307D01*
G01X10481Y21307D01*
G01X10927Y20492D02*
G01X11447Y20492D01*
G01X11447Y21307D01*
G01X10927Y21307D01*
G01X4656Y18067D02*
G01X4136Y18067D01*
G01X4136Y18882D01*
G01X4656Y18882D01*
G01X5102Y18067D02*
G01X5622Y18067D01*
G01X5622Y18882D01*
G01X5102Y18882D01*
G54D10*
G01X394Y7734D02*
G01X394Y6055D01*
G01X3155Y6055D01*
G01X3155Y10194D01*
G01X394Y10194D01*
G01X394Y8515D01*
G01X6771Y17409D02*
G01X4330Y17409D01*
G01X4330Y17409D02*
G01X4330Y15990D01*
G01X4330Y15990D02*
G01X6771Y15990D01*
G01X6771Y15990D02*
G01X6771Y17409D01*
G01X6550Y17100D02*
G01X6550Y17100D01*
G01X6550Y17200D01*
G01X4550Y17200D01*
G01X4550Y16200D01*
G01X6550Y16200D01*
G01X6550Y17100D01*
G01X6550Y17100D01*
G01X6550Y17200D02*
G01X6350Y17000D01*
G01X6550Y16200D02*
G01X6350Y16400D01*
G01X4550Y16200D02*
G01X4750Y16400D01*
G01X4550Y17200D02*
G01X4750Y17000D01*
G01X6350Y16900D02*
G01X6350Y16900D01*
G01X6350Y17000D01*
G01X4750Y17000D01*
G01X4750Y16400D01*
G01X6350Y16400D01*
G01X6350Y16900D01*
G01X6350Y16900D01*
G01X5950Y16800D02*
G01X5150Y16800D01*
G01X5150Y16600D01*
G01X5950Y16600D01*
G01X5950Y16800D01*
G01X29117Y5807D02*
G01X29697Y5807D01*
G01X29117Y5128D02*
G01X29697Y5128D01*
G01X29117Y5128D02*
G01X29117Y5807D01*
G01X29927Y5807D02*
G01X30386Y5807D01*
G01X29936Y5128D02*
G01X30386Y5128D01*
G01X30386Y5128D02*
G01X30527Y5267D01*
G01X30527Y5667D01*
G01X30386Y5807D01*
G54D68*
G01X29756Y5317D02*
G01X29756Y5628D01*
G01X29856Y5528D01*
G01X29856Y5388D01*
G01X29756Y5288D01*
G01X29756Y5378D01*
G01X29806Y5557D02*
G01X29806Y5357D01*
G54D10*
G01X29167Y4807D02*
G01X29747Y4807D01*
G01X29167Y4128D02*
G01X29747Y4128D01*
G01X29167Y4128D02*
G01X29167Y4807D01*
G01X29977Y4807D02*
G01X30436Y4807D01*
G01X29986Y4128D02*
G01X30436Y4128D01*
G01X30436Y4128D02*
G01X30577Y4267D01*
G01X30577Y4667D01*
G01X30436Y4807D01*
G54D68*
G01X29806Y4317D02*
G01X29806Y4628D01*
G01X29906Y4528D01*
G01X29906Y4388D01*
G01X29806Y4288D01*
G01X29806Y4378D01*
G01X29856Y4557D02*
G01X29856Y4357D01*
G54D10*
G01X10005Y22094D02*
G01X10585Y22094D01*
G01X10005Y21413D02*
G01X10585Y21413D01*
G01X10005Y21413D02*
G01X10005Y22094D01*
G01X10814Y22094D02*
G01X11275Y22094D01*
G01X10825Y21413D02*
G01X11275Y21413D01*
G01X11275Y21413D02*
G01X11414Y21553D01*
G01X11414Y21953D01*
G01X11275Y22094D01*
G54D68*
G01X10644Y21603D02*
G01X10644Y21913D01*
G01X10744Y21813D01*
G01X10744Y21673D01*
G01X10644Y21573D01*
G01X10644Y21663D01*
G01X10694Y21844D02*
G01X10694Y21644D01*
G54D10*
G01X2144Y17496D02*
G01X2725Y17496D01*
G01X2144Y16817D02*
G01X2725Y16817D01*
G01X2144Y16817D02*
G01X2144Y17496D01*
G01X2955Y17496D02*
G01X3414Y17496D01*
G01X2964Y16817D02*
G01X3414Y16817D01*
G01X3414Y16817D02*
G01X3555Y16957D01*
G01X3555Y17357D01*
G01X3414Y17496D01*
G54D68*
G01X2785Y17007D02*
G01X2785Y17317D01*
G01X2885Y17217D01*
G01X2885Y17077D01*
G01X2785Y16977D01*
G01X2785Y17067D01*
G01X2835Y17246D02*
G01X2835Y17046D01*
G54D10*
G01X950Y12100D02*
G01X700Y11850D01*
G01X700Y11850D02*
G01X700Y11350D01*
G01X700Y11350D02*
G01X950Y11100D01*
G01X1450Y11100D02*
G01X1700Y11350D01*
G01X1700Y11350D02*
G01X1700Y11850D01*
G01X1700Y11850D02*
G01X1450Y12100D01*
G01X700Y13850D02*
G01X700Y13350D01*
G01X700Y13350D02*
G01X950Y13100D01*
G01X1450Y13100D02*
G01X1700Y13350D01*
G01X950Y13100D02*
G01X700Y12850D01*
G01X700Y12850D02*
G01X700Y12350D01*
G01X700Y12350D02*
G01X950Y12100D01*
G01X1450Y12100D02*
G01X1700Y12350D01*
G01X1700Y12350D02*
G01X1700Y12850D01*
G01X1700Y12850D02*
G01X1450Y13100D01*
G01X950Y15100D02*
G01X700Y14850D01*
G01X700Y14850D02*
G01X700Y14350D01*
G01X700Y14350D02*
G01X950Y14100D01*
G01X1450Y14100D02*
G01X1700Y14350D01*
G01X1700Y14350D02*
G01X1700Y14850D01*
G01X1700Y14850D02*
G01X1450Y15100D01*
G01X700Y13850D02*
G01X950Y14100D01*
G01X1450Y14100D02*
G01X1700Y13850D01*
G01X1700Y13350D02*
G01X1700Y13850D01*
G01X700Y16850D02*
G01X700Y16350D01*
G01X700Y16350D02*
G01X950Y16100D01*
G01X1450Y16100D02*
G01X1700Y16350D01*
G01X950Y16100D02*
G01X700Y15850D01*
G01X700Y15850D02*
G01X700Y15350D01*
G01X700Y15350D02*
G01X950Y15100D01*
G01X1450Y15100D02*
G01X1700Y15350D01*
G01X1700Y15350D02*
G01X1700Y15850D01*
G01X1700Y15850D02*
G01X1450Y16100D01*
G01X950Y17100D02*
G01X1450Y17100D01*
G01X700Y16850D02*
G01X950Y17100D01*
G01X1450Y17100D02*
G01X1700Y16850D01*
G01X1700Y16350D02*
G01X1700Y16850D01*
G01X950Y11100D02*
G01X1450Y11100D01*
G54D58*
G01X24472Y20384D02*
G01X24906Y20384D01*
G01X24906Y21015D01*
G01X24472Y21015D01*
G01X24157Y20384D02*
G01X23723Y20384D01*
G01X23723Y20778D01*
G01X23723Y21015D01*
G01X24157Y21015D01*
G01X24152Y20240D02*
G01X23718Y20240D01*
G01X23718Y19609D01*
G01X24152Y19609D01*
G01X24467Y20240D02*
G01X24901Y20240D01*
G01X24901Y19846D01*
G01X24901Y19609D01*
G01X24467Y19609D01*
G01X19485Y20328D02*
G01X19485Y19894D01*
G01X20114Y19894D01*
G01X20114Y20328D01*
G01X19485Y20642D02*
G01X19485Y21076D01*
G01X19878Y21076D01*
G01X20114Y21076D01*
G01X20114Y20642D01*
G01X18610Y18678D02*
G01X18610Y18244D01*
G01X19239Y18244D01*
G01X19239Y18678D01*
G01X18610Y18992D02*
G01X18610Y19426D01*
G01X19003Y19426D01*
G01X19239Y19426D01*
G01X19239Y18992D01*
G01X19239Y17696D02*
G01X19239Y18130D01*
G01X18610Y18130D01*
G01X18610Y17696D01*
G01X19239Y17382D02*
G01X19239Y16948D01*
G01X18846Y16948D01*
G01X18610Y16948D01*
G01X18610Y17382D01*
G01X13977Y17915D02*
G01X13543Y17915D01*
G01X13543Y17284D01*
G01X13977Y17284D01*
G01X14292Y17915D02*
G01X14726Y17915D01*
G01X14726Y17521D01*
G01X14726Y17284D01*
G01X14292Y17284D01*
G01X11785Y17878D02*
G01X11785Y17444D01*
G01X12414Y17444D01*
G01X12414Y17878D01*
G01X11785Y18192D02*
G01X11785Y18626D01*
G01X12178Y18626D01*
G01X12414Y18626D01*
G01X12414Y18192D01*
G01X31427Y17240D02*
G01X30993Y17240D01*
G01X30993Y16609D01*
G01X31427Y16609D01*
G01X31742Y17240D02*
G01X32176Y17240D01*
G01X32176Y16846D01*
G01X32176Y16609D01*
G01X31742Y16609D01*
G01X29035Y11753D02*
G01X29035Y11319D01*
G01X29664Y11319D01*
G01X29664Y11753D01*
G01X29035Y12067D02*
G01X29035Y12501D01*
G01X29428Y12501D01*
G01X29664Y12501D01*
G01X29664Y12067D01*
G01X31047Y9934D02*
G01X31481Y9934D01*
G01X31481Y10565D01*
G01X31047Y10565D01*
G01X30732Y9934D02*
G01X30298Y9934D01*
G01X30298Y10328D01*
G01X30298Y10565D01*
G01X30732Y10565D01*
G01X30635Y13528D02*
G01X30635Y13094D01*
G01X31264Y13094D01*
G01X31264Y13528D01*
G01X30635Y13842D02*
G01X30635Y14276D01*
G01X31028Y14276D01*
G01X31264Y14276D01*
G01X31264Y13842D01*
G54D10*
G01X30419Y12384D02*
G01X30419Y12605D01*
G01X30419Y12605D02*
G01X30639Y12605D01*
G01X30419Y11165D02*
G01X30419Y10944D01*
G01X30419Y10944D02*
G01X30639Y10944D01*
G01X32080Y11165D02*
G01X32080Y10944D01*
G01X32080Y10944D02*
G01X31860Y10944D01*
G01X32080Y12605D02*
G01X31860Y12605D01*
G01X20510Y20940D02*
G01X22789Y20940D01*
G01X22789Y19059D02*
G01X20510Y19059D01*
G54D58*
G01X26052Y14690D02*
G01X25619Y14690D01*
G01X25619Y14059D01*
G01X26052Y14059D01*
G01X26368Y14690D02*
G01X26801Y14690D01*
G01X26801Y14296D01*
G01X26801Y14059D01*
G01X26368Y14059D01*
G01X22560Y16003D02*
G01X22560Y15569D01*
G01X23189Y15569D01*
G01X23189Y16003D01*
G01X22560Y16317D02*
G01X22560Y16751D01*
G01X22953Y16751D01*
G01X23189Y16751D01*
G01X23189Y16317D01*
G54D10*
G01X24289Y16955D02*
G01X24289Y14828D01*
G01X25547Y16955D02*
G01X25547Y14828D01*
G01X24289Y16955D02*
G01X25547Y16955D01*
G01X24300Y14825D02*
G01X25500Y14825D01*
G54D58*
G01X33627Y18315D02*
G01X33194Y18315D01*
G01X33194Y17684D01*
G01X33627Y17684D01*
G01X33943Y18315D02*
G01X34376Y18315D01*
G01X34376Y17921D01*
G01X34376Y17684D01*
G01X33943Y17684D01*
G01X10372Y15484D02*
G01X10806Y15484D01*
G01X10806Y16115D01*
G01X10372Y16115D01*
G01X10057Y15484D02*
G01X9623Y15484D01*
G01X9623Y15878D01*
G01X9623Y16115D01*
G01X10057Y16115D01*
G54D10*
G01X11885Y15855D02*
G01X11625Y15855D01*
G01X11885Y15855D01*
G01X11625Y15855D01*
G01X11625Y15534D01*
G01X12775Y15534D02*
G01X12775Y15855D01*
G01X12514Y15855D01*
G54D58*
G01X12318Y15246D02*
G01X12081Y15246D01*
G54D10*
G01X13500Y15769D02*
G01X13500Y16350D01*
G01X14180Y15769D02*
G01X14180Y16350D01*
G01X14180Y15769D02*
G01X13500Y15769D01*
G01X13500Y16580D02*
G01X13500Y17040D01*
G01X14180Y16590D02*
G01X14180Y17040D01*
G01X14180Y17040D02*
G01X14039Y17180D01*
G01X13639Y17180D01*
G01X13500Y17040D01*
G54D68*
G01X13989Y16409D02*
G01X13680Y16409D01*
G01X13780Y16509D01*
G01X13919Y16509D01*
G01X14019Y16409D01*
G01X13930Y16409D01*
G01X13750Y16459D02*
G01X13950Y16459D01*
G54D58*
G01X5835Y18528D02*
G01X5835Y18094D01*
G01X6464Y18094D01*
G01X6464Y18528D01*
G01X5835Y18842D02*
G01X5835Y19276D01*
G01X6228Y19276D01*
G01X6464Y19276D01*
G01X6464Y18842D01*
G01X31383Y16182D02*
G01X31275Y16182D01*
G01X31275Y14843D01*
G01X31383Y14843D01*
G01X33292Y16182D02*
G01X33401Y16182D01*
G01X33401Y14843D01*
G01X33292Y14843D01*
G01X30022Y3309D02*
G01X30456Y3309D01*
G01X30456Y3940D01*
G01X30022Y3940D01*
G01X29707Y3309D02*
G01X29273Y3309D01*
G01X29273Y3703D01*
G01X29273Y3940D01*
G01X29707Y3940D01*
G01X29972Y5934D02*
G01X30406Y5934D01*
G01X30406Y6565D01*
G01X29972Y6565D01*
G01X29657Y5934D02*
G01X29223Y5934D01*
G01X29223Y6328D01*
G01X29223Y6565D01*
G01X29657Y6565D01*
G54D10*
G01X12600Y11325D02*
G01X4700Y11325D01*
G01X4700Y225D01*
G01X12600Y225D01*
G01X12600Y11325D01*
G54D58*
G01X12314Y21272D02*
G01X12314Y21705D01*
G01X11685Y21705D01*
G01X11685Y21272D01*
G01X12314Y20957D02*
G01X12314Y20524D01*
G01X11921Y20524D01*
G01X11685Y20524D01*
G01X11685Y20957D01*
G54D69*
G01X22255Y10219D02*
G01X22255Y12378D01*
G01X22255Y12378D02*
G01X20094Y12378D01*
G01X20094Y12378D02*
G01X20094Y10219D01*
G01X20094Y10219D02*
G01X22255Y10219D01*
G01X22288Y10536D02*
G01X22723Y10536D01*
G01X22288Y11044D02*
G01X22723Y11044D01*
G01X22288Y11553D02*
G01X22723Y11553D01*
G01X22723Y12061D02*
G01X22288Y12061D01*
G01X20061Y12061D02*
G01X19626Y12061D01*
G01X19626Y11553D02*
G01X20061Y11553D01*
G01X19626Y11044D02*
G01X20061Y11044D01*
G01X19626Y10536D02*
G01X20061Y10536D01*

%LPD*%
G36*
G01X24385Y6726D02*
G01X24360Y6725D01*
G01X24330Y6726D01*
G01X24302Y6730D01*
G01X24277Y6736D01*
G01X24252Y6745D01*
G01X24231Y6756D01*
G01X24211Y6769D01*
G01X24194Y6784D01*
G01X24180Y6802D01*
G01X24169Y6821D01*
G01X24160Y6843D01*
G01X24155Y6866D01*
G01X24154Y6892D01*
G01X24155Y6911D01*
G01X24157Y6930D01*
G01X24162Y6947D01*
G01X24169Y6963D01*
G01X24178Y6979D01*
G01X24190Y6994D01*
G01X24204Y7007D01*
G01X24220Y7020D01*
G01X24239Y7033D01*
G01X24261Y7045D01*
G01X24286Y7057D01*
G01X24314Y7069D01*
G01X24349Y7082D01*
G01X24371Y7092D01*
G01X24391Y7103D01*
G01X24408Y7115D01*
G01X24422Y7128D01*
G01X24433Y7142D01*
G01X24441Y7159D01*
G01X24446Y7176D01*
G01X24448Y7196D01*
G01X24445Y7220D01*
G01X24439Y7241D01*
G01X24427Y7259D01*
G01X24413Y7273D01*
G01X24395Y7284D01*
G01X24374Y7293D01*
G01X24351Y7298D01*
G01X24326Y7300D01*
G01X24306Y7298D01*
G01X24288Y7295D01*
G01X24271Y7290D01*
G01X24255Y7282D01*
G01X24232Y7176D01*
G01X24187Y7176D01*
G01X24181Y7292D01*
G01X24196Y7301D01*
G01X24211Y7311D01*
G01X24228Y7318D01*
G01X24245Y7325D01*
G01X24264Y7330D01*
G01X24283Y7334D01*
G01X24303Y7337D01*
G01X24325Y7338D01*
G01X24352Y7336D01*
G01X24378Y7333D01*
G01X24402Y7327D01*
G01X24425Y7318D01*
G01X24445Y7308D01*
G01X24464Y7295D01*
G01X24480Y7280D01*
G01X24494Y7263D01*
G01X24505Y7245D01*
G01X24513Y7224D01*
G01X24518Y7201D01*
G01X24520Y7176D01*
G01X24518Y7155D01*
G01X24515Y7136D01*
G01X24509Y7117D01*
G01X24501Y7100D01*
G01X24490Y7084D01*
G01X24478Y7070D01*
G01X24464Y7056D01*
G01X24448Y7044D01*
G01X24431Y7032D01*
G01X24411Y7021D01*
G01X24391Y7011D01*
G01X24369Y7001D01*
G01X24336Y6988D01*
G01X24309Y6976D01*
G01X24285Y6965D01*
G01X24267Y6953D01*
G01X24251Y6940D01*
G01X24240Y6926D01*
G01X24232Y6910D01*
G01X24227Y6892D01*
G01X24226Y6873D01*
G01X24228Y6848D01*
G01X24235Y6826D01*
G01X24247Y6807D01*
G01X24264Y6791D01*
G01X24284Y6779D01*
G01X24308Y6771D01*
G01X24335Y6765D01*
G01X24366Y6763D01*
G01X24392Y6765D01*
G01X24415Y6768D01*
G01X24437Y6775D01*
G01X24458Y6784D01*
G01X24480Y6894D01*
G01X24525Y6894D01*
G01X24531Y6771D01*
G01X24514Y6762D01*
G01X24497Y6753D01*
G01X24477Y6745D01*
G01X24455Y6738D01*
G01X24433Y6732D01*
G01X24409Y6728D01*
G01X24385Y6726D01*
G37*

%LPC*%

%LPD*%
G36*
G01X26308Y6725D02*
G01X26288Y6725D01*
G01X26267Y6725D01*
G01X26247Y6728D01*
G01X26227Y6732D01*
G01X26207Y6738D01*
G01X26188Y6745D01*
G01X26169Y6754D01*
G01X26151Y6765D01*
G01X26134Y6777D01*
G01X26118Y6790D01*
G01X26102Y6805D01*
G01X26088Y6822D01*
G01X26075Y6840D01*
G01X26063Y6859D01*
G01X26052Y6880D01*
G01X26043Y6902D01*
G01X26035Y6926D01*
G01X26029Y6950D01*
G01X26024Y6976D01*
G01X26022Y7003D01*
G01X26021Y7032D01*
G01X26022Y7060D01*
G01X26025Y7088D01*
G01X26029Y7114D01*
G01X26035Y7139D01*
G01X26043Y7162D01*
G01X26053Y7184D01*
G01X26063Y7205D01*
G01X26076Y7224D01*
G01X26089Y7242D01*
G01X26103Y7258D01*
G01X26118Y7273D01*
G01X26135Y7286D01*
G01X26152Y7298D01*
G01X26170Y7309D01*
G01X26189Y7317D01*
G01X26208Y7325D01*
G01X26227Y7330D01*
G01X26247Y7334D01*
G01X26267Y7337D01*
G01X26288Y7338D01*
G01X26308Y7337D01*
G01X26328Y7334D01*
G01X26348Y7330D01*
G01X26368Y7324D01*
G01X26387Y7317D01*
G01X26406Y7308D01*
G01X26424Y7297D01*
G01X26441Y7285D01*
G01X26457Y7271D01*
G01X26473Y7257D01*
G01X26488Y7240D01*
G01X26501Y7222D01*
G01X26513Y7203D01*
G01X26524Y7182D01*
G01X26533Y7160D01*
G01X26541Y7137D01*
G01X26547Y7113D01*
G01X26552Y7087D01*
G01X26555Y7060D01*
G01X26556Y7032D01*
G01X26555Y7002D01*
G01X26552Y6974D01*
G01X26547Y6948D01*
G01X26541Y6923D01*
G01X26533Y6899D01*
G01X26524Y6877D01*
G01X26513Y6856D01*
G01X26501Y6837D01*
G01X26488Y6819D01*
G01X26473Y6803D01*
G01X26458Y6788D01*
G01X26442Y6775D01*
G01X26424Y6763D01*
G01X26406Y6753D01*
G01X26388Y6744D01*
G01X26368Y6737D01*
G01X26349Y6732D01*
G01X26329Y6728D01*
G01X26308Y6725D01*
G37*

%LPC*%
G36*
G01X26265Y6764D02*
G01X26288Y6763D01*
G01X26310Y6764D01*
G01X26330Y6768D01*
G01X26349Y6775D01*
G01X26367Y6785D01*
G01X26383Y6797D01*
G01X26397Y6811D01*
G01X26410Y6827D01*
G01X26422Y6845D01*
G01X26432Y6864D01*
G01X26441Y6885D01*
G01X26448Y6907D01*
G01X26454Y6931D01*
G01X26459Y6955D01*
G01X26462Y6980D01*
G01X26464Y7005D01*
G01X26465Y7032D01*
G01X26464Y7057D01*
G01X26462Y7082D01*
G01X26459Y7107D01*
G01X26454Y7131D01*
G01X26448Y7154D01*
G01X26441Y7176D01*
G01X26432Y7197D01*
G01X26422Y7217D01*
G01X26410Y7235D01*
G01X26397Y7251D01*
G01X26383Y7265D01*
G01X26367Y7277D01*
G01X26349Y7286D01*
G01X26330Y7294D01*
G01X26310Y7298D01*
G01X26288Y7300D01*
G01X26265Y7298D01*
G01X26245Y7294D01*
G01X26226Y7286D01*
G01X26209Y7277D01*
G01X26193Y7265D01*
G01X26178Y7251D01*
G01X26165Y7235D01*
G01X26154Y7217D01*
G01X26144Y7197D01*
G01X26135Y7176D01*
G01X26128Y7154D01*
G01X26122Y7131D01*
G01X26118Y7107D01*
G01X26114Y7082D01*
G01X26112Y7057D01*
G01X26112Y7032D01*
G01X26112Y7005D01*
G01X26114Y6980D01*
G01X26118Y6955D01*
G01X26122Y6931D01*
G01X26128Y6907D01*
G01X26135Y6885D01*
G01X26144Y6864D01*
G01X26154Y6845D01*
G01X26165Y6827D01*
G01X26178Y6811D01*
G01X26193Y6797D01*
G01X26209Y6785D01*
G01X26226Y6775D01*
G01X26245Y6768D01*
G01X26265Y6764D01*
G37*

%LPD*%
G36*
G01X22669Y6727D02*
G01X22648Y6726D01*
G01X22620Y6728D01*
G01X22594Y6733D01*
G01X22570Y6742D01*
G01X22548Y6753D01*
G01X22529Y6767D01*
G01X22511Y6785D01*
G01X22496Y6804D01*
G01X22483Y6826D01*
G01X22500Y6838D01*
G01X22524Y6813D01*
G01X22552Y6793D01*
G01X22584Y6780D01*
G01X22624Y6776D01*
G01X22644Y6777D01*
G01X22664Y6780D01*
G01X22682Y6786D01*
G01X22699Y6795D01*
G01X22714Y6806D01*
G01X22728Y6819D01*
G01X22739Y6835D01*
G01X22750Y6853D01*
G01X22757Y6873D01*
G01X22764Y6896D01*
G01X22767Y6922D01*
G01X22769Y6950D01*
G01X22488Y6948D01*
G01X22485Y6958D01*
G01X22483Y6970D01*
G01X22481Y6983D01*
G01X22481Y6998D01*
G01X22482Y7022D01*
G01X22486Y7046D01*
G01X22493Y7067D01*
G01X22502Y7086D01*
G01X22514Y7104D01*
G01X22527Y7119D01*
G01X22543Y7133D01*
G01X22560Y7144D01*
G01X22579Y7153D01*
G01X22600Y7159D01*
G01X22622Y7163D01*
G01X22645Y7165D01*
G01X22665Y7163D01*
G01X22684Y7161D01*
G01X22703Y7155D01*
G01X22722Y7149D01*
G01X22739Y7140D01*
G01X22756Y7130D01*
G01X22771Y7118D01*
G01X22786Y7104D01*
G01X22799Y7089D01*
G01X22810Y7072D01*
G01X22821Y7054D01*
G01X22830Y7034D01*
G01X22836Y7013D01*
G01X22842Y6991D01*
G01X22844Y6967D01*
G01X22846Y6942D01*
G01X22845Y6917D01*
G01X22842Y6894D01*
G01X22838Y6872D01*
G01X22831Y6851D01*
G01X22823Y6832D01*
G01X22814Y6814D01*
G01X22803Y6798D01*
G01X22791Y6783D01*
G01X22777Y6770D01*
G01X22762Y6759D01*
G01X22746Y6749D01*
G01X22728Y6741D01*
G01X22710Y6735D01*
G01X22690Y6730D01*
G01X22669Y6727D01*
G37*

%LPC*%
G36*
G01X22576Y6984D02*
G01X22600Y6980D01*
G01X22768Y6982D01*
G01X22763Y7019D01*
G01X22753Y7050D01*
G01X22741Y7075D01*
G01X22725Y7096D01*
G01X22708Y7112D01*
G01X22689Y7123D01*
G01X22669Y7129D01*
G01X22649Y7132D01*
G01X22628Y7129D01*
G01X22610Y7123D01*
G01X22593Y7113D01*
G01X22579Y7101D01*
G01X22567Y7086D01*
G01X22559Y7068D01*
G01X22553Y7049D01*
G01X22552Y7030D01*
G01X22554Y7009D01*
G01X22561Y6994D01*
G01X22576Y6984D01*
G37*

%LPD*%
G36*
G01X23114Y6727D02*
G01X23093Y6726D01*
G01X23065Y6728D01*
G01X23039Y6733D01*
G01X23015Y6742D01*
G01X22993Y6753D01*
G01X22974Y6767D01*
G01X22956Y6785D01*
G01X22941Y6804D01*
G01X22928Y6826D01*
G01X22945Y6838D01*
G01X22969Y6813D01*
G01X22996Y6793D01*
G01X23029Y6780D01*
G01X23068Y6776D01*
G01X23089Y6777D01*
G01X23108Y6780D01*
G01X23127Y6786D01*
G01X23143Y6795D01*
G01X23159Y6806D01*
G01X23172Y6819D01*
G01X23184Y6835D01*
G01X23194Y6853D01*
G01X23202Y6873D01*
G01X23208Y6896D01*
G01X23212Y6922D01*
G01X23214Y6950D01*
G01X22932Y6948D01*
G01X22929Y6958D01*
G01X22927Y6970D01*
G01X22926Y6983D01*
G01X22926Y6998D01*
G01X22927Y7022D01*
G01X22931Y7046D01*
G01X22938Y7067D01*
G01X22947Y7086D01*
G01X22959Y7104D01*
G01X22972Y7119D01*
G01X22988Y7133D01*
G01X23005Y7144D01*
G01X23024Y7153D01*
G01X23045Y7159D01*
G01X23067Y7163D01*
G01X23090Y7165D01*
G01X23110Y7163D01*
G01X23129Y7161D01*
G01X23148Y7155D01*
G01X23167Y7149D01*
G01X23184Y7140D01*
G01X23201Y7130D01*
G01X23216Y7118D01*
G01X23231Y7104D01*
G01X23244Y7089D01*
G01X23256Y7072D01*
G01X23266Y7054D01*
G01X23275Y7034D01*
G01X23281Y7013D01*
G01X23286Y6991D01*
G01X23289Y6967D01*
G01X23291Y6942D01*
G01X23290Y6917D01*
G01X23287Y6894D01*
G01X23282Y6872D01*
G01X23276Y6851D01*
G01X23268Y6832D01*
G01X23259Y6814D01*
G01X23248Y6798D01*
G01X23236Y6783D01*
G01X23222Y6770D01*
G01X23207Y6759D01*
G01X23191Y6749D01*
G01X23173Y6741D01*
G01X23155Y6735D01*
G01X23135Y6730D01*
G01X23114Y6727D01*
G37*

%LPC*%
G36*
G01X23020Y6984D02*
G01X23044Y6980D01*
G01X23213Y6982D01*
G01X23207Y7019D01*
G01X23198Y7050D01*
G01X23185Y7075D01*
G01X23170Y7096D01*
G01X23153Y7112D01*
G01X23134Y7123D01*
G01X23114Y7129D01*
G01X23094Y7132D01*
G01X23073Y7129D01*
G01X23055Y7123D01*
G01X23038Y7113D01*
G01X23024Y7101D01*
G01X23012Y7086D01*
G01X23004Y7068D01*
G01X22998Y7049D01*
G01X22997Y7030D01*
G01X22999Y7009D01*
G01X23006Y6994D01*
G01X23020Y6984D01*
G37*

%LPD*%
G36*
G01X23905Y6728D02*
G01X23884Y6726D01*
G01X23854Y6728D01*
G01X23827Y6734D01*
G01X23803Y6742D01*
G01X23781Y6755D01*
G01X23762Y6770D01*
G01X23746Y6788D01*
G01X23732Y6809D01*
G01X23721Y6834D01*
G01X23739Y6842D01*
G01X23750Y6826D01*
G01X23763Y6813D01*
G01X23776Y6802D01*
G01X23791Y6793D01*
G01X23807Y6785D01*
G01X23825Y6780D01*
G01X23842Y6776D01*
G01X23861Y6776D01*
G01X23881Y6777D01*
G01X23901Y6781D01*
G01X23919Y6787D01*
G01X23935Y6796D01*
G01X23951Y6808D01*
G01X23965Y6821D01*
G01X23977Y6838D01*
G01X23987Y6856D01*
G01X23995Y6877D01*
G01X24001Y6900D01*
G01X24004Y6925D01*
G01X24006Y6951D01*
G01X24005Y6979D01*
G01X24001Y7004D01*
G01X23996Y7028D01*
G01X23989Y7049D01*
G01X23980Y7068D01*
G01X23969Y7084D01*
G01X23956Y7098D01*
G01X23942Y7110D01*
G01X23926Y7119D01*
G01X23909Y7126D01*
G01X23891Y7130D01*
G01X23872Y7132D01*
G01X23861Y7131D01*
G01X23849Y7129D01*
G01X23836Y7127D01*
G01X23824Y7123D01*
G01X23808Y7061D01*
G01X23802Y7044D01*
G01X23793Y7032D01*
G01X23779Y7023D01*
G01X23761Y7021D01*
G01X23747Y7023D01*
G01X23736Y7028D01*
G01X23728Y7039D01*
G01X23723Y7053D01*
G01X23730Y7076D01*
G01X23741Y7097D01*
G01X23756Y7117D01*
G01X23775Y7133D01*
G01X23797Y7146D01*
G01X23821Y7156D01*
G01X23847Y7162D01*
G01X23876Y7165D01*
G01X23896Y7163D01*
G01X23915Y7161D01*
G01X23934Y7156D01*
G01X23953Y7150D01*
G01X23971Y7141D01*
G01X23988Y7131D01*
G01X24003Y7119D01*
G01X24018Y7106D01*
G01X24032Y7091D01*
G01X24044Y7075D01*
G01X24055Y7056D01*
G01X24064Y7037D01*
G01X24071Y7015D01*
G01X24076Y6993D01*
G01X24080Y6969D01*
G01X24081Y6944D01*
G01X24080Y6919D01*
G01X24077Y6896D01*
G01X24072Y6874D01*
G01X24067Y6853D01*
G01X24059Y6834D01*
G01X24050Y6816D01*
G01X24039Y6800D01*
G01X24026Y6785D01*
G01X24013Y6772D01*
G01X23998Y6760D01*
G01X23982Y6750D01*
G01X23964Y6742D01*
G01X23946Y6735D01*
G01X23926Y6730D01*
G01X23905Y6728D01*
G37*

%LPC*%

%LPD*%
G36*
G01X25078Y6728D02*
G01X25052Y6726D01*
G01X25014Y6731D01*
G01X24982Y6743D01*
G01X24953Y6762D01*
G01X24929Y6788D01*
G01X24924Y6728D01*
G01X24788Y6738D01*
G01X24788Y6765D01*
G01X24860Y6773D01*
G01X24860Y7255D01*
G01X24857Y7380D01*
G01X24868Y7386D01*
G01X25004Y7348D01*
G01X25004Y7323D01*
G01X24930Y7315D01*
G01X24930Y7107D01*
G01X24957Y7135D01*
G01X24986Y7153D01*
G01X25014Y7162D01*
G01X25045Y7165D01*
G01X25064Y7163D01*
G01X25084Y7161D01*
G01X25102Y7155D01*
G01X25119Y7149D01*
G01X25136Y7140D01*
G01X25151Y7130D01*
G01X25165Y7118D01*
G01X25179Y7104D01*
G01X25190Y7089D01*
G01X25201Y7072D01*
G01X25210Y7053D01*
G01X25218Y7034D01*
G01X25224Y7013D01*
G01X25228Y6990D01*
G01X25231Y6966D01*
G01X25232Y6942D01*
G01X25230Y6910D01*
G01X25226Y6881D01*
G01X25219Y6854D01*
G01X25209Y6829D01*
G01X25197Y6806D01*
G01X25182Y6786D01*
G01X25165Y6769D01*
G01X25146Y6754D01*
G01X25125Y6742D01*
G01X25102Y6734D01*
G01X25078Y6728D01*
G37*

%LPC*%
G36*
G01X25004Y6774D02*
G01X25032Y6771D01*
G01X25049Y6773D01*
G01X25065Y6776D01*
G01X25081Y6781D01*
G01X25095Y6789D01*
G01X25109Y6800D01*
G01X25120Y6812D01*
G01X25131Y6827D01*
G01X25139Y6845D01*
G01X25146Y6865D01*
G01X25151Y6889D01*
G01X25155Y6915D01*
G01X25156Y6944D01*
G01X25155Y6973D01*
G01X25151Y7000D01*
G01X25146Y7024D01*
G01X25138Y7045D01*
G01X25129Y7064D01*
G01X25118Y7079D01*
G01X25106Y7092D01*
G01X25093Y7103D01*
G01X25078Y7111D01*
G01X25063Y7116D01*
G01X25047Y7119D01*
G01X25031Y7121D01*
G01X25008Y7118D01*
G01X24985Y7111D01*
G01X24959Y7096D01*
G01X24932Y7075D01*
G01X24932Y6821D01*
G01X24956Y6797D01*
G01X24979Y6782D01*
G01X25004Y6774D01*
G37*

%LPD*%
G36*
G01X25501Y6727D02*
G01X25480Y6726D01*
G01X25452Y6728D01*
G01X25425Y6733D01*
G01X25401Y6742D01*
G01X25379Y6753D01*
G01X25360Y6767D01*
G01X25342Y6785D01*
G01X25327Y6804D01*
G01X25314Y6826D01*
G01X25332Y6838D01*
G01X25356Y6813D01*
G01X25383Y6793D01*
G01X25415Y6780D01*
G01X25455Y6776D01*
G01X25475Y6777D01*
G01X25495Y6780D01*
G01X25513Y6786D01*
G01X25530Y6795D01*
G01X25545Y6806D01*
G01X25559Y6819D01*
G01X25571Y6835D01*
G01X25581Y6853D01*
G01X25589Y6873D01*
G01X25594Y6896D01*
G01X25598Y6922D01*
G01X25600Y6950D01*
G01X25319Y6948D01*
G01X25316Y6958D01*
G01X25314Y6970D01*
G01X25312Y6983D01*
G01X25312Y6998D01*
G01X25313Y7022D01*
G01X25317Y7046D01*
G01X25324Y7067D01*
G01X25333Y7086D01*
G01X25345Y7104D01*
G01X25358Y7119D01*
G01X25374Y7133D01*
G01X25391Y7144D01*
G01X25410Y7153D01*
G01X25431Y7159D01*
G01X25453Y7163D01*
G01X25476Y7165D01*
G01X25496Y7163D01*
G01X25515Y7161D01*
G01X25534Y7155D01*
G01X25553Y7149D01*
G01X25570Y7140D01*
G01X25587Y7130D01*
G01X25602Y7118D01*
G01X25617Y7104D01*
G01X25630Y7089D01*
G01X25642Y7072D01*
G01X25652Y7054D01*
G01X25660Y7034D01*
G01X25667Y7013D01*
G01X25672Y6991D01*
G01X25676Y6967D01*
G01X25677Y6942D01*
G01X25676Y6917D01*
G01X25673Y6894D01*
G01X25668Y6872D01*
G01X25662Y6851D01*
G01X25655Y6832D01*
G01X25645Y6814D01*
G01X25634Y6798D01*
G01X25622Y6783D01*
G01X25608Y6770D01*
G01X25593Y6759D01*
G01X25577Y6749D01*
G01X25560Y6741D01*
G01X25541Y6735D01*
G01X25522Y6730D01*
G01X25501Y6727D01*
G37*

%LPC*%
G36*
G01X25407Y6984D02*
G01X25431Y6980D01*
G01X25600Y6982D01*
G01X25594Y7019D01*
G01X25585Y7050D01*
G01X25572Y7075D01*
G01X25556Y7096D01*
G01X25539Y7112D01*
G01X25520Y7123D01*
G01X25500Y7129D01*
G01X25480Y7132D01*
G01X25460Y7129D01*
G01X25441Y7123D01*
G01X25425Y7113D01*
G01X25411Y7101D01*
G01X25399Y7086D01*
G01X25391Y7068D01*
G01X25385Y7049D01*
G01X25384Y7030D01*
G01X25385Y7009D01*
G01X25393Y6994D01*
G01X25407Y6984D01*
G37*

%LPD*%
G36*
G01X22137Y6738D02*
G01X21936Y6738D01*
G01X21936Y6765D01*
G01X21997Y6775D01*
G01X21997Y6810D01*
G01X21998Y6849D01*
G01X21998Y6887D01*
G01X21999Y6921D01*
G01X21999Y7005D01*
G01X22000Y7045D01*
G01X22006Y7078D01*
G01X22014Y7105D01*
G01X22027Y7127D01*
G01X22042Y7144D01*
G01X22061Y7155D01*
G01X22084Y7162D01*
G01X22111Y7165D01*
G01X22131Y7163D01*
G01X22152Y7159D01*
G01X22172Y7152D01*
G01X22193Y7143D01*
G01X22213Y7131D01*
G01X22232Y7117D01*
G01X22251Y7101D01*
G01X22268Y7084D01*
G01X22276Y7155D01*
G01X22288Y7163D01*
G01X22411Y7115D01*
G01X22411Y7090D01*
G01X22341Y7082D01*
G01X22340Y7057D01*
G01X22339Y7030D01*
G01X22339Y7001D01*
G01X22339Y6967D01*
G01X22339Y6888D01*
G01X22339Y6850D01*
G01X22339Y6811D01*
G01X22340Y6775D01*
G01X22405Y6765D01*
G01X22405Y6738D01*
G01X22204Y6738D01*
G01X22204Y6765D01*
G01X22264Y6775D01*
G01X22264Y6811D01*
G01X22265Y6850D01*
G01X22265Y6888D01*
G01X22266Y6921D01*
G01X22266Y7051D01*
G01X22233Y7078D01*
G01X22202Y7096D01*
G01X22173Y7106D01*
G01X22144Y7109D01*
G01X22126Y7108D01*
G01X22110Y7104D01*
G01X22098Y7097D01*
G01X22088Y7086D01*
G01X22080Y7072D01*
G01X22075Y7053D01*
G01X22072Y7031D01*
G01X22071Y7003D01*
G01X22071Y6887D01*
G01X22071Y6849D01*
G01X22072Y6810D01*
G01X22072Y6775D01*
G01X22137Y6765D01*
G01X22137Y6738D01*
G37*

%LPC*%

%LPD*%
G36*
G01X23654Y6738D02*
G01X23441Y6738D01*
G01X23441Y6765D01*
G01X23514Y6776D01*
G01X23514Y6811D01*
G01X23515Y6850D01*
G01X23515Y6888D01*
G01X23516Y6921D01*
G01X23516Y6990D01*
G01X23502Y7027D01*
G01X23485Y7058D01*
G01X23464Y7084D01*
G01X23440Y7107D01*
G01X23429Y7096D01*
G01X23416Y7086D01*
G01X23403Y7078D01*
G01X23389Y7073D01*
G01X23375Y7071D01*
G01X23352Y7076D01*
G01X23336Y7088D01*
G01X23327Y7107D01*
G01X23325Y7132D01*
G01X23335Y7146D01*
G01X23350Y7156D01*
G01X23368Y7162D01*
G01X23388Y7165D01*
G01X23406Y7163D01*
G01X23424Y7157D01*
G01X23442Y7147D01*
G01X23460Y7134D01*
G01X23476Y7118D01*
G01X23491Y7099D01*
G01X23504Y7076D01*
G01X23516Y7051D01*
G01X23525Y7155D01*
G01X23537Y7163D01*
G01X23660Y7115D01*
G01X23660Y7090D01*
G01X23591Y7082D01*
G01X23589Y7057D01*
G01X23588Y7030D01*
G01X23588Y7001D01*
G01X23588Y6967D01*
G01X23588Y6921D01*
G01X23588Y6887D01*
G01X23588Y6849D01*
G01X23589Y6810D01*
G01X23590Y6775D01*
G01X23654Y6765D01*
G01X23654Y6738D01*
G37*

%LPC*%

%LPD*%
G36*
G01X25956Y6738D02*
G01X25740Y6738D01*
G01X25740Y6765D01*
G01X25811Y6775D01*
G01X25811Y6811D01*
G01X25811Y6848D01*
G01X25812Y6885D01*
G01X25812Y7255D01*
G01X25808Y7380D01*
G01X25820Y7386D01*
G01X25956Y7348D01*
G01X25956Y7323D01*
G01X25884Y7315D01*
G01X25884Y6921D01*
G01X25884Y6885D01*
G01X25884Y6848D01*
G01X25885Y6811D01*
G01X25886Y6775D01*
G01X25956Y6765D01*
G01X25956Y6738D01*
G37*

%LPC*%

%LPD*%
G54D66*
G01X28165Y8499D02*
G01X28206Y8479D01*
G01X28247Y8438D01*
G01X28268Y8397D01*
G01X28288Y8336D01*
G01X28288Y8234D01*
G01X28268Y8172D01*
G01X28247Y8131D01*
G01X28206Y8090D01*
G01X28165Y8070D01*
G01X28083Y8070D01*
G01X28043Y8090D01*
G01X28002Y8131D01*
G01X27981Y8172D01*
G01X27961Y8234D01*
G01X27961Y8336D01*
G01X27981Y8397D01*
G01X28002Y8438D01*
G01X28043Y8479D01*
G01X28083Y8499D01*
G01X28165Y8499D01*
G01X27826Y8499D02*
G01X27826Y8070D01*
G01X27826Y8070D02*
G01X27580Y8070D01*
G01X27445Y8499D02*
G01X27445Y8070D01*
G01X27445Y8499D02*
G01X27179Y8499D01*
G01X27445Y8295D02*
G01X27282Y8295D01*
G01X27445Y8070D02*
G01X27179Y8070D01*
G01X27044Y8499D02*
G01X27044Y8070D01*
G01X27044Y8499D02*
G01X26901Y8499D01*
G01X26840Y8479D01*
G01X26799Y8438D01*
G01X26778Y8397D01*
G01X26758Y8336D01*
G01X26758Y8234D01*
G01X26778Y8172D01*
G01X26799Y8131D01*
G01X26840Y8090D01*
G01X26901Y8070D01*
G01X27044Y8070D01*
G01X26337Y8438D02*
G01X26378Y8479D01*
G01X26439Y8499D01*
G01X26521Y8499D01*
G01X26582Y8479D01*
G01X26623Y8438D01*
G01X26623Y8397D01*
G01X26603Y8356D01*
G01X26582Y8336D01*
G01X26541Y8315D01*
G01X26418Y8274D01*
G01X26378Y8254D01*
G01X26357Y8234D01*
G01X26337Y8193D01*
G01X26337Y8131D01*
G01X26378Y8090D01*
G01X26439Y8070D01*
G01X26521Y8070D01*
G01X26582Y8090D01*
G01X26623Y8131D01*
G01X25895Y8397D02*
G01X25915Y8438D01*
G01X25956Y8479D01*
G01X25997Y8499D01*
G01X26079Y8499D01*
G01X26120Y8479D01*
G01X26161Y8438D01*
G01X26181Y8397D01*
G01X26202Y8336D01*
G01X26202Y8234D01*
G01X26181Y8172D01*
G01X26161Y8131D01*
G01X26120Y8090D01*
G01X26079Y8070D01*
G01X25997Y8070D01*
G01X25956Y8090D01*
G01X25915Y8131D01*
G01X25895Y8172D01*
G01X25760Y8499D02*
G01X25760Y8070D01*
G01X25760Y8499D02*
G01X25576Y8499D01*
G01X25514Y8479D01*
G01X25494Y8459D01*
G01X25473Y8418D01*
G01X25473Y8377D01*
G01X25494Y8336D01*
G01X25514Y8315D01*
G01X25576Y8295D01*
G01X25760Y8295D01*
G01X25617Y8295D02*
G01X25473Y8070D01*
G01X25338Y8499D02*
G01X25338Y8070D01*
G01X25338Y8499D02*
G01X25073Y8499D01*
G01X25338Y8295D02*
G01X25175Y8295D01*
G01X25338Y8070D02*
G01X25073Y8070D01*
G01X24938Y8499D02*
G01X24938Y8070D01*
G01X24938Y8499D02*
G01X24672Y8499D01*
G01X24938Y8295D02*
G01X24774Y8295D01*
G01X24938Y8070D02*
G01X24672Y8070D01*
G01X24537Y8499D02*
G01X24537Y8070D01*
G01X24537Y8499D02*
G01X24250Y8070D01*
G01X24250Y8499D02*
G01X24250Y8070D01*
G01X9151Y17942D02*
G01X9110Y17963D01*
G01X9069Y18005D01*
G01X9049Y18044D01*
G01X9049Y18127D01*
G01X9069Y18167D01*
G01X9110Y18209D01*
G01X9151Y18230D01*
G01X9212Y18250D01*
G01X9314Y18250D01*
G01X9376Y18230D01*
G01X9417Y18209D01*
G01X9458Y18167D01*
G01X9478Y18127D01*
G01X9478Y18044D01*
G01X9458Y18005D01*
G01X9417Y17963D01*
G01X9376Y17942D01*
G01X9049Y17521D02*
G01X9478Y17726D01*
G01X9049Y17807D02*
G01X9049Y17521D01*
G01X33083Y9333D02*
G01X33083Y8904D01*
G01X33083Y9333D02*
G01X32899Y9333D01*
G01X32838Y9313D01*
G01X32817Y9293D01*
G01X32797Y9252D01*
G01X32797Y9211D01*
G01X32817Y9170D01*
G01X32838Y9149D01*
G01X32899Y9129D01*
G01X33083Y9129D02*
G01X32899Y9129D01*
G01X32838Y9108D01*
G01X32817Y9088D01*
G01X32797Y9047D01*
G01X32797Y8986D01*
G01X32817Y8945D01*
G01X32838Y8924D01*
G01X32899Y8904D01*
G01X33083Y8904D01*
G01X32518Y9333D02*
G01X32518Y8904D01*
G01X32662Y9333D02*
G01X32375Y9333D01*
G01X32240Y9333D02*
G01X32240Y8904D01*
G01X32240Y9333D02*
G01X31954Y8904D01*
G01X31954Y9333D02*
G01X31954Y8904D01*
G01X31819Y8761D02*
G01X31451Y8761D01*
G01X31193Y9333D02*
G01X31234Y9313D01*
G01X31275Y9272D01*
G01X31295Y9231D01*
G01X31316Y9170D01*
G01X31316Y9068D01*
G01X31295Y9006D01*
G01X31275Y8965D01*
G01X31234Y8924D01*
G01X31193Y8904D01*
G01X31111Y8904D01*
G01X31070Y8924D01*
G01X31029Y8965D01*
G01X31009Y9006D01*
G01X30988Y9068D01*
G01X30988Y9170D01*
G01X31009Y9231D01*
G01X31029Y9272D01*
G01X31070Y9313D01*
G01X31111Y9333D01*
G01X31193Y9333D01*
G01X30853Y9333D02*
G01X30853Y8904D01*
G01X30853Y9333D02*
G01X30567Y8904D01*
G01X30567Y9333D02*
G01X30567Y8904D01*
G01X30432Y8761D02*
G01X30064Y8761D01*
G01X29806Y9333D02*
G01X29847Y9313D01*
G01X29888Y9272D01*
G01X29908Y9231D01*
G01X29929Y9170D01*
G01X29929Y9068D01*
G01X29908Y9006D01*
G01X29888Y8965D01*
G01X29847Y8924D01*
G01X29806Y8904D01*
G01X29724Y8904D01*
G01X29683Y8924D01*
G01X29643Y8965D01*
G01X29622Y9006D01*
G01X29602Y9068D01*
G01X29602Y9170D01*
G01X29622Y9231D01*
G01X29643Y9272D01*
G01X29683Y9313D01*
G01X29724Y9333D01*
G01X29806Y9333D01*
G01X29467Y9333D02*
G01X29467Y8904D01*
G01X29467Y9333D02*
G01X29201Y9333D01*
G01X29467Y9129D02*
G01X29303Y9129D01*
G01X29066Y9333D02*
G01X29066Y8904D01*
G01X29066Y9333D02*
G01X28800Y9333D01*
G01X29066Y9129D02*
G01X28902Y9129D01*
G01X17780Y2625D02*
G01X17780Y2196D01*
G01X17780Y2625D02*
G01X17596Y2625D01*
G01X17535Y2605D01*
G01X17514Y2585D01*
G01X17494Y2544D01*
G01X17494Y2503D01*
G01X17514Y2462D01*
G01X17535Y2441D01*
G01X17596Y2421D01*
G01X17780Y2421D02*
G01X17596Y2421D01*
G01X17535Y2400D01*
G01X17514Y2380D01*
G01X17494Y2339D01*
G01X17494Y2278D01*
G01X17514Y2237D01*
G01X17535Y2216D01*
G01X17596Y2196D01*
G01X17780Y2196D01*
G01X17215Y2625D02*
G01X17215Y2196D01*
G01X17359Y2625D02*
G01X17072Y2625D01*
G01X16937Y2625D02*
G01X16937Y2196D01*
G01X16937Y2625D02*
G01X16651Y2196D01*
G01X16651Y2625D02*
G01X16651Y2196D01*
G01X16516Y2053D02*
G01X16148Y2053D01*
G01X16013Y2625D02*
G01X16013Y2196D01*
G01X16013Y2625D02*
G01X15829Y2625D01*
G01X15767Y2605D01*
G01X15747Y2585D01*
G01X15726Y2544D01*
G01X15726Y2482D01*
G01X15747Y2441D01*
G01X15767Y2421D01*
G01X15829Y2400D01*
G01X16013Y2400D01*
G01X15591Y2625D02*
G01X15591Y2196D01*
G01X15591Y2196D02*
G01X15346Y2196D01*
G01X14925Y2564D02*
G01X14965Y2605D01*
G01X15027Y2625D01*
G01X15109Y2625D01*
G01X15170Y2605D01*
G01X15211Y2564D01*
G01X15211Y2523D01*
G01X15190Y2482D01*
G01X15170Y2462D01*
G01X15129Y2441D01*
G01X15006Y2400D01*
G01X14965Y2380D01*
G01X14945Y2360D01*
G01X14925Y2319D01*
G01X14925Y2257D01*
G01X14965Y2216D01*
G01X15027Y2196D01*
G01X15109Y2196D01*
G01X15170Y2216D01*
G01X15211Y2257D01*
G01X32261Y2625D02*
G01X32261Y2196D01*
G01X32261Y2625D02*
G01X32077Y2625D01*
G01X32016Y2605D01*
G01X31995Y2585D01*
G01X31975Y2544D01*
G01X31975Y2503D01*
G01X31995Y2462D01*
G01X32016Y2441D01*
G01X32077Y2421D01*
G01X32261Y2421D02*
G01X32077Y2421D01*
G01X32016Y2400D01*
G01X31995Y2380D01*
G01X31975Y2339D01*
G01X31975Y2278D01*
G01X31995Y2237D01*
G01X32016Y2216D01*
G01X32077Y2196D01*
G01X32261Y2196D01*
G01X31696Y2625D02*
G01X31696Y2196D01*
G01X31840Y2625D02*
G01X31553Y2625D01*
G01X31418Y2625D02*
G01X31418Y2196D01*
G01X31418Y2625D02*
G01X31132Y2196D01*
G01X31132Y2625D02*
G01X31132Y2196D01*
G01X30997Y2053D02*
G01X30629Y2053D01*
G01X30494Y2625D02*
G01X30494Y2196D01*
G01X30494Y2625D02*
G01X30330Y2196D01*
G01X30166Y2625D02*
G01X30330Y2196D01*
G01X30166Y2625D02*
G01X30166Y2196D01*
G01X30031Y2625D02*
G01X30031Y2196D01*
G01X30031Y2625D02*
G01X29745Y2196D01*
G01X29745Y2625D02*
G01X29745Y2196D01*
G01X29324Y2564D02*
G01X29365Y2605D01*
G01X29426Y2625D01*
G01X29508Y2625D01*
G01X29569Y2605D01*
G01X29610Y2564D01*
G01X29610Y2523D01*
G01X29590Y2482D01*
G01X29569Y2462D01*
G01X29528Y2441D01*
G01X29406Y2400D01*
G01X29365Y2380D01*
G01X29344Y2360D01*
G01X29324Y2319D01*
G01X29324Y2257D01*
G01X29365Y2216D01*
G01X29426Y2196D01*
G01X29508Y2196D01*
G01X29569Y2216D01*
G01X29610Y2257D01*
G01X18221Y9050D02*
G01X18221Y8621D01*
G01X18221Y9050D02*
G01X18037Y9050D01*
G01X17976Y9030D01*
G01X17955Y9010D01*
G01X17935Y8969D01*
G01X17935Y8928D01*
G01X17955Y8887D01*
G01X17976Y8866D01*
G01X18037Y8846D01*
G01X18221Y8846D02*
G01X18037Y8846D01*
G01X17976Y8825D01*
G01X17955Y8805D01*
G01X17935Y8764D01*
G01X17935Y8703D01*
G01X17955Y8662D01*
G01X17976Y8641D01*
G01X18037Y8621D01*
G01X18221Y8621D01*
G01X17656Y9050D02*
G01X17656Y8621D01*
G01X17800Y9050D02*
G01X17513Y9050D01*
G01X17378Y9050D02*
G01X17378Y8621D01*
G01X17378Y9050D02*
G01X17092Y8621D01*
G01X17092Y9050D02*
G01X17092Y8621D01*
G01X16957Y8478D02*
G01X16589Y8478D01*
G01X16454Y9050D02*
G01X16454Y8621D01*
G01X16454Y9050D02*
G01X16188Y9050D01*
G01X16454Y8846D02*
G01X16290Y8846D01*
G01X16454Y8621D02*
G01X16188Y8621D01*
G01X16053Y9050D02*
G01X16053Y8621D01*
G01X16053Y9050D02*
G01X15766Y8621D01*
G01X15766Y9050D02*
G01X15766Y8621D01*
G01X15488Y9050D02*
G01X15488Y8621D01*
G01X15631Y9050D02*
G01X15345Y9050D01*
G01X15210Y9050D02*
G01X15210Y8621D01*
G01X15210Y9050D02*
G01X15026Y9050D01*
G01X14965Y9030D01*
G01X14944Y9010D01*
G01X14924Y8969D01*
G01X14924Y8928D01*
G01X14944Y8887D01*
G01X14965Y8866D01*
G01X15026Y8846D01*
G01X15210Y8846D01*
G01X15067Y8846D02*
G01X14924Y8621D01*
G01X11478Y18950D02*
G01X11478Y18644D01*
G01X11458Y18582D01*
G01X11417Y18541D01*
G01X11355Y18521D01*
G01X11314Y18521D01*
G01X11253Y18541D01*
G01X11212Y18582D01*
G01X11192Y18644D01*
G01X11192Y18950D01*
G01X10852Y18950D02*
G01X11057Y18664D01*
G01X10750Y18664D01*
G01X10852Y18950D02*
G01X10852Y18521D01*
G01X13001Y21567D02*
G01X12960Y21588D01*
G01X12919Y21630D01*
G01X12899Y21669D01*
G01X12899Y21752D01*
G01X12919Y21792D01*
G01X12960Y21834D01*
G01X13001Y21855D01*
G01X13062Y21875D01*
G01X13164Y21875D01*
G01X13226Y21855D01*
G01X13267Y21834D01*
G01X13308Y21792D01*
G01X13328Y21752D01*
G01X13328Y21669D01*
G01X13308Y21630D01*
G01X13267Y21588D01*
G01X13226Y21567D01*
G01X12899Y21330D02*
G01X12919Y21392D01*
G01X12960Y21413D01*
G01X13001Y21413D01*
G01X13042Y21392D01*
G01X13062Y21351D01*
G01X13083Y21269D01*
G01X13103Y21207D01*
G01X13144Y21167D01*
G01X13185Y21146D01*
G01X13246Y21146D01*
G01X13287Y21167D01*
G01X13308Y21188D01*
G01X13328Y21248D01*
G01X13328Y21330D01*
G01X13308Y21392D01*
G01X13287Y21413D01*
G01X13246Y21432D01*
G01X13185Y21432D01*
G01X13144Y21413D01*
G01X13103Y21371D01*
G01X13083Y21309D01*
G01X13062Y21228D01*
G01X13042Y21188D01*
G01X13001Y21167D01*
G01X12960Y21167D01*
G01X12919Y21188D01*
G01X12899Y21248D01*
G01X12899Y21330D01*
G01X9825Y21900D02*
G01X9825Y21471D01*
G01X9825Y21900D02*
G01X9640Y21900D01*
G01X9580Y21880D01*
G01X9559Y21860D01*
G01X9539Y21819D01*
G01X9539Y21778D01*
G01X9559Y21737D01*
G01X9580Y21716D01*
G01X9640Y21696D01*
G01X9825Y21696D01*
G01X9681Y21696D02*
G01X9539Y21471D01*
G01X9403Y21819D02*
G01X9363Y21839D01*
G01X9301Y21900D01*
G01X9301Y21471D01*
G01X8921Y21839D02*
G01X8940Y21880D01*
G01X9002Y21900D01*
G01X9043Y21900D01*
G01X9105Y21880D01*
G01X9146Y21819D01*
G01X9165Y21716D01*
G01X9165Y21614D01*
G01X9146Y21532D01*
G01X9105Y21491D01*
G01X9043Y21471D01*
G01X9022Y21471D01*
G01X8961Y21491D01*
G01X8921Y21532D01*
G01X8900Y21594D01*
G01X8900Y21614D01*
G01X8921Y21675D01*
G01X8961Y21716D01*
G01X9022Y21737D01*
G01X9043Y21737D01*
G01X9105Y21716D01*
G01X9146Y21675D01*
G01X9165Y21614D01*
G01X5375Y19425D02*
G01X5375Y18996D01*
G01X5375Y19425D02*
G01X5190Y19425D01*
G01X5130Y19405D01*
G01X5109Y19385D01*
G01X5089Y19344D01*
G01X5089Y19303D01*
G01X5109Y19262D01*
G01X5130Y19241D01*
G01X5190Y19221D01*
G01X5375Y19221D01*
G01X5231Y19221D02*
G01X5089Y18996D01*
G01X4953Y19344D02*
G01X4913Y19364D01*
G01X4851Y19425D01*
G01X4851Y18996D01*
G01X4450Y19282D02*
G01X4471Y19221D01*
G01X4511Y19180D01*
G01X4572Y19160D01*
G01X4593Y19160D01*
G01X4655Y19180D01*
G01X4696Y19221D01*
G01X4715Y19282D01*
G01X4715Y19303D01*
G01X4696Y19364D01*
G01X4655Y19405D01*
G01X4593Y19425D01*
G01X4572Y19425D01*
G01X4511Y19405D01*
G01X4471Y19364D01*
G01X4450Y19282D01*
G01X4450Y19180D01*
G01X4471Y19078D01*
G01X4511Y19016D01*
G01X4572Y18996D01*
G01X4614Y18996D01*
G01X4675Y19016D01*
G01X4696Y19057D01*
G01X2439Y10894D02*
G01X2439Y10567D01*
G01X2460Y10506D01*
G01X2480Y10485D01*
G01X2521Y10465D01*
G01X2562Y10465D01*
G01X2603Y10485D01*
G01X2624Y10506D01*
G01X2644Y10567D01*
G01X2644Y10608D01*
G01X2161Y10894D02*
G01X2161Y10465D01*
G01X2304Y10894D02*
G01X2018Y10894D01*
G01X1719Y10894D02*
G01X1883Y10465D01*
G01X1719Y10894D02*
G01X1556Y10465D01*
G01X1822Y10608D02*
G01X1617Y10608D01*
G01X1114Y10792D02*
G01X1134Y10833D01*
G01X1175Y10874D01*
G01X1216Y10894D01*
G01X1298Y10894D01*
G01X1339Y10874D01*
G01X1380Y10833D01*
G01X1400Y10792D01*
G01X1421Y10731D01*
G01X1421Y10629D01*
G01X1400Y10567D01*
G01X1380Y10526D01*
G01X1339Y10485D01*
G01X1298Y10465D01*
G01X1216Y10465D01*
G01X1175Y10485D01*
G01X1134Y10526D01*
G01X1114Y10567D01*
G01X1114Y10629D01*
G01X1216Y10629D02*
G01X1114Y10629D01*
G01X979Y10813D02*
G01X938Y10833D01*
G01X877Y10894D01*
G01X877Y10465D01*
G01X30394Y19925D02*
G01X30394Y19619D01*
G01X30374Y19557D01*
G01X30333Y19516D01*
G01X30271Y19496D01*
G01X30230Y19496D01*
G01X30169Y19516D01*
G01X30128Y19557D01*
G01X30108Y19619D01*
G01X30108Y19925D01*
G01X29973Y19844D02*
G01X29932Y19864D01*
G01X29870Y19925D01*
G01X29870Y19496D01*
G01X29694Y19925D02*
G01X29469Y19925D01*
G01X29592Y19762D01*
G01X29531Y19762D01*
G01X29490Y19741D01*
G01X29469Y19721D01*
G01X29449Y19660D01*
G01X29449Y19619D01*
G01X29469Y19557D01*
G01X29510Y19516D01*
G01X29572Y19496D01*
G01X29633Y19496D01*
G01X29694Y19516D01*
G01X29715Y19537D01*
G01X29735Y19578D01*
G01X7121Y15750D02*
G01X7121Y15321D01*
G01X7121Y15750D02*
G01X6937Y15750D01*
G01X6876Y15730D01*
G01X6855Y15710D01*
G01X6835Y15669D01*
G01X6835Y15628D01*
G01X6855Y15587D01*
G01X6876Y15566D01*
G01X6937Y15546D01*
G01X7121Y15546D02*
G01X6937Y15546D01*
G01X6876Y15525D01*
G01X6855Y15505D01*
G01X6835Y15464D01*
G01X6835Y15403D01*
G01X6855Y15362D01*
G01X6876Y15341D01*
G01X6937Y15321D01*
G01X7121Y15321D01*
G01X6556Y15750D02*
G01X6556Y15321D01*
G01X6700Y15750D02*
G01X6413Y15750D01*
G01X6278Y15750D02*
G01X6278Y15321D01*
G01X6278Y15750D02*
G01X5992Y15321D01*
G01X5992Y15750D02*
G01X5992Y15321D01*
G01X5857Y15178D02*
G01X5489Y15178D01*
G01X5354Y15750D02*
G01X5354Y15321D01*
G01X5354Y15750D02*
G01X5170Y15750D01*
G01X5108Y15730D01*
G01X5088Y15710D01*
G01X5067Y15669D01*
G01X5067Y15628D01*
G01X5088Y15587D01*
G01X5108Y15566D01*
G01X5170Y15546D01*
G01X5354Y15546D01*
G01X5211Y15546D02*
G01X5067Y15321D01*
G01X4646Y15689D02*
G01X4687Y15730D01*
G01X4748Y15750D01*
G01X4830Y15750D01*
G01X4891Y15730D01*
G01X4932Y15689D01*
G01X4932Y15648D01*
G01X4912Y15607D01*
G01X4891Y15587D01*
G01X4851Y15566D01*
G01X4728Y15525D01*
G01X4687Y15505D01*
G01X4666Y15485D01*
G01X4646Y15444D01*
G01X4646Y15382D01*
G01X4687Y15341D01*
G01X4748Y15321D01*
G01X4830Y15321D01*
G01X4891Y15341D01*
G01X4932Y15382D01*
G01X4368Y15750D02*
G01X4368Y15321D01*
G01X4511Y15750D02*
G01X4225Y15750D01*
G01X33595Y5743D02*
G01X33595Y5314D01*
G01X33595Y5314D02*
G01X33350Y5314D01*
G01X33215Y5743D02*
G01X33215Y5314D01*
G01X33215Y5743D02*
G01X32949Y5743D01*
G01X33215Y5539D02*
G01X33051Y5539D01*
G01X33215Y5314D02*
G01X32949Y5314D01*
G01X32814Y5743D02*
G01X32814Y5314D01*
G01X32814Y5743D02*
G01X32670Y5743D01*
G01X32609Y5723D01*
G01X32568Y5682D01*
G01X32548Y5641D01*
G01X32527Y5580D01*
G01X32527Y5478D01*
G01X32548Y5416D01*
G01X32568Y5375D01*
G01X32609Y5334D01*
G01X32670Y5314D01*
G01X32814Y5314D01*
G01X32392Y5171D02*
G01X32024Y5171D01*
G01X31725Y5743D02*
G01X31889Y5314D01*
G01X31725Y5743D02*
G01X31562Y5314D01*
G01X31828Y5457D02*
G01X31623Y5457D01*
G01X31120Y5641D02*
G01X31140Y5682D01*
G01X31181Y5723D01*
G01X31222Y5743D01*
G01X31304Y5743D01*
G01X31345Y5723D01*
G01X31386Y5682D01*
G01X31406Y5641D01*
G01X31427Y5580D01*
G01X31427Y5478D01*
G01X31406Y5416D01*
G01X31386Y5375D01*
G01X31345Y5334D01*
G01X31304Y5314D01*
G01X31222Y5314D01*
G01X31181Y5334D01*
G01X31140Y5375D01*
G01X31120Y5416D01*
G01X30842Y5743D02*
G01X30842Y5314D01*
G01X30985Y5743D02*
G01X30699Y5743D01*
G01X34407Y4682D02*
G01X34407Y4253D01*
G01X34407Y4253D02*
G01X34162Y4253D01*
G01X34027Y4682D02*
G01X34027Y4253D01*
G01X34027Y4682D02*
G01X33761Y4682D01*
G01X34027Y4478D02*
G01X33863Y4478D01*
G01X34027Y4253D02*
G01X33761Y4253D01*
G01X33626Y4682D02*
G01X33626Y4253D01*
G01X33626Y4682D02*
G01X33482Y4682D01*
G01X33421Y4662D01*
G01X33380Y4621D01*
G01X33360Y4580D01*
G01X33339Y4519D01*
G01X33339Y4417D01*
G01X33360Y4355D01*
G01X33380Y4314D01*
G01X33421Y4273D01*
G01X33482Y4253D01*
G01X33626Y4253D01*
G01X33204Y4110D02*
G01X32836Y4110D01*
G01X32701Y4682D02*
G01X32701Y4253D01*
G01X32701Y4253D02*
G01X32456Y4253D01*
G01X32321Y4682D02*
G01X32321Y4253D01*
G01X32321Y4682D02*
G01X32137Y4682D01*
G01X32075Y4662D01*
G01X32055Y4642D01*
G01X32034Y4601D01*
G01X32034Y4560D01*
G01X32055Y4519D01*
G01X32075Y4498D01*
G01X32137Y4478D01*
G01X32321Y4478D02*
G01X32137Y4478D01*
G01X32075Y4457D01*
G01X32055Y4437D01*
G01X32034Y4396D01*
G01X32034Y4335D01*
G01X32055Y4294D01*
G01X32075Y4273D01*
G01X32137Y4253D01*
G01X32321Y4253D01*
G01X31736Y4682D02*
G01X31899Y4253D01*
G01X31736Y4682D02*
G01X31572Y4253D01*
G01X31838Y4396D02*
G01X31633Y4396D01*
G01X31294Y4682D02*
G01X31294Y4253D01*
G01X31437Y4682D02*
G01X31151Y4682D01*
G01X30872Y4682D02*
G01X30872Y4253D01*
G01X31016Y4682D02*
G01X30729Y4682D01*
G01X11692Y22808D02*
G01X11692Y22379D01*
G01X11692Y22379D02*
G01X11447Y22379D01*
G01X11312Y22808D02*
G01X11312Y22379D01*
G01X11312Y22808D02*
G01X11046Y22808D01*
G01X11312Y22604D02*
G01X11148Y22604D01*
G01X11312Y22379D02*
G01X11046Y22379D01*
G01X10911Y22808D02*
G01X10911Y22379D01*
G01X10911Y22808D02*
G01X10767Y22808D01*
G01X10706Y22788D01*
G01X10665Y22747D01*
G01X10645Y22706D01*
G01X10624Y22645D01*
G01X10624Y22543D01*
G01X10645Y22481D01*
G01X10665Y22440D01*
G01X10706Y22399D01*
G01X10767Y22379D01*
G01X10911Y22379D01*
G01X10489Y22236D02*
G01X10121Y22236D01*
G01X9679Y22706D02*
G01X9700Y22747D01*
G01X9741Y22788D01*
G01X9782Y22808D01*
G01X9863Y22808D01*
G01X9904Y22788D01*
G01X9945Y22747D01*
G01X9966Y22706D01*
G01X9986Y22645D01*
G01X9986Y22543D01*
G01X9966Y22481D01*
G01X9945Y22440D01*
G01X9904Y22399D01*
G01X9863Y22379D01*
G01X9782Y22379D01*
G01X9741Y22399D01*
G01X9700Y22440D01*
G01X9679Y22481D01*
G01X9544Y22808D02*
G01X9544Y22379D01*
G01X9258Y22808D02*
G01X9258Y22379D01*
G01X9544Y22604D02*
G01X9258Y22604D01*
G01X8816Y22706D02*
G01X8837Y22747D01*
G01X8877Y22788D01*
G01X8918Y22808D01*
G01X9000Y22808D01*
G01X9041Y22788D01*
G01X9082Y22747D01*
G01X9102Y22706D01*
G01X9123Y22645D01*
G01X9123Y22543D01*
G01X9102Y22481D01*
G01X9082Y22440D01*
G01X9041Y22399D01*
G01X9000Y22379D01*
G01X8918Y22379D01*
G01X8877Y22399D01*
G01X8837Y22440D01*
G01X8816Y22481D01*
G01X8816Y22543D01*
G01X8918Y22543D02*
G01X8816Y22543D01*
G01X4027Y18049D02*
G01X4027Y17620D01*
G01X4027Y18049D02*
G01X3761Y18049D01*
G01X4027Y17845D02*
G01X3863Y17845D01*
G01X3483Y18049D02*
G01X3483Y17620D01*
G01X3626Y18049D02*
G01X3340Y18049D01*
G01X3205Y18049D02*
G01X3205Y17620D01*
G01X3205Y18049D02*
G01X3062Y18049D01*
G01X3000Y18029D01*
G01X2959Y17988D01*
G01X2939Y17947D01*
G01X2918Y17886D01*
G01X2918Y17784D01*
G01X2939Y17722D01*
G01X2959Y17681D01*
G01X3000Y17640D01*
G01X3062Y17620D01*
G01X3205Y17620D01*
G01X2783Y18049D02*
G01X2783Y17620D01*
G01X2648Y17477D02*
G01X2280Y17477D01*
G01X2104Y18049D02*
G01X1879Y18049D01*
G01X2002Y17886D01*
G01X1941Y17886D01*
G01X1900Y17865D01*
G01X1879Y17845D01*
G01X1859Y17784D01*
G01X1859Y17743D01*
G01X1879Y17681D01*
G01X1920Y17640D01*
G01X1982Y17620D01*
G01X2043Y17620D01*
G01X2104Y17640D01*
G01X2125Y17661D01*
G01X2145Y17702D01*
G01X1703Y17722D02*
G01X1724Y17702D01*
G01X1703Y17681D01*
G01X1683Y17702D01*
G01X1703Y17722D01*
G01X1507Y18049D02*
G01X1282Y18049D01*
G01X1405Y17886D01*
G01X1343Y17886D01*
G01X1302Y17865D01*
G01X1282Y17845D01*
G01X1262Y17784D01*
G01X1262Y17743D01*
G01X1282Y17681D01*
G01X1323Y17640D01*
G01X1384Y17620D01*
G01X1446Y17620D01*
G01X1507Y17640D01*
G01X1527Y17661D01*
G01X1548Y17702D01*
G01X1127Y18049D02*
G01X963Y17620D01*
G01X799Y18049D02*
G01X963Y17620D01*
G01X1999Y14200D02*
G01X2428Y14200D01*
G01X1999Y14200D02*
G01X1999Y13934D01*
G01X2203Y14200D02*
G01X2203Y14036D01*
G01X1999Y13655D02*
G01X2428Y13655D01*
G01X1999Y13798D02*
G01X1999Y13513D01*
G01X1999Y13378D02*
G01X2428Y13378D01*
G01X1999Y13378D02*
G01X1999Y13234D01*
G01X2019Y13173D01*
G01X2060Y13132D01*
G01X2101Y13111D01*
G01X2162Y13090D01*
G01X2264Y13090D01*
G01X2326Y13111D01*
G01X2367Y13132D01*
G01X2408Y13173D01*
G01X2428Y13234D01*
G01X2428Y13378D01*
G01X1999Y12955D02*
G01X2428Y12955D01*
G01X26094Y20950D02*
G01X26094Y20521D01*
G01X26094Y20950D02*
G01X25910Y20950D01*
G01X25849Y20930D01*
G01X25828Y20910D01*
G01X25808Y20869D01*
G01X25808Y20828D01*
G01X25828Y20787D01*
G01X25849Y20766D01*
G01X25910Y20746D01*
G01X26094Y20746D01*
G01X25951Y20746D02*
G01X25808Y20521D01*
G01X25632Y20950D02*
G01X25407Y20950D01*
G01X25529Y20787D01*
G01X25468Y20787D01*
G01X25427Y20766D01*
G01X25407Y20746D01*
G01X25386Y20685D01*
G01X25386Y20644D01*
G01X25407Y20582D01*
G01X25448Y20541D01*
G01X25509Y20521D01*
G01X25570Y20521D01*
G01X25632Y20541D01*
G01X25652Y20562D01*
G01X25673Y20603D01*
G01X25251Y20869D02*
G01X25210Y20889D01*
G01X25149Y20950D01*
G01X25149Y20521D01*
G01X26150Y20100D02*
G01X26150Y19671D01*
G01X26150Y20100D02*
G01X25965Y20100D01*
G01X25905Y20080D01*
G01X25884Y20060D01*
G01X25864Y20019D01*
G01X25864Y19978D01*
G01X25884Y19937D01*
G01X25905Y19916D01*
G01X25965Y19896D01*
G01X26150Y19896D01*
G01X26006Y19896D02*
G01X25864Y19671D01*
G01X25688Y20100D02*
G01X25463Y20100D01*
G01X25585Y19937D01*
G01X25523Y19937D01*
G01X25482Y19916D01*
G01X25463Y19896D01*
G01X25442Y19835D01*
G01X25442Y19794D01*
G01X25463Y19732D01*
G01X25503Y19691D01*
G01X25564Y19671D01*
G01X25626Y19671D01*
G01X25688Y19691D01*
G01X25707Y19712D01*
G01X25728Y19753D01*
G01X25102Y20100D02*
G01X25306Y19814D01*
G01X25000Y19814D01*
G01X25102Y20100D02*
G01X25102Y19671D01*
G01X19101Y20692D02*
G01X19060Y20713D01*
G01X19019Y20755D01*
G01X18999Y20794D01*
G01X18999Y20877D01*
G01X19019Y20917D01*
G01X19060Y20959D01*
G01X19101Y20980D01*
G01X19162Y21000D01*
G01X19264Y21000D01*
G01X19326Y20980D01*
G01X19367Y20959D01*
G01X19408Y20917D01*
G01X19428Y20877D01*
G01X19428Y20794D01*
G01X19408Y20755D01*
G01X19367Y20713D01*
G01X19326Y20692D01*
G01X19101Y20538D02*
G01X19080Y20538D01*
G01X19039Y20517D01*
G01X19019Y20496D01*
G01X18999Y20455D01*
G01X18999Y20373D01*
G01X19019Y20332D01*
G01X19039Y20313D01*
G01X19080Y20292D01*
G01X19121Y20292D01*
G01X19162Y20313D01*
G01X19224Y20353D01*
G01X19428Y20557D01*
G01X19428Y20271D01*
G01X19080Y20136D02*
G01X19060Y20096D01*
G01X18999Y20034D01*
G01X19428Y20034D01*
G01X17974Y19475D02*
G01X18403Y19475D01*
G01X17974Y19475D02*
G01X17974Y19291D01*
G01X17994Y19230D01*
G01X18014Y19209D01*
G01X18055Y19189D01*
G01X18096Y19189D01*
G01X18137Y19209D01*
G01X18158Y19230D01*
G01X18178Y19291D01*
G01X18178Y19475D01*
G01X18178Y19332D02*
G01X18403Y19189D01*
G01X17974Y19013D02*
G01X17974Y18788D01*
G01X18137Y18910D01*
G01X18137Y18849D01*
G01X18158Y18808D01*
G01X18178Y18788D01*
G01X18239Y18767D01*
G01X18280Y18767D01*
G01X18342Y18788D01*
G01X18383Y18829D01*
G01X18403Y18890D01*
G01X18403Y18951D01*
G01X18383Y19013D01*
G01X18362Y19033D01*
G01X18321Y19054D01*
G01X17974Y18387D02*
G01X17974Y18591D01*
G01X18158Y18612D01*
G01X18137Y18591D01*
G01X18117Y18530D01*
G01X18117Y18469D01*
G01X18137Y18407D01*
G01X18178Y18366D01*
G01X18239Y18346D01*
G01X18280Y18346D01*
G01X18342Y18366D01*
G01X18383Y18407D01*
G01X18403Y18469D01*
G01X18403Y18530D01*
G01X18383Y18591D01*
G01X18362Y18612D01*
G01X18321Y18632D01*
G01X17999Y18025D02*
G01X18428Y18025D01*
G01X17999Y18025D02*
G01X17999Y17840D01*
G01X18019Y17780D01*
G01X18039Y17759D01*
G01X18080Y17738D01*
G01X18121Y17738D01*
G01X18162Y17759D01*
G01X18183Y17780D01*
G01X18203Y17840D01*
G01X18203Y18025D01*
G01X18203Y17882D02*
G01X18428Y17738D01*
G01X17999Y17563D02*
G01X17999Y17338D01*
G01X18162Y17459D01*
G01X18162Y17398D01*
G01X18183Y17357D01*
G01X18203Y17338D01*
G01X18264Y17317D01*
G01X18305Y17317D01*
G01X18367Y17338D01*
G01X18408Y17378D01*
G01X18428Y17440D01*
G01X18428Y17501D01*
G01X18408Y17563D01*
G01X18387Y17582D01*
G01X18346Y17603D01*
G01X18060Y16936D02*
G01X18019Y16957D01*
G01X17999Y17019D01*
G01X17999Y17059D01*
G01X18019Y17121D01*
G01X18080Y17161D01*
G01X18183Y17182D01*
G01X18285Y17182D01*
G01X18367Y17161D01*
G01X18408Y17121D01*
G01X18428Y17059D01*
G01X18428Y17038D01*
G01X18408Y16978D01*
G01X18367Y16936D01*
G01X18305Y16915D01*
G01X18285Y16915D01*
G01X18224Y16936D01*
G01X18183Y16978D01*
G01X18162Y17038D01*
G01X18162Y17059D01*
G01X18183Y17121D01*
G01X18224Y17161D01*
G01X18285Y17182D01*
G01X15978Y17900D02*
G01X15978Y17471D01*
G01X15978Y17900D02*
G01X15794Y17900D01*
G01X15733Y17880D01*
G01X15712Y17860D01*
G01X15692Y17819D01*
G01X15692Y17778D01*
G01X15712Y17737D01*
G01X15733Y17716D01*
G01X15794Y17696D01*
G01X15978Y17696D01*
G01X15835Y17696D02*
G01X15692Y17471D01*
G01X15536Y17798D02*
G01X15536Y17819D01*
G01X15516Y17860D01*
G01X15495Y17880D01*
G01X15454Y17900D01*
G01X15373Y17900D01*
G01X15332Y17880D01*
G01X15311Y17860D01*
G01X15291Y17819D01*
G01X15291Y17778D01*
G01X15311Y17737D01*
G01X15352Y17675D01*
G01X15557Y17471D01*
G01X15270Y17471D01*
G01X15033Y17900D02*
G01X15094Y17880D01*
G01X15115Y17839D01*
G01X15115Y17798D01*
G01X15094Y17757D01*
G01X15053Y17737D01*
G01X14972Y17716D01*
G01X14910Y17696D01*
G01X14869Y17655D01*
G01X14849Y17614D01*
G01X14849Y17553D01*
G01X14869Y17512D01*
G01X14890Y17491D01*
G01X14951Y17471D01*
G01X15033Y17471D01*
G01X15094Y17491D01*
G01X15115Y17512D01*
G01X15135Y17553D01*
G01X15135Y17614D01*
G01X15115Y17655D01*
G01X15074Y17696D01*
G01X15013Y17716D01*
G01X14931Y17737D01*
G01X14890Y17757D01*
G01X14869Y17798D01*
G01X14869Y17839D01*
G01X14890Y17880D01*
G01X14951Y17900D01*
G01X15033Y17900D01*
G01X11553Y17146D02*
G01X11124Y17146D01*
G01X11553Y17146D02*
G01X11553Y17330D01*
G01X11533Y17391D01*
G01X11513Y17412D01*
G01X11472Y17432D01*
G01X11431Y17432D01*
G01X11390Y17412D01*
G01X11369Y17391D01*
G01X11349Y17330D01*
G01X11349Y17146D01*
G01X11349Y17289D02*
G01X11124Y17432D01*
G01X11451Y17588D02*
G01X11472Y17588D01*
G01X11513Y17608D01*
G01X11533Y17629D01*
G01X11553Y17670D01*
G01X11553Y17751D01*
G01X11533Y17792D01*
G01X11513Y17813D01*
G01X11472Y17833D01*
G01X11431Y17833D01*
G01X11390Y17813D01*
G01X11328Y17772D01*
G01X11124Y17567D01*
G01X11124Y17854D01*
G01X11553Y18030D02*
G01X11553Y18255D01*
G01X11390Y18132D01*
G01X11390Y18193D01*
G01X11369Y18234D01*
G01X11349Y18255D01*
G01X11288Y18275D01*
G01X11247Y18275D01*
G01X11185Y18255D01*
G01X11144Y18214D01*
G01X11124Y18152D01*
G01X11124Y18091D01*
G01X11144Y18030D01*
G01X11165Y18009D01*
G01X11206Y17989D01*
G01X32821Y17423D02*
G01X32842Y17464D01*
G01X32883Y17505D01*
G01X32923Y17525D01*
G01X33005Y17525D01*
G01X33046Y17505D01*
G01X33087Y17464D01*
G01X33108Y17423D01*
G01X33128Y17362D01*
G01X33128Y17260D01*
G01X33108Y17198D01*
G01X33087Y17157D01*
G01X33046Y17116D01*
G01X33005Y17096D01*
G01X32923Y17096D01*
G01X32883Y17116D01*
G01X32842Y17157D01*
G01X32821Y17198D01*
G01X32666Y17423D02*
G01X32666Y17444D01*
G01X32645Y17485D01*
G01X32625Y17505D01*
G01X32584Y17525D01*
G01X32502Y17525D01*
G01X32461Y17505D01*
G01X32441Y17485D01*
G01X32420Y17444D01*
G01X32420Y17403D01*
G01X32441Y17362D01*
G01X32482Y17300D01*
G01X32686Y17096D01*
G01X32400Y17096D01*
G01X28601Y11975D02*
G01X28560Y11996D01*
G01X28519Y12037D01*
G01X28499Y12077D01*
G01X28499Y12159D01*
G01X28519Y12200D01*
G01X28560Y12241D01*
G01X28601Y12262D01*
G01X28662Y12282D01*
G01X28764Y12282D01*
G01X28826Y12262D01*
G01X28867Y12241D01*
G01X28908Y12200D01*
G01X28928Y12159D01*
G01X28928Y12077D01*
G01X28908Y12037D01*
G01X28867Y11996D01*
G01X28826Y11975D01*
G01X28560Y11595D02*
G01X28519Y11615D01*
G01X28499Y11677D01*
G01X28499Y11717D01*
G01X28519Y11779D01*
G01X28580Y11820D01*
G01X28683Y11840D01*
G01X28785Y11840D01*
G01X28867Y11820D01*
G01X28908Y11779D01*
G01X28928Y11717D01*
G01X28928Y11697D01*
G01X28908Y11636D01*
G01X28867Y11595D01*
G01X28805Y11574D01*
G01X28785Y11574D01*
G01X28724Y11595D01*
G01X28683Y11636D01*
G01X28662Y11697D01*
G01X28662Y11717D01*
G01X28683Y11779D01*
G01X28724Y11820D01*
G01X28785Y11840D01*
G01X29293Y10487D02*
G01X29314Y10528D01*
G01X29355Y10569D01*
G01X29395Y10589D01*
G01X29477Y10589D01*
G01X29518Y10569D01*
G01X29559Y10528D01*
G01X29580Y10487D01*
G01X29600Y10426D01*
G01X29600Y10324D01*
G01X29580Y10262D01*
G01X29559Y10221D01*
G01X29518Y10180D01*
G01X29477Y10160D01*
G01X29395Y10160D01*
G01X29355Y10180D01*
G01X29314Y10221D01*
G01X29293Y10262D01*
G01X29158Y10508D02*
G01X29117Y10528D01*
G01X29056Y10589D01*
G01X29056Y10160D01*
G01X30201Y14042D02*
G01X30160Y14063D01*
G01X30119Y14105D01*
G01X30099Y14144D01*
G01X30099Y14226D01*
G01X30119Y14267D01*
G01X30160Y14309D01*
G01X30201Y14330D01*
G01X30262Y14350D01*
G01X30364Y14350D01*
G01X30426Y14330D01*
G01X30467Y14309D01*
G01X30508Y14267D01*
G01X30528Y14226D01*
G01X30528Y14144D01*
G01X30508Y14105D01*
G01X30467Y14063D01*
G01X30426Y14042D01*
G01X30201Y13888D02*
G01X30180Y13888D01*
G01X30139Y13867D01*
G01X30119Y13846D01*
G01X30099Y13805D01*
G01X30099Y13723D01*
G01X30119Y13682D01*
G01X30139Y13663D01*
G01X30180Y13642D01*
G01X30221Y13642D01*
G01X30262Y13663D01*
G01X30324Y13703D01*
G01X30528Y13907D01*
G01X30528Y13621D01*
G01X30099Y13446D02*
G01X30099Y13221D01*
G01X30262Y13344D01*
G01X30262Y13282D01*
G01X30283Y13240D01*
G01X30303Y13221D01*
G01X30364Y13200D01*
G01X30405Y13200D01*
G01X30467Y13221D01*
G01X30508Y13261D01*
G01X30528Y13323D01*
G01X30528Y13384D01*
G01X30508Y13446D01*
G01X30487Y13465D01*
G01X30446Y13486D01*
G01X32374Y12100D02*
G01X32680Y12100D01*
G01X32742Y12080D01*
G01X32783Y12038D01*
G01X32803Y11976D01*
G01X32803Y11936D01*
G01X32783Y11875D01*
G01X32742Y11834D01*
G01X32680Y11813D01*
G01X32374Y11813D01*
G01X32455Y11678D02*
G01X32435Y11638D01*
G01X32374Y11576D01*
G01X32803Y11576D01*
G01X32374Y11338D02*
G01X32394Y11400D01*
G01X32435Y11421D01*
G01X32476Y11421D01*
G01X32517Y11400D01*
G01X32537Y11359D01*
G01X32558Y11278D01*
G01X32578Y11215D01*
G01X32619Y11175D01*
G01X32660Y11155D01*
G01X32721Y11155D01*
G01X32762Y11175D01*
G01X32783Y11196D01*
G01X32803Y11257D01*
G01X32803Y11338D01*
G01X32783Y11400D01*
G01X32762Y11421D01*
G01X32721Y11440D01*
G01X32660Y11440D01*
G01X32619Y11421D01*
G01X32578Y11380D01*
G01X32558Y11319D01*
G01X32537Y11236D01*
G01X32517Y11196D01*
G01X32476Y11175D01*
G01X32435Y11175D01*
G01X32394Y11196D01*
G01X32374Y11257D01*
G01X32374Y11338D01*
G01X21925Y18775D02*
G01X21925Y18469D01*
G01X21905Y18407D01*
G01X21864Y18366D01*
G01X21802Y18346D01*
G01X21760Y18346D01*
G01X21700Y18366D01*
G01X21659Y18407D01*
G01X21639Y18469D01*
G01X21639Y18775D01*
G01X21503Y18694D02*
G01X21463Y18714D01*
G01X21401Y18775D01*
G01X21401Y18346D01*
G01X21021Y18714D02*
G01X21040Y18755D01*
G01X21102Y18775D01*
G01X21143Y18775D01*
G01X21205Y18755D01*
G01X21246Y18694D01*
G01X21265Y18591D01*
G01X21265Y18489D01*
G01X21246Y18407D01*
G01X21205Y18366D01*
G01X21143Y18346D01*
G01X21122Y18346D01*
G01X21061Y18366D01*
G01X21021Y18407D01*
G01X21000Y18469D01*
G01X21000Y18489D01*
G01X21021Y18550D01*
G01X21061Y18591D01*
G01X21122Y18612D01*
G01X21143Y18612D01*
G01X21205Y18591D01*
G01X21246Y18550D01*
G01X21265Y18489D01*
G01X27718Y14423D02*
G01X27739Y14464D01*
G01X27780Y14505D01*
G01X27819Y14525D01*
G01X27902Y14525D01*
G01X27943Y14505D01*
G01X27984Y14464D01*
G01X28005Y14423D01*
G01X28025Y14362D01*
G01X28025Y14260D01*
G01X28005Y14198D01*
G01X27984Y14157D01*
G01X27943Y14116D01*
G01X27902Y14096D01*
G01X27819Y14096D01*
G01X27780Y14116D01*
G01X27739Y14157D01*
G01X27718Y14198D01*
G01X27563Y14423D02*
G01X27563Y14444D01*
G01X27542Y14485D01*
G01X27522Y14505D01*
G01X27481Y14525D01*
G01X27398Y14525D01*
G01X27357Y14505D01*
G01X27338Y14485D01*
G01X27317Y14444D01*
G01X27317Y14403D01*
G01X27338Y14362D01*
G01X27378Y14300D01*
G01X27582Y14096D01*
G01X27297Y14096D01*
G01X26915Y14525D02*
G01X27121Y14525D01*
G01X27140Y14341D01*
G01X27121Y14362D01*
G01X27060Y14382D01*
G01X26997Y14382D01*
G01X26936Y14362D01*
G01X26896Y14321D01*
G01X26875Y14260D01*
G01X26875Y14219D01*
G01X26896Y14157D01*
G01X26936Y14116D01*
G01X26997Y14096D01*
G01X27060Y14096D01*
G01X27121Y14116D01*
G01X27140Y14137D01*
G01X27161Y14178D01*
G01X21831Y15867D02*
G01X21790Y15888D01*
G01X21750Y15930D01*
G01X21730Y15969D01*
G01X21730Y16051D01*
G01X21750Y16092D01*
G01X21790Y16134D01*
G01X21831Y16155D01*
G01X21893Y16175D01*
G01X21994Y16175D01*
G01X22056Y16155D01*
G01X22097Y16134D01*
G01X22139Y16092D01*
G01X22159Y16051D01*
G01X22159Y15969D01*
G01X22139Y15930D01*
G01X22097Y15888D01*
G01X22056Y15867D01*
G01X21831Y15713D02*
G01X21810Y15713D01*
G01X21769Y15692D01*
G01X21750Y15671D01*
G01X21730Y15630D01*
G01X21730Y15548D01*
G01X21750Y15507D01*
G01X21769Y15488D01*
G01X21810Y15467D01*
G01X21852Y15467D01*
G01X21893Y15488D01*
G01X21955Y15528D01*
G01X22159Y15732D01*
G01X22159Y15446D01*
G01X21790Y15065D02*
G01X21750Y15086D01*
G01X21730Y15148D01*
G01X21730Y15188D01*
G01X21750Y15250D01*
G01X21810Y15290D01*
G01X21914Y15311D01*
G01X22015Y15311D01*
G01X22097Y15290D01*
G01X22139Y15250D01*
G01X22159Y15188D01*
G01X22159Y15169D01*
G01X22139Y15107D01*
G01X22097Y15065D01*
G01X22035Y15046D01*
G01X22015Y15046D01*
G01X21955Y15065D01*
G01X21914Y15107D01*
G01X21893Y15169D01*
G01X21893Y15188D01*
G01X21914Y15250D01*
G01X21955Y15290D01*
G01X22015Y15311D01*
G01X24900Y14569D02*
G01X24900Y14263D01*
G01X24880Y14201D01*
G01X24839Y14161D01*
G01X24777Y14140D01*
G01X24735Y14140D01*
G01X24675Y14161D01*
G01X24634Y14201D01*
G01X24614Y14263D01*
G01X24614Y14569D01*
G01X24376Y14569D02*
G01X24438Y14550D01*
G01X24457Y14509D01*
G01X24457Y14467D01*
G01X24438Y14426D01*
G01X24397Y14407D01*
G01X24314Y14386D01*
G01X24253Y14365D01*
G01X24213Y14325D01*
G01X24192Y14284D01*
G01X24192Y14223D01*
G01X24213Y14182D01*
G01X24232Y14161D01*
G01X24294Y14140D01*
G01X24376Y14140D01*
G01X24438Y14161D01*
G01X24457Y14182D01*
G01X24478Y14223D01*
G01X24478Y14284D01*
G01X24457Y14325D01*
G01X24417Y14365D01*
G01X24356Y14386D01*
G01X24273Y14407D01*
G01X24232Y14426D01*
G01X24213Y14467D01*
G01X24213Y14509D01*
G01X24232Y14550D01*
G01X24294Y14569D01*
G01X24376Y14569D01*
G01X34182Y17550D02*
G01X34182Y17121D01*
G01X34182Y17550D02*
G01X33998Y17550D01*
G01X33937Y17530D01*
G01X33916Y17510D01*
G01X33896Y17469D01*
G01X33896Y17428D01*
G01X33916Y17387D01*
G01X33937Y17366D01*
G01X33998Y17346D01*
G01X34182Y17346D01*
G01X34039Y17346D02*
G01X33896Y17121D01*
G01X33515Y17550D02*
G01X33720Y17550D01*
G01X33740Y17366D01*
G01X33720Y17387D01*
G01X33658Y17407D01*
G01X33597Y17407D01*
G01X33536Y17387D01*
G01X33495Y17346D01*
G01X33474Y17285D01*
G01X33474Y17244D01*
G01X33495Y17182D01*
G01X33536Y17141D01*
G01X33597Y17121D01*
G01X33658Y17121D01*
G01X33720Y17141D01*
G01X33740Y17162D01*
G01X33761Y17203D01*
G01X10487Y15375D02*
G01X10487Y14946D01*
G01X10487Y15375D02*
G01X10303Y15375D01*
G01X10242Y15355D01*
G01X10221Y15335D01*
G01X10201Y15294D01*
G01X10201Y15253D01*
G01X10221Y15212D01*
G01X10242Y15191D01*
G01X10303Y15171D01*
G01X10487Y15171D01*
G01X10344Y15171D02*
G01X10201Y14946D01*
G01X9820Y15314D02*
G01X9841Y15355D01*
G01X9902Y15375D01*
G01X9943Y15375D01*
G01X10004Y15355D01*
G01X10045Y15294D01*
G01X10066Y15191D01*
G01X10066Y15089D01*
G01X10045Y15007D01*
G01X10004Y14966D01*
G01X9943Y14946D01*
G01X9922Y14946D01*
G01X9861Y14966D01*
G01X9820Y15007D01*
G01X9800Y15069D01*
G01X9800Y15089D01*
G01X9820Y15150D01*
G01X9861Y15191D01*
G01X9922Y15212D01*
G01X9943Y15212D01*
G01X10004Y15191D01*
G01X10045Y15150D01*
G01X10066Y15089D01*
G01X12551Y14700D02*
G01X12592Y14680D01*
G01X12633Y14639D01*
G01X12654Y14598D01*
G01X12674Y14537D01*
G01X12674Y14435D01*
G01X12654Y14373D01*
G01X12633Y14332D01*
G01X12592Y14291D01*
G01X12551Y14271D01*
G01X12469Y14271D01*
G01X12429Y14291D01*
G01X12388Y14332D01*
G01X12367Y14373D01*
G01X12347Y14435D01*
G01X12347Y14537D01*
G01X12367Y14598D01*
G01X12388Y14639D01*
G01X12429Y14680D01*
G01X12469Y14700D01*
G01X12551Y14700D01*
G01X12490Y14353D02*
G01X12367Y14230D01*
G01X12191Y14598D02*
G01X12191Y14619D01*
G01X12171Y14660D01*
G01X12150Y14680D01*
G01X12109Y14700D01*
G01X12028Y14700D01*
G01X11987Y14680D01*
G01X11966Y14660D01*
G01X11946Y14619D01*
G01X11946Y14578D01*
G01X11966Y14537D01*
G01X12007Y14475D01*
G01X12212Y14271D01*
G01X11925Y14271D01*
G01X16078Y15624D02*
G01X16078Y15195D01*
G01X16078Y15624D02*
G01X15894Y15624D01*
G01X15833Y15604D01*
G01X15812Y15584D01*
G01X15792Y15543D01*
G01X15792Y15502D01*
G01X15812Y15461D01*
G01X15833Y15440D01*
G01X15894Y15420D01*
G01X16078Y15420D02*
G01X15894Y15420D01*
G01X15833Y15399D01*
G01X15812Y15379D01*
G01X15792Y15338D01*
G01X15792Y15277D01*
G01X15812Y15236D01*
G01X15833Y15215D01*
G01X15894Y15195D01*
G01X16078Y15195D01*
G01X15493Y15624D02*
G01X15657Y15195D01*
G01X15493Y15624D02*
G01X15329Y15195D01*
G01X15595Y15338D02*
G01X15391Y15338D01*
G01X15051Y15624D02*
G01X15051Y15195D01*
G01X15194Y15624D02*
G01X14908Y15624D01*
G01X14773Y15052D02*
G01X14405Y15052D01*
G01X14229Y15624D02*
G01X14004Y15624D01*
G01X14127Y15461D01*
G01X14065Y15461D01*
G01X14024Y15440D01*
G01X14004Y15420D01*
G01X13983Y15359D01*
G01X13983Y15318D01*
G01X14004Y15256D01*
G01X14045Y15215D01*
G01X14106Y15195D01*
G01X14168Y15195D01*
G01X14229Y15215D01*
G01X14249Y15236D01*
G01X14270Y15277D01*
G01X13828Y15297D02*
G01X13848Y15277D01*
G01X13828Y15256D01*
G01X13808Y15277D01*
G01X13828Y15297D01*
G01X13632Y15624D02*
G01X13407Y15624D01*
G01X13529Y15461D01*
G01X13468Y15461D01*
G01X13427Y15440D01*
G01X13407Y15420D01*
G01X13386Y15359D01*
G01X13386Y15318D01*
G01X13407Y15256D01*
G01X13448Y15215D01*
G01X13509Y15195D01*
G01X13570Y15195D01*
G01X13632Y15215D01*
G01X13652Y15236D01*
G01X13673Y15277D01*
G01X13251Y15624D02*
G01X13088Y15195D01*
G01X12924Y15624D02*
G01X13088Y15195D01*
G01X6599Y19150D02*
G01X7028Y19150D01*
G01X6599Y19150D02*
G01X6599Y18966D01*
G01X6619Y18905D01*
G01X6639Y18884D01*
G01X6680Y18864D01*
G01X6721Y18864D01*
G01X6762Y18884D01*
G01X6783Y18905D01*
G01X6803Y18966D01*
G01X6803Y19150D01*
G01X6803Y19007D02*
G01X7028Y18864D01*
G01X6701Y18708D02*
G01X6680Y18708D01*
G01X6639Y18688D01*
G01X6619Y18667D01*
G01X6599Y18626D01*
G01X6599Y18545D01*
G01X6619Y18504D01*
G01X6639Y18483D01*
G01X6680Y18463D01*
G01X6721Y18463D01*
G01X6762Y18483D01*
G01X6824Y18524D01*
G01X7028Y18729D01*
G01X7028Y18442D01*
G01X6599Y18185D02*
G01X6619Y18246D01*
G01X6680Y18287D01*
G01X6783Y18307D01*
G01X6844Y18307D01*
G01X6946Y18287D01*
G01X7008Y18246D01*
G01X7028Y18185D01*
G01X7028Y18144D01*
G01X7008Y18082D01*
G01X6946Y18041D01*
G01X6844Y18021D01*
G01X6783Y18021D01*
G01X6680Y18041D01*
G01X6619Y18082D01*
G01X6599Y18144D01*
G01X6599Y18185D01*
G01X30543Y15563D02*
G01X30848Y15563D01*
G01X30910Y15542D01*
G01X30952Y15501D01*
G01X30972Y15440D01*
G01X30972Y15398D01*
G01X30952Y15338D01*
G01X30910Y15296D01*
G01X30848Y15276D01*
G01X30543Y15276D01*
G01X30623Y15142D02*
G01X30603Y15101D01*
G01X30543Y15038D01*
G01X30972Y15038D01*
G01X30408Y3225D02*
G01X30408Y2796D01*
G01X30408Y3225D02*
G01X30224Y3225D01*
G01X30163Y3205D01*
G01X30142Y3185D01*
G01X30122Y3144D01*
G01X30122Y3103D01*
G01X30142Y3062D01*
G01X30163Y3041D01*
G01X30224Y3021D01*
G01X30408Y3021D01*
G01X30265Y3021D02*
G01X30122Y2796D01*
G01X29966Y3123D02*
G01X29966Y3144D01*
G01X29946Y3185D01*
G01X29925Y3205D01*
G01X29884Y3225D01*
G01X29803Y3225D01*
G01X29762Y3205D01*
G01X29741Y3185D01*
G01X29721Y3144D01*
G01X29721Y3103D01*
G01X29741Y3062D01*
G01X29782Y3000D01*
G01X29987Y2796D01*
G01X29700Y2796D01*
G01X29320Y3164D02*
G01X29340Y3205D01*
G01X29402Y3225D01*
G01X29443Y3225D01*
G01X29504Y3205D01*
G01X29545Y3144D01*
G01X29565Y3041D01*
G01X29565Y2939D01*
G01X29545Y2857D01*
G01X29504Y2816D01*
G01X29443Y2796D01*
G01X29422Y2796D01*
G01X29361Y2816D01*
G01X29320Y2857D01*
G01X29299Y2919D01*
G01X29299Y2939D01*
G01X29320Y3000D01*
G01X29361Y3041D01*
G01X29422Y3062D01*
G01X29443Y3062D01*
G01X29504Y3041D01*
G01X29545Y3000D01*
G01X29565Y2939D01*
G01X31633Y6525D02*
G01X31633Y6096D01*
G01X31633Y6525D02*
G01X31449Y6525D01*
G01X31388Y6505D01*
G01X31367Y6485D01*
G01X31347Y6444D01*
G01X31347Y6403D01*
G01X31367Y6362D01*
G01X31388Y6341D01*
G01X31449Y6321D01*
G01X31633Y6321D01*
G01X31490Y6321D02*
G01X31347Y6096D01*
G01X31191Y6423D02*
G01X31191Y6444D01*
G01X31171Y6485D01*
G01X31150Y6505D01*
G01X31109Y6525D01*
G01X31028Y6525D01*
G01X30987Y6505D01*
G01X30966Y6485D01*
G01X30946Y6444D01*
G01X30946Y6403D01*
G01X30966Y6362D01*
G01X31007Y6300D01*
G01X31212Y6096D01*
G01X30925Y6096D01*
G01X30524Y6382D02*
G01X30545Y6321D01*
G01X30586Y6280D01*
G01X30647Y6260D01*
G01X30668Y6260D01*
G01X30729Y6280D01*
G01X30770Y6321D01*
G01X30790Y6382D01*
G01X30790Y6403D01*
G01X30770Y6464D01*
G01X30729Y6505D01*
G01X30668Y6525D01*
G01X30647Y6525D01*
G01X30586Y6505D01*
G01X30545Y6464D01*
G01X30524Y6382D01*
G01X30524Y6280D01*
G01X30545Y6178D01*
G01X30586Y6116D01*
G01X30647Y6096D01*
G01X30688Y6096D01*
G01X30749Y6116D01*
G01X30770Y6157D01*
G01X12624Y5800D02*
G01X12930Y5800D01*
G01X12992Y5780D01*
G01X13033Y5738D01*
G01X13053Y5676D01*
G01X13053Y5636D01*
G01X13033Y5575D01*
G01X12992Y5534D01*
G01X12930Y5513D01*
G01X12624Y5513D01*
G01X12705Y5378D02*
G01X12685Y5338D01*
G01X12624Y5276D01*
G01X13053Y5276D01*
G01X12624Y4855D02*
G01X13053Y5059D01*
G01X12624Y5140D02*
G01X12624Y4855D01*

%LPD*%
G36*
G01X10756Y567D02*
G01X10634Y563D01*
G01X10624Y578D01*
G01X10615Y597D01*
G01X10607Y617D01*
G01X10600Y638D01*
G01X10594Y660D01*
G01X10590Y684D01*
G01X10588Y708D01*
G01X10586Y732D01*
G01X10588Y762D01*
G01X10592Y790D01*
G01X10598Y816D01*
G01X10607Y840D01*
G01X10618Y862D01*
G01X10631Y881D01*
G01X10647Y898D01*
G01X10664Y912D01*
G01X10684Y923D01*
G01X10705Y932D01*
G01X10728Y937D01*
G01X10753Y938D01*
G01X10773Y938D01*
G01X10792Y935D01*
G01X10809Y930D01*
G01X10826Y923D01*
G01X10841Y914D01*
G01X10856Y902D01*
G01X10869Y888D01*
G01X10882Y872D01*
G01X10895Y853D01*
G01X10907Y831D01*
G01X10919Y806D01*
G01X10931Y778D01*
G01X10944Y744D01*
G01X10954Y721D01*
G01X10965Y701D01*
G01X10977Y684D01*
G01X10990Y670D01*
G01X11005Y659D01*
G01X11021Y651D01*
G01X11039Y646D01*
G01X11059Y644D01*
G01X11082Y647D01*
G01X11103Y654D01*
G01X11121Y665D01*
G01X11135Y679D01*
G01X11147Y697D01*
G01X11155Y718D01*
G01X11160Y741D01*
G01X11161Y767D01*
G01X11160Y786D01*
G01X11157Y804D01*
G01X11152Y821D01*
G01X11143Y838D01*
G01X11039Y861D01*
G01X11039Y907D01*
G01X11153Y911D01*
G01X11164Y897D01*
G01X11172Y881D01*
G01X11180Y865D01*
G01X11187Y847D01*
G01X11192Y829D01*
G01X11196Y809D01*
G01X11199Y789D01*
G01X11200Y767D01*
G01X11198Y740D01*
G01X11195Y715D01*
G01X11189Y691D01*
G01X11181Y668D01*
G01X11170Y647D01*
G01X11157Y629D01*
G01X11143Y613D01*
G01X11126Y599D01*
G01X11107Y588D01*
G01X11086Y579D01*
G01X11063Y574D01*
G01X11039Y573D01*
G01X11017Y574D01*
G01X10997Y577D01*
G01X10979Y583D01*
G01X10962Y592D01*
G01X10947Y602D01*
G01X10932Y614D01*
G01X10918Y628D01*
G01X10906Y644D01*
G01X10894Y661D01*
G01X10883Y681D01*
G01X10873Y701D01*
G01X10864Y723D01*
G01X10850Y757D01*
G01X10838Y784D01*
G01X10827Y807D01*
G01X10814Y826D01*
G01X10802Y841D01*
G01X10788Y852D01*
G01X10772Y860D01*
G01X10755Y865D01*
G01X10735Y867D01*
G01X10710Y864D01*
G01X10688Y857D01*
G01X10669Y845D01*
G01X10653Y828D01*
G01X10641Y808D01*
G01X10632Y784D01*
G01X10627Y757D01*
G01X10626Y726D01*
G01X10627Y701D01*
G01X10630Y677D01*
G01X10637Y655D01*
G01X10647Y634D01*
G01X10756Y613D01*
G01X10756Y567D01*
G37*

%LPC*%

%LPD*%
G36*
G01X11830Y563D02*
G01X11800Y563D01*
G01X11800Y803D01*
G01X11800Y828D01*
G01X11803Y853D01*
G01X11806Y878D01*
G01X11812Y901D01*
G01X11819Y923D01*
G01X11827Y945D01*
G01X11837Y965D01*
G01X11848Y984D01*
G01X11861Y1002D01*
G01X11876Y1019D01*
G01X11891Y1034D01*
G01X11908Y1048D01*
G01X11927Y1061D01*
G01X11946Y1071D01*
G01X11968Y1081D01*
G01X11990Y1089D01*
G01X12014Y1095D01*
G01X12039Y1100D01*
G01X12065Y1103D01*
G01X12093Y1103D01*
G01X12120Y1103D01*
G01X12147Y1100D01*
G01X12172Y1096D01*
G01X12196Y1090D01*
G01X12218Y1083D01*
G01X12239Y1074D01*
G01X12259Y1064D01*
G01X12277Y1053D01*
G01X12294Y1040D01*
G01X12310Y1025D01*
G01X12324Y1009D01*
G01X12337Y993D01*
G01X12348Y975D01*
G01X12358Y955D01*
G01X12366Y935D01*
G01X12373Y914D01*
G01X12378Y892D01*
G01X12382Y868D01*
G01X12385Y844D01*
G01X12385Y819D01*
G01X12385Y563D01*
G01X12356Y563D01*
G01X12347Y646D01*
G01X12318Y646D01*
G01X12260Y646D01*
G01X12230Y646D01*
G01X12201Y646D01*
G01X11986Y646D01*
G01X11956Y646D01*
G01X11926Y646D01*
G01X11897Y646D01*
G01X11868Y646D01*
G01X11839Y646D01*
G01X11830Y563D01*
G37*

%LPC*%
G36*
G01X11986Y727D02*
G01X12017Y726D01*
G01X12173Y726D01*
G01X12203Y727D01*
G01X12233Y727D01*
G01X12263Y727D01*
G01X12293Y727D01*
G01X12352Y728D01*
G01X12352Y805D01*
G01X12351Y829D01*
G01X12347Y852D01*
G01X12342Y873D01*
G01X12335Y893D01*
G01X12326Y912D01*
G01X12314Y929D01*
G01X12301Y944D01*
G01X12285Y958D01*
G01X12268Y971D01*
G01X12249Y982D01*
G01X12227Y991D01*
G01X12204Y999D01*
G01X12179Y1005D01*
G01X12152Y1009D01*
G01X12123Y1012D01*
G01X12093Y1013D01*
G01X12063Y1012D01*
G01X12035Y1009D01*
G01X12008Y1005D01*
G01X11984Y998D01*
G01X11960Y991D01*
G01X11939Y981D01*
G01X11920Y970D01*
G01X11902Y957D01*
G01X11887Y943D01*
G01X11873Y927D01*
G01X11861Y909D01*
G01X11852Y890D01*
G01X11844Y869D01*
G01X11839Y847D01*
G01X11836Y823D01*
G01X11835Y798D01*
G01X11835Y728D01*
G01X11864Y728D01*
G01X11894Y727D01*
G01X11924Y727D01*
G01X11955Y727D01*
G01X11986Y727D01*
G37*

%LPD*%
G36*
G01X10630Y965D02*
G01X10600Y965D01*
G01X10600Y1159D01*
G01X10630Y1159D01*
G01X10642Y1075D01*
G01X10793Y1125D01*
G01X10793Y1328D01*
G01X10640Y1378D01*
G01X10630Y1292D01*
G01X10600Y1292D01*
G01X10600Y1530D01*
G01X10630Y1530D01*
G01X10638Y1463D01*
G01X11189Y1273D01*
G01X11189Y1223D01*
G01X10642Y1036D01*
G01X10630Y965D01*
G37*

%LPC*%
G36*
G01X10828Y1317D02*
G01X10828Y1136D01*
G01X11101Y1226D01*
G01X10828Y1317D01*
G37*

%LPD*%
G36*
G01X12177Y1175D02*
G01X12152Y1175D01*
G01X12144Y1244D01*
G01X12119Y1246D01*
G01X12092Y1246D01*
G01X12063Y1246D01*
G01X11950Y1246D01*
G01X11911Y1246D01*
G01X11872Y1246D01*
G01X11836Y1246D01*
G01X11827Y1182D01*
G01X11800Y1182D01*
G01X11800Y1394D01*
G01X11827Y1394D01*
G01X11838Y1321D01*
G01X11873Y1321D01*
G01X11912Y1320D01*
G01X11950Y1320D01*
G01X11984Y1319D01*
G01X12052Y1319D01*
G01X12089Y1334D01*
G01X12120Y1350D01*
G01X12147Y1371D01*
G01X12168Y1396D01*
G01X12159Y1407D01*
G01X12148Y1419D01*
G01X12140Y1432D01*
G01X12135Y1446D01*
G01X12134Y1461D01*
G01X12138Y1483D01*
G01X12150Y1499D01*
G01X12169Y1508D01*
G01X12193Y1511D01*
G01X12207Y1500D01*
G01X12218Y1485D01*
G01X12224Y1467D01*
G01X12227Y1446D01*
G01X12225Y1428D01*
G01X12219Y1410D01*
G01X12210Y1392D01*
G01X12197Y1375D01*
G01X12180Y1359D01*
G01X12161Y1344D01*
G01X12138Y1330D01*
G01X12113Y1319D01*
G01X12218Y1311D01*
G01X12226Y1298D01*
G01X12177Y1175D01*
G37*

%LPC*%

%LPD*%
G36*
G01X12032Y1546D02*
G01X12006Y1544D01*
G01X11979Y1546D01*
G01X11955Y1549D01*
G01X11932Y1554D01*
G01X11911Y1561D01*
G01X11891Y1570D01*
G01X11873Y1581D01*
G01X11857Y1593D01*
G01X11843Y1606D01*
G01X11830Y1621D01*
G01X11819Y1637D01*
G01X11810Y1653D01*
G01X11802Y1671D01*
G01X11796Y1689D01*
G01X11792Y1707D01*
G01X11789Y1726D01*
G01X11789Y1746D01*
G01X11789Y1765D01*
G01X11792Y1784D01*
G01X11796Y1802D01*
G01X11802Y1820D01*
G01X11810Y1837D01*
G01X11819Y1854D01*
G01X11830Y1870D01*
G01X11843Y1884D01*
G01X11857Y1898D01*
G01X11873Y1910D01*
G01X11891Y1921D01*
G01X11911Y1930D01*
G01X11932Y1937D01*
G01X11955Y1942D01*
G01X11979Y1945D01*
G01X12006Y1946D01*
G01X12032Y1945D01*
G01X12057Y1942D01*
G01X12080Y1937D01*
G01X12102Y1929D01*
G01X12122Y1920D01*
G01X12139Y1909D01*
G01X12156Y1897D01*
G01X12171Y1884D01*
G01X12184Y1869D01*
G01X12195Y1853D01*
G01X12205Y1837D01*
G01X12213Y1819D01*
G01X12219Y1801D01*
G01X12223Y1783D01*
G01X12226Y1765D01*
G01X12227Y1746D01*
G01X12226Y1726D01*
G01X12223Y1707D01*
G01X12218Y1689D01*
G01X12212Y1671D01*
G01X12205Y1653D01*
G01X12195Y1637D01*
G01X12184Y1621D01*
G01X12170Y1606D01*
G01X12156Y1593D01*
G01X12139Y1581D01*
G01X12121Y1570D01*
G01X12101Y1561D01*
G01X12080Y1554D01*
G01X12057Y1549D01*
G01X12032Y1546D01*
G37*

%LPC*%
G36*
G01X11977Y1626D02*
G01X12006Y1625D01*
G01X12035Y1626D01*
G01X12062Y1628D01*
G01X12086Y1632D01*
G01X12109Y1639D01*
G01X12128Y1647D01*
G01X12145Y1656D01*
G01X12160Y1667D01*
G01X12172Y1680D01*
G01X12181Y1694D01*
G01X12188Y1710D01*
G01X12192Y1727D01*
G01X12193Y1746D01*
G01X12192Y1764D01*
G01X12188Y1781D01*
G01X12181Y1796D01*
G01X12172Y1811D01*
G01X12160Y1823D01*
G01X12145Y1834D01*
G01X12128Y1844D01*
G01X12109Y1852D01*
G01X12086Y1858D01*
G01X12062Y1863D01*
G01X12035Y1865D01*
G01X12006Y1867D01*
G01X11977Y1865D01*
G01X11950Y1863D01*
G01X11926Y1858D01*
G01X11905Y1852D01*
G01X11885Y1844D01*
G01X11868Y1834D01*
G01X11854Y1823D01*
G01X11843Y1811D01*
G01X11833Y1796D01*
G01X11827Y1781D01*
G01X11823Y1764D01*
G01X11822Y1746D01*
G01X11823Y1727D01*
G01X11827Y1710D01*
G01X11833Y1694D01*
G01X11843Y1680D01*
G01X11854Y1667D01*
G01X11868Y1656D01*
G01X11885Y1647D01*
G01X11905Y1639D01*
G01X11926Y1632D01*
G01X11950Y1628D01*
G01X11977Y1626D01*
G37*

%LPD*%
G36*
G01X10630Y1567D02*
G01X10600Y1567D01*
G01X10600Y1763D01*
G01X10630Y1763D01*
G01X10642Y1686D01*
G01X10918Y1686D01*
G01X10924Y1686D01*
G01X10938Y1686D01*
G01X10958Y1685D01*
G01X10983Y1684D01*
G01X11011Y1684D01*
G01X11042Y1683D01*
G01X11072Y1682D01*
G01X11102Y1682D01*
G01X10600Y1886D01*
G01X10600Y1923D01*
G01X11103Y2121D01*
G01X10868Y2121D01*
G01X10811Y2121D01*
G01X10782Y2120D01*
G01X10753Y2120D01*
G01X10724Y2120D01*
G01X10696Y2120D01*
G01X10639Y2119D01*
G01X10630Y2042D01*
G01X10600Y2042D01*
G01X10600Y2282D01*
G01X10630Y2282D01*
G01X10639Y2201D01*
G01X10697Y2199D01*
G01X10726Y2199D01*
G01X10755Y2199D01*
G01X10784Y2199D01*
G01X10813Y2198D01*
G01X10972Y2198D01*
G01X11002Y2199D01*
G01X11031Y2199D01*
G01X11060Y2199D01*
G01X11089Y2199D01*
G01X11118Y2200D01*
G01X11147Y2201D01*
G01X11156Y2282D01*
G01X11185Y2282D01*
G01X11185Y2113D01*
G01X10700Y1923D01*
G01X11185Y1726D01*
G01X11185Y1567D01*
G01X11156Y1567D01*
G01X11146Y1646D01*
G01X10642Y1646D01*
G01X10630Y1567D01*
G37*

%LPC*%

%LPD*%
G36*
G01X12207Y1988D02*
G01X12177Y1988D01*
G01X12177Y2063D01*
G01X11890Y2063D01*
G01X11866Y2064D01*
G01X11845Y2069D01*
G01X11827Y2077D01*
G01X11813Y2088D01*
G01X11802Y2103D01*
G01X11794Y2119D01*
G01X11790Y2139D01*
G01X11789Y2161D01*
G01X11792Y2193D01*
G01X11801Y2221D01*
G01X11815Y2244D01*
G01X11834Y2263D01*
G01X11853Y2246D01*
G01X11843Y2229D01*
G01X11835Y2215D01*
G01X11830Y2201D01*
G01X11828Y2186D01*
G01X11832Y2165D01*
G01X11844Y2148D01*
G01X11864Y2138D01*
G01X11893Y2134D01*
G01X12177Y2134D01*
G01X12177Y2253D01*
G01X12214Y2253D01*
G01X12214Y2136D01*
G01X12335Y2140D01*
G01X12335Y2090D01*
G01X12218Y2067D01*
G01X12207Y1988D01*
G37*

%LPC*%

%LPD*%
G36*
G01X12029Y2307D02*
G01X12005Y2307D01*
G01X11980Y2307D01*
G01X11956Y2310D01*
G01X11934Y2315D01*
G01X11913Y2321D01*
G01X11894Y2329D01*
G01X11876Y2338D01*
G01X11860Y2349D01*
G01X11845Y2361D01*
G01X11832Y2375D01*
G01X11821Y2390D01*
G01X11811Y2406D01*
G01X11803Y2423D01*
G01X11797Y2442D01*
G01X11792Y2461D01*
G01X11789Y2482D01*
G01X11789Y2503D01*
G01X11790Y2532D01*
G01X11796Y2558D01*
G01X11804Y2582D01*
G01X11815Y2604D01*
G01X11830Y2623D01*
G01X11847Y2641D01*
G01X11867Y2656D01*
G01X11889Y2669D01*
G01X11901Y2651D01*
G01X11875Y2627D01*
G01X11855Y2600D01*
G01X11842Y2568D01*
G01X11838Y2528D01*
G01X11839Y2507D01*
G01X11842Y2488D01*
G01X11848Y2470D01*
G01X11857Y2453D01*
G01X11868Y2438D01*
G01X11881Y2424D01*
G01X11897Y2412D01*
G01X11915Y2402D01*
G01X11935Y2394D01*
G01X11958Y2388D01*
G01X11984Y2384D01*
G01X12011Y2382D01*
G01X12010Y2665D01*
G01X12021Y2667D01*
G01X12032Y2669D01*
G01X12045Y2670D01*
G01X12060Y2671D01*
G01X12085Y2669D01*
G01X12108Y2665D01*
G01X12129Y2658D01*
G01X12148Y2649D01*
G01X12166Y2638D01*
G01X12182Y2624D01*
G01X12195Y2609D01*
G01X12206Y2591D01*
G01X12215Y2572D01*
G01X12221Y2552D01*
G01X12225Y2530D01*
G01X12227Y2507D01*
G01X12226Y2486D01*
G01X12222Y2467D01*
G01X12218Y2448D01*
G01X12211Y2430D01*
G01X12202Y2412D01*
G01X12192Y2396D01*
G01X12180Y2380D01*
G01X12166Y2366D01*
G01X12151Y2353D01*
G01X12134Y2341D01*
G01X12116Y2331D01*
G01X12096Y2323D01*
G01X12075Y2316D01*
G01X12053Y2311D01*
G01X12029Y2307D01*
G37*

%LPC*%
G36*
G01X12043Y2553D02*
G01X12044Y2384D01*
G01X12081Y2389D01*
G01X12112Y2398D01*
G01X12137Y2411D01*
G01X12158Y2426D01*
G01X12174Y2444D01*
G01X12185Y2463D01*
G01X12191Y2482D01*
G01X12193Y2503D01*
G01X12191Y2523D01*
G01X12185Y2542D01*
G01X12176Y2558D01*
G01X12163Y2572D01*
G01X12147Y2584D01*
G01X12130Y2592D01*
G01X12111Y2598D01*
G01X12092Y2600D01*
G01X12072Y2598D01*
G01X12056Y2590D01*
G01X12046Y2576D01*
G01X12043Y2553D01*
G37*

%LPD*%
G36*
G01X10846Y2357D02*
G01X10793Y2357D01*
G01X10793Y2561D01*
G01X10846Y2561D01*
G01X10846Y2357D01*
G37*

%LPC*%

%LPD*%
G36*
G01X10630Y2623D02*
G01X10600Y2623D01*
G01X10600Y2819D01*
G01X10630Y2819D01*
G01X10642Y2742D01*
G01X10918Y2742D01*
G01X10924Y2742D01*
G01X10938Y2742D01*
G01X10958Y2741D01*
G01X10983Y2740D01*
G01X11011Y2740D01*
G01X11042Y2739D01*
G01X11072Y2738D01*
G01X11102Y2738D01*
G01X10600Y2942D01*
G01X10600Y2980D01*
G01X11103Y3178D01*
G01X10868Y3176D01*
G01X10811Y3176D01*
G01X10782Y3176D01*
G01X10753Y3176D01*
G01X10724Y3176D01*
G01X10696Y3176D01*
G01X10639Y3175D01*
G01X10630Y3098D01*
G01X10600Y3098D01*
G01X10600Y3338D01*
G01X10630Y3338D01*
G01X10639Y3257D01*
G01X10697Y3255D01*
G01X10726Y3255D01*
G01X10755Y3255D01*
G01X10784Y3255D01*
G01X10813Y3255D01*
G01X10972Y3255D01*
G01X11002Y3255D01*
G01X11031Y3255D01*
G01X11060Y3255D01*
G01X11089Y3255D01*
G01X11118Y3256D01*
G01X11147Y3257D01*
G01X11156Y3338D01*
G01X11185Y3338D01*
G01X11185Y3169D01*
G01X10700Y2980D01*
G01X11185Y2782D01*
G01X11185Y2623D01*
G01X11156Y2623D01*
G01X11146Y2703D01*
G01X10642Y2701D01*
G01X10630Y2623D01*
G37*

%LPC*%

%LPD*%
G36*
G01X11827Y2726D02*
G01X11800Y2726D01*
G01X11800Y2940D01*
G01X11827Y2940D01*
G01X11836Y2871D01*
G01X11868Y2870D01*
G01X11900Y2870D01*
G01X11932Y2870D01*
G01X11964Y2869D01*
G01X12022Y2928D01*
G01X11800Y3063D01*
G01X11800Y3182D01*
G01X11827Y3182D01*
G01X11835Y3126D01*
G01X12073Y2978D01*
G01X12175Y3078D01*
G01X12185Y3161D01*
G01X12214Y3161D01*
G01X12214Y2959D01*
G01X12185Y2959D01*
G01X12172Y3028D01*
G01X12009Y2869D01*
G01X12317Y2869D01*
G01X12442Y2873D01*
G01X12447Y2861D01*
G01X12410Y2726D01*
G01X12385Y2726D01*
G01X12377Y2798D01*
G01X11984Y2798D01*
G01X11947Y2797D01*
G01X11910Y2797D01*
G01X11873Y2796D01*
G01X11836Y2796D01*
G01X11827Y2726D01*
G37*

%LPC*%

%LPD*%
G36*
G01X10757Y3419D02*
G01X10732Y3417D01*
G01X10710Y3419D01*
G01X10689Y3423D01*
G01X10671Y3430D01*
G01X10654Y3440D01*
G01X10639Y3453D01*
G01X10626Y3467D01*
G01X10614Y3484D01*
G01X10605Y3503D01*
G01X10598Y3524D01*
G01X10593Y3547D01*
G01X10589Y3571D01*
G01X10589Y3598D01*
G01X10590Y3623D01*
G01X10593Y3646D01*
G01X10600Y3669D01*
G01X10608Y3690D01*
G01X10619Y3709D01*
G01X10631Y3726D01*
G01X10646Y3740D01*
G01X10663Y3753D01*
G01X10681Y3763D01*
G01X10700Y3770D01*
G01X10721Y3775D01*
G01X10743Y3776D01*
G01X10771Y3775D01*
G01X10797Y3769D01*
G01X10820Y3759D01*
G01X10841Y3744D01*
G01X10861Y3726D01*
G01X10879Y3703D01*
G01X10897Y3676D01*
G01X10914Y3644D01*
G01X10931Y3673D01*
G01X10950Y3696D01*
G01X10968Y3714D01*
G01X10988Y3728D01*
G01X11006Y3738D01*
G01X11025Y3746D01*
G01X11043Y3749D01*
G01X11061Y3751D01*
G01X11081Y3749D01*
G01X11099Y3746D01*
G01X11116Y3740D01*
G01X11132Y3732D01*
G01X11146Y3722D01*
G01X11159Y3710D01*
G01X11170Y3696D01*
G01X11180Y3680D01*
G01X11187Y3662D01*
G01X11193Y3643D01*
G01X11196Y3622D01*
G01X11197Y3600D01*
G01X11196Y3577D01*
G01X11193Y3556D01*
G01X11187Y3536D01*
G01X11180Y3517D01*
G01X11170Y3499D01*
G01X11158Y3483D01*
G01X11145Y3469D01*
G01X11130Y3458D01*
G01X11113Y3448D01*
G01X11094Y3441D01*
G01X11074Y3437D01*
G01X11052Y3436D01*
G01X11028Y3437D01*
G01X11004Y3442D01*
G01X10981Y3450D01*
G01X10960Y3461D01*
G01X10940Y3476D01*
G01X10922Y3495D01*
G01X10904Y3518D01*
G01X10888Y3544D01*
G01X10872Y3515D01*
G01X10856Y3489D01*
G01X10839Y3467D01*
G01X10820Y3450D01*
G01X10801Y3436D01*
G01X10779Y3426D01*
G01X10757Y3419D01*
G37*

%LPC*%
G36*
G01X10715Y3489D02*
G01X10740Y3486D01*
G01X10762Y3488D01*
G01X10782Y3492D01*
G01X10800Y3498D01*
G01X10816Y3508D01*
G01X10832Y3519D01*
G01X10846Y3534D01*
G01X10860Y3551D01*
G01X10873Y3571D01*
G01X10856Y3607D01*
G01X10839Y3636D01*
G01X10822Y3659D01*
G01X10805Y3678D01*
G01X10788Y3691D01*
G01X10770Y3700D01*
G01X10751Y3705D01*
G01X10731Y3707D01*
G01X10708Y3705D01*
G01X10686Y3699D01*
G01X10668Y3690D01*
G01X10652Y3677D01*
G01X10639Y3661D01*
G01X10630Y3643D01*
G01X10623Y3623D01*
G01X10622Y3600D01*
G01X10624Y3576D01*
G01X10630Y3553D01*
G01X10640Y3534D01*
G01X10654Y3518D01*
G01X10672Y3505D01*
G01X10692Y3495D01*
G01X10715Y3489D01*
G37*
G36*
G01X11050Y3504D02*
G01X11068Y3503D01*
G01X11089Y3505D01*
G01X11108Y3510D01*
G01X11124Y3519D01*
G01X11138Y3531D01*
G01X11149Y3545D01*
G01X11157Y3561D01*
G01X11162Y3580D01*
G01X11164Y3598D01*
G01X11161Y3619D01*
G01X11155Y3636D01*
G01X11146Y3651D01*
G01X11133Y3664D01*
G01X11118Y3674D01*
G01X11101Y3682D01*
G01X11082Y3686D01*
G01X11063Y3688D01*
G01X11042Y3687D01*
G01X11022Y3684D01*
G01X11005Y3679D01*
G01X10988Y3672D01*
G01X10972Y3663D01*
G01X10956Y3650D01*
G01X10942Y3636D01*
G01X10927Y3617D01*
G01X10943Y3586D01*
G01X10961Y3561D01*
G01X10978Y3541D01*
G01X10996Y3526D01*
G01X11014Y3515D01*
G01X11031Y3507D01*
G01X11050Y3504D01*
G37*

%LPD*%
G36*
G01X12120Y3432D02*
G01X12093Y3430D01*
G01X12067Y3431D01*
G01X12041Y3434D01*
G01X12016Y3438D01*
G01X11993Y3444D01*
G01X11969Y3452D01*
G01X11948Y3461D01*
G01X11927Y3472D01*
G01X11908Y3484D01*
G01X11889Y3498D01*
G01X11872Y3513D01*
G01X11857Y3529D01*
G01X11843Y3546D01*
G01X11830Y3565D01*
G01X11819Y3585D01*
G01X11809Y3606D01*
G01X11801Y3628D01*
G01X11795Y3651D01*
G01X11790Y3676D01*
G01X11788Y3701D01*
G01X11786Y3726D01*
G01X11787Y3753D01*
G01X11790Y3778D01*
G01X11794Y3802D01*
G01X11800Y3825D01*
G01X11807Y3848D01*
G01X11816Y3871D01*
G01X11826Y3894D01*
G01X11838Y3917D01*
G01X11899Y3917D01*
G01X11920Y3917D01*
G01X11941Y3917D01*
G01X11962Y3917D01*
G01X11982Y3917D01*
G01X12003Y3918D01*
G01X12023Y3918D01*
G01X12043Y3919D01*
G01X12048Y3971D01*
G01X12078Y3971D01*
G01X12078Y3744D01*
G01X12048Y3744D01*
G01X12042Y3836D01*
G01X12000Y3837D01*
G01X11980Y3838D01*
G01X11959Y3838D01*
G01X11939Y3838D01*
G01X11918Y3838D01*
G01X11898Y3838D01*
G01X11843Y3838D01*
G01X11835Y3814D01*
G01X11830Y3790D01*
G01X11827Y3765D01*
G01X11826Y3740D01*
G01X11827Y3715D01*
G01X11830Y3692D01*
G01X11836Y3669D01*
G01X11844Y3649D01*
G01X11854Y3629D01*
G01X11866Y3611D01*
G01X11880Y3595D01*
G01X11897Y3580D01*
G01X11915Y3566D01*
G01X11935Y3555D01*
G01X11957Y3544D01*
G01X11981Y3536D01*
G01X12006Y3529D01*
G01X12034Y3525D01*
G01X12063Y3521D01*
G01X12093Y3521D01*
G01X12125Y3521D01*
G01X12154Y3525D01*
G01X12181Y3530D01*
G01X12207Y3537D01*
G01X12231Y3546D01*
G01X12253Y3556D01*
G01X12273Y3568D01*
G01X12291Y3582D01*
G01X12307Y3597D01*
G01X12322Y3613D01*
G01X12334Y3631D01*
G01X12343Y3651D01*
G01X12351Y3671D01*
G01X12357Y3692D01*
G01X12360Y3714D01*
G01X12361Y3738D01*
G01X12360Y3764D01*
G01X12355Y3790D01*
G01X12347Y3813D01*
G01X12335Y3836D01*
G01X12227Y3859D01*
G01X12227Y3905D01*
G01X12356Y3903D01*
G01X12367Y3885D01*
G01X12376Y3866D01*
G01X12383Y3846D01*
G01X12389Y3826D01*
G01X12393Y3804D01*
G01X12397Y3780D01*
G01X12399Y3755D01*
G01X12400Y3728D01*
G01X12398Y3703D01*
G01X12396Y3677D01*
G01X12391Y3653D01*
G01X12385Y3630D01*
G01X12377Y3608D01*
G01X12367Y3586D01*
G01X12356Y3567D01*
G01X12343Y3548D01*
G01X12328Y3530D01*
G01X12313Y3513D01*
G01X12296Y3498D01*
G01X12278Y3485D01*
G01X12258Y3473D01*
G01X12238Y3462D01*
G01X12216Y3452D01*
G01X12193Y3444D01*
G01X12170Y3438D01*
G01X12145Y3434D01*
G01X12120Y3432D01*
G37*

%LPC*%

%LPD*%
G36*
G01X10922Y3861D02*
G01X10893Y3859D01*
G01X10861Y3861D01*
G01X10830Y3864D01*
G01X10801Y3870D01*
G01X10774Y3878D01*
G01X10748Y3887D01*
G01X10725Y3898D01*
G01X10703Y3911D01*
G01X10683Y3926D01*
G01X10664Y3942D01*
G01X10648Y3959D01*
G01X10634Y3978D01*
G01X10621Y3998D01*
G01X10611Y4018D01*
G01X10602Y4039D01*
G01X10595Y4061D01*
G01X10590Y4084D01*
G01X10567Y4085D01*
G01X10544Y4089D01*
G01X10522Y4096D01*
G01X10502Y4104D01*
G01X10483Y4115D01*
G01X10465Y4128D01*
G01X10450Y4144D01*
G01X10437Y4161D01*
G01X10427Y4181D01*
G01X10419Y4203D01*
G01X10414Y4228D01*
G01X10413Y4255D01*
G01X10414Y4282D01*
G01X10419Y4310D01*
G01X10428Y4337D01*
G01X10442Y4361D01*
G01X10465Y4353D01*
G01X10460Y4333D01*
G01X10456Y4316D01*
G01X10454Y4300D01*
G01X10453Y4286D01*
G01X10456Y4259D01*
G01X10463Y4235D01*
G01X10473Y4213D01*
G01X10489Y4196D01*
G01X10508Y4181D01*
G01X10531Y4171D01*
G01X10559Y4164D01*
G01X10589Y4161D01*
G01X10593Y4180D01*
G01X10597Y4198D01*
G01X10603Y4216D01*
G01X10610Y4234D01*
G01X10619Y4251D01*
G01X10629Y4267D01*
G01X10640Y4283D01*
G01X10652Y4298D01*
G01X10666Y4312D01*
G01X10681Y4325D01*
G01X10697Y4337D01*
G01X10715Y4348D01*
G01X10733Y4359D01*
G01X10753Y4368D01*
G01X10773Y4376D01*
G01X10796Y4382D01*
G01X10818Y4388D01*
G01X10843Y4391D01*
G01X10868Y4394D01*
G01X10893Y4394D01*
G01X10922Y4394D01*
G01X10950Y4391D01*
G01X10976Y4386D01*
G01X11001Y4380D01*
G01X11025Y4372D01*
G01X11047Y4363D01*
G01X11067Y4352D01*
G01X11086Y4340D01*
G01X11104Y4326D01*
G01X11120Y4312D01*
G01X11135Y4296D01*
G01X11148Y4280D01*
G01X11160Y4263D01*
G01X11171Y4245D01*
G01X11179Y4226D01*
G01X11186Y4207D01*
G01X11192Y4188D01*
G01X11196Y4168D01*
G01X11199Y4148D01*
G01X11200Y4128D01*
G01X11199Y4107D01*
G01X11196Y4087D01*
G01X11192Y4067D01*
G01X11186Y4047D01*
G01X11179Y4028D01*
G01X11170Y4009D01*
G01X11159Y3991D01*
G01X11147Y3974D01*
G01X11134Y3957D01*
G01X11118Y3942D01*
G01X11102Y3928D01*
G01X11084Y3914D01*
G01X11065Y3902D01*
G01X11044Y3892D01*
G01X11022Y3882D01*
G01X10999Y3874D01*
G01X10975Y3868D01*
G01X10949Y3863D01*
G01X10922Y3861D01*
G37*

%LPC*%
G36*
G01X10868Y3951D02*
G01X10893Y3951D01*
G01X10919Y3951D01*
G01X10944Y3953D01*
G01X10969Y3956D01*
G01X10993Y3961D01*
G01X11016Y3967D01*
G01X11039Y3974D01*
G01X11059Y3983D01*
G01X11079Y3993D01*
G01X11097Y4005D01*
G01X11113Y4018D01*
G01X11127Y4032D01*
G01X11139Y4048D01*
G01X11148Y4066D01*
G01X11156Y4085D01*
G01X11160Y4105D01*
G01X11161Y4128D01*
G01X11160Y4150D01*
G01X11156Y4170D01*
G01X11148Y4189D01*
G01X11139Y4206D01*
G01X11127Y4222D01*
G01X11113Y4236D01*
G01X11097Y4249D01*
G01X11079Y4261D01*
G01X11059Y4271D01*
G01X11039Y4279D01*
G01X11016Y4286D01*
G01X10993Y4292D01*
G01X10969Y4297D01*
G01X10944Y4300D01*
G01X10919Y4302D01*
G01X10893Y4303D01*
G01X10868Y4302D01*
G01X10842Y4300D01*
G01X10817Y4297D01*
G01X10793Y4292D01*
G01X10769Y4286D01*
G01X10747Y4279D01*
G01X10726Y4271D01*
G01X10707Y4261D01*
G01X10689Y4249D01*
G01X10673Y4236D01*
G01X10659Y4222D01*
G01X10647Y4206D01*
G01X10638Y4189D01*
G01X10630Y4170D01*
G01X10626Y4150D01*
G01X10625Y4128D01*
G01X10626Y4105D01*
G01X10630Y4085D01*
G01X10638Y4066D01*
G01X10647Y4048D01*
G01X10659Y4032D01*
G01X10673Y4018D01*
G01X10689Y4005D01*
G01X10707Y3993D01*
G01X10726Y3983D01*
G01X10747Y3974D01*
G01X10769Y3967D01*
G01X10793Y3961D01*
G01X10817Y3956D01*
G01X10842Y3953D01*
G01X10868Y3951D01*
G37*

%LPD*%
G36*
G01X11830Y4017D02*
G01X11800Y4017D01*
G01X11800Y4265D01*
G01X11830Y4265D01*
G01X11839Y4182D01*
G01X11889Y4181D01*
G01X11913Y4181D01*
G01X11937Y4181D01*
G01X11961Y4181D01*
G01X11985Y4180D01*
G01X12034Y4180D01*
G01X12034Y4226D01*
G01X12035Y4259D01*
G01X12037Y4288D01*
G01X12042Y4315D01*
G01X12048Y4340D01*
G01X12055Y4362D01*
G01X12064Y4382D01*
G01X12075Y4400D01*
G01X12086Y4416D01*
G01X12099Y4430D01*
G01X12113Y4441D01*
G01X12127Y4451D01*
G01X12143Y4459D01*
G01X12160Y4465D01*
G01X12177Y4469D01*
G01X12194Y4472D01*
G01X12213Y4473D01*
G01X12231Y4472D01*
G01X12250Y4469D01*
G01X12267Y4465D01*
G01X12284Y4459D01*
G01X12299Y4451D01*
G01X12313Y4442D01*
G01X12326Y4430D01*
G01X12338Y4418D01*
G01X12349Y4403D01*
G01X12358Y4387D01*
G01X12366Y4369D01*
G01X12373Y4349D01*
G01X12378Y4327D01*
G01X12382Y4304D01*
G01X12385Y4279D01*
G01X12385Y4253D01*
G01X12385Y4017D01*
G01X12356Y4017D01*
G01X12347Y4098D01*
G01X12318Y4099D01*
G01X12289Y4100D01*
G01X12260Y4100D01*
G01X12231Y4100D01*
G01X12202Y4100D01*
G01X12172Y4101D01*
G01X12012Y4101D01*
G01X11983Y4100D01*
G01X11954Y4100D01*
G01X11925Y4100D01*
G01X11896Y4100D01*
G01X11867Y4099D01*
G01X11839Y4098D01*
G01X11830Y4017D01*
G37*

%LPC*%
G36*
G01X12069Y4236D02*
G01X12069Y4180D01*
G01X12173Y4180D01*
G01X12203Y4181D01*
G01X12233Y4181D01*
G01X12263Y4181D01*
G01X12293Y4181D01*
G01X12352Y4182D01*
G01X12352Y4238D01*
G01X12351Y4263D01*
G01X12347Y4286D01*
G01X12342Y4306D01*
G01X12335Y4324D01*
G01X12326Y4340D01*
G01X12315Y4353D01*
G01X12303Y4365D01*
G01X12288Y4374D01*
G01X12272Y4381D01*
G01X12254Y4386D01*
G01X12234Y4390D01*
G01X12213Y4390D01*
G01X12192Y4390D01*
G01X12172Y4387D01*
G01X12154Y4382D01*
G01X12138Y4375D01*
G01X12122Y4366D01*
G01X12109Y4355D01*
G01X12097Y4341D01*
G01X12088Y4325D01*
G01X12080Y4307D01*
G01X12074Y4286D01*
G01X12071Y4263D01*
G01X12069Y4236D01*
G37*

%LPD*%
G36*
G01X11956Y4544D02*
G01X11834Y4538D01*
G01X11824Y4555D01*
G01X11815Y4573D01*
G01X11807Y4592D01*
G01X11800Y4614D01*
G01X11794Y4636D01*
G01X11790Y4660D01*
G01X11788Y4684D01*
G01X11786Y4709D01*
G01X11788Y4738D01*
G01X11792Y4766D01*
G01X11798Y4792D01*
G01X11807Y4816D01*
G01X11818Y4838D01*
G01X11831Y4857D01*
G01X11847Y4874D01*
G01X11864Y4888D01*
G01X11884Y4900D01*
G01X11905Y4908D01*
G01X11928Y4913D01*
G01X11953Y4915D01*
G01X11973Y4913D01*
G01X11992Y4911D01*
G01X12009Y4906D01*
G01X12026Y4899D01*
G01X12041Y4890D01*
G01X12056Y4878D01*
G01X12069Y4865D01*
G01X12082Y4848D01*
G01X12095Y4829D01*
G01X12107Y4807D01*
G01X12119Y4782D01*
G01X12131Y4755D01*
G01X12144Y4719D01*
G01X12154Y4697D01*
G01X12165Y4678D01*
G01X12177Y4661D01*
G01X12190Y4646D01*
G01X12205Y4635D01*
G01X12221Y4627D01*
G01X12239Y4622D01*
G01X12259Y4621D01*
G01X12282Y4623D01*
G01X12303Y4630D01*
G01X12321Y4641D01*
G01X12335Y4655D01*
G01X12347Y4673D01*
G01X12355Y4694D01*
G01X12360Y4717D01*
G01X12361Y4742D01*
G01X12360Y4762D01*
G01X12357Y4780D01*
G01X12352Y4798D01*
G01X12343Y4815D01*
G01X12239Y4836D01*
G01X12239Y4882D01*
G01X12353Y4888D01*
G01X12364Y4873D01*
G01X12372Y4857D01*
G01X12380Y4841D01*
G01X12387Y4823D01*
G01X12392Y4805D01*
G01X12396Y4786D01*
G01X12399Y4765D01*
G01X12400Y4744D01*
G01X12398Y4717D01*
G01X12395Y4691D01*
G01X12389Y4667D01*
G01X12381Y4644D01*
G01X12370Y4623D01*
G01X12357Y4605D01*
G01X12343Y4588D01*
G01X12326Y4575D01*
G01X12307Y4563D01*
G01X12286Y4555D01*
G01X12263Y4550D01*
G01X12239Y4548D01*
G01X12217Y4550D01*
G01X12197Y4553D01*
G01X12179Y4559D01*
G01X12162Y4567D01*
G01X12147Y4578D01*
G01X12132Y4590D01*
G01X12118Y4604D01*
G01X12106Y4620D01*
G01X12094Y4638D01*
G01X12083Y4657D01*
G01X12073Y4678D01*
G01X12064Y4700D01*
G01X12050Y4732D01*
G01X12038Y4760D01*
G01X12027Y4782D01*
G01X12014Y4801D01*
G01X12002Y4817D01*
G01X11988Y4828D01*
G01X11972Y4836D01*
G01X11955Y4841D01*
G01X11935Y4842D01*
G01X11910Y4840D01*
G01X11888Y4832D01*
G01X11869Y4821D01*
G01X11853Y4804D01*
G01X11841Y4784D01*
G01X11832Y4760D01*
G01X11827Y4733D01*
G01X11826Y4703D01*
G01X11827Y4676D01*
G01X11830Y4653D01*
G01X11837Y4632D01*
G01X11847Y4611D01*
G01X11956Y4588D01*
G01X11956Y4544D01*
G37*

%LPC*%

%LPD*%
G36*
G01X11210Y4665D02*
G01X11185Y4665D01*
G01X11177Y4736D01*
G01X10784Y4736D01*
G01X10750Y4735D01*
G01X10711Y4735D01*
G01X10673Y4735D01*
G01X10636Y4734D01*
G01X10627Y4669D01*
G01X10600Y4669D01*
G01X10590Y4798D01*
G01X10651Y4807D01*
G01X10620Y4836D01*
G01X10601Y4868D01*
G01X10591Y4899D01*
G01X10589Y4930D01*
G01X10589Y4949D01*
G01X10593Y4967D01*
G01X10598Y4985D01*
G01X10605Y5002D01*
G01X10614Y5017D01*
G01X10624Y5032D01*
G01X10636Y5046D01*
G01X10651Y5058D01*
G01X10666Y5070D01*
G01X10683Y5080D01*
G01X10701Y5088D01*
G01X10721Y5095D01*
G01X10742Y5101D01*
G01X10764Y5105D01*
G01X10787Y5108D01*
G01X10811Y5109D01*
G01X10844Y5107D01*
G01X10874Y5103D01*
G01X10902Y5096D01*
G01X10927Y5086D01*
G01X10950Y5074D01*
G01X10970Y5060D01*
G01X10987Y5044D01*
G01X11001Y5026D01*
G01X11012Y5007D01*
G01X11020Y4986D01*
G01X11025Y4965D01*
G01X11027Y4942D01*
G01X11026Y4924D01*
G01X11023Y4906D01*
G01X11018Y4889D01*
G01X11011Y4872D01*
G01X11002Y4855D01*
G01X10991Y4838D01*
G01X10977Y4822D01*
G01X10961Y4807D01*
G01X11117Y4807D01*
G01X11242Y4809D01*
G01X11247Y4798D01*
G01X11210Y4665D01*
G37*

%LPC*%
G36*
G01X10659Y4834D02*
G01X10681Y4807D01*
G01X10932Y4807D01*
G01X10959Y4841D01*
G01X10974Y4870D01*
G01X10981Y4895D01*
G01X10982Y4917D01*
G01X10981Y4933D01*
G01X10977Y4948D01*
G01X10971Y4963D01*
G01X10963Y4976D01*
G01X10952Y4988D01*
G01X10938Y4999D01*
G01X10922Y5009D01*
G01X10903Y5017D01*
G01X10882Y5023D01*
G01X10859Y5028D01*
G01X10834Y5030D01*
G01X10806Y5032D01*
G01X10776Y5030D01*
G01X10750Y5027D01*
G01X10727Y5022D01*
G01X10706Y5015D01*
G01X10689Y5006D01*
G01X10673Y4996D01*
G01X10661Y4984D01*
G01X10651Y4972D01*
G01X10643Y4958D01*
G01X10638Y4944D01*
G01X10635Y4929D01*
G01X10634Y4913D01*
G01X10636Y4888D01*
G01X10644Y4861D01*
G01X10659Y4834D01*
G37*

%LPD*%
G36*
G01X10977Y5178D02*
G01X10952Y5178D01*
G01X10944Y5246D01*
G01X10919Y5248D01*
G01X10892Y5249D01*
G01X10863Y5249D01*
G01X10830Y5250D01*
G01X10784Y5250D01*
G01X10750Y5249D01*
G01X10711Y5249D01*
G01X10672Y5248D01*
G01X10636Y5248D01*
G01X10627Y5184D01*
G01X10600Y5184D01*
G01X10600Y5396D01*
G01X10627Y5396D01*
G01X10638Y5323D01*
G01X10673Y5323D01*
G01X10712Y5323D01*
G01X10750Y5323D01*
G01X10852Y5323D01*
G01X10889Y5336D01*
G01X10920Y5353D01*
G01X10947Y5374D01*
G01X10968Y5398D01*
G01X10959Y5409D01*
G01X10948Y5421D01*
G01X10940Y5434D01*
G01X10935Y5448D01*
G01X10934Y5463D01*
G01X10938Y5486D01*
G01X10950Y5501D01*
G01X10969Y5510D01*
G01X10993Y5513D01*
G01X11007Y5502D01*
G01X11018Y5487D01*
G01X11024Y5469D01*
G01X11027Y5450D01*
G01X11025Y5431D01*
G01X11019Y5413D01*
G01X11010Y5395D01*
G01X10997Y5378D01*
G01X10980Y5362D01*
G01X10961Y5347D01*
G01X10938Y5333D01*
G01X10913Y5321D01*
G01X11018Y5313D01*
G01X11026Y5301D01*
G01X10977Y5178D01*
G37*

%LPC*%

%LPD*%
G36*
G01X10829Y5548D02*
G01X10805Y5546D01*
G01X10780Y5548D01*
G01X10756Y5550D01*
G01X10734Y5555D01*
G01X10713Y5561D01*
G01X10694Y5569D01*
G01X10676Y5578D01*
G01X10660Y5589D01*
G01X10645Y5601D01*
G01X10632Y5615D01*
G01X10621Y5630D01*
G01X10611Y5646D01*
G01X10603Y5664D01*
G01X10597Y5682D01*
G01X10592Y5702D01*
G01X10589Y5723D01*
G01X10589Y5744D01*
G01X10590Y5773D01*
G01X10596Y5799D01*
G01X10604Y5823D01*
G01X10615Y5845D01*
G01X10630Y5865D01*
G01X10647Y5882D01*
G01X10667Y5897D01*
G01X10689Y5911D01*
G01X10701Y5892D01*
G01X10675Y5868D01*
G01X10655Y5841D01*
G01X10642Y5809D01*
G01X10638Y5769D01*
G01X10639Y5748D01*
G01X10642Y5729D01*
G01X10648Y5711D01*
G01X10657Y5694D01*
G01X10668Y5679D01*
G01X10681Y5665D01*
G01X10697Y5653D01*
G01X10715Y5643D01*
G01X10735Y5635D01*
G01X10758Y5629D01*
G01X10784Y5625D01*
G01X10811Y5623D01*
G01X10810Y5905D01*
G01X10821Y5908D01*
G01X10832Y5910D01*
G01X10845Y5911D01*
G01X10860Y5911D01*
G01X10885Y5910D01*
G01X10908Y5906D01*
G01X10929Y5899D01*
G01X10948Y5890D01*
G01X10966Y5879D01*
G01X10982Y5865D01*
G01X10995Y5850D01*
G01X11006Y5832D01*
G01X11015Y5813D01*
G01X11021Y5793D01*
G01X11025Y5771D01*
G01X11027Y5748D01*
G01X11026Y5728D01*
G01X11022Y5708D01*
G01X11018Y5689D01*
G01X11011Y5671D01*
G01X11002Y5653D01*
G01X10992Y5636D01*
G01X10980Y5621D01*
G01X10966Y5607D01*
G01X10951Y5593D01*
G01X10934Y5582D01*
G01X10916Y5571D01*
G01X10896Y5563D01*
G01X10875Y5556D01*
G01X10853Y5551D01*
G01X10829Y5548D01*
G37*

%LPC*%
G36*
G01X10843Y5794D02*
G01X10844Y5625D01*
G01X10881Y5630D01*
G01X10912Y5640D01*
G01X10937Y5652D01*
G01X10958Y5667D01*
G01X10974Y5685D01*
G01X10985Y5704D01*
G01X10991Y5723D01*
G01X10993Y5744D01*
G01X10991Y5764D01*
G01X10985Y5783D01*
G01X10976Y5799D01*
G01X10963Y5813D01*
G01X10947Y5825D01*
G01X10930Y5833D01*
G01X10911Y5839D01*
G01X10892Y5840D01*
G01X10872Y5838D01*
G01X10856Y5831D01*
G01X10846Y5817D01*
G01X10843Y5794D01*
G37*

%LPD*%
G36*
G01X10715Y5988D02*
G01X10696Y5986D01*
G01X10671Y5989D01*
G01X10649Y5996D01*
G01X10631Y6006D01*
G01X10616Y6021D01*
G01X10604Y6038D01*
G01X10595Y6057D01*
G01X10590Y6079D01*
G01X10589Y6103D01*
G01X10589Y6121D01*
G01X10593Y6138D01*
G01X10598Y6154D01*
G01X10606Y6169D01*
G01X10616Y6185D01*
G01X10628Y6200D01*
G01X10642Y6216D01*
G01X10659Y6234D01*
G01X10630Y6242D01*
G01X10608Y6259D01*
G01X10594Y6282D01*
G01X10589Y6311D01*
G01X10592Y6334D01*
G01X10600Y6353D01*
G01X10614Y6371D01*
G01X10635Y6386D01*
G01X10652Y6371D01*
G01X10642Y6363D01*
G01X10635Y6355D01*
G01X10631Y6346D01*
G01X10630Y6336D01*
G01X10632Y6322D01*
G01X10642Y6312D01*
G01X10660Y6306D01*
G01X10685Y6303D01*
G01X10877Y6303D01*
G01X10902Y6303D01*
G01X10926Y6300D01*
G01X10946Y6295D01*
G01X10964Y6289D01*
G01X10979Y6280D01*
G01X10992Y6270D01*
G01X11003Y6258D01*
G01X11012Y6244D01*
G01X11018Y6228D01*
G01X11023Y6209D01*
G01X11026Y6190D01*
G01X11027Y6167D01*
G01X11025Y6135D01*
G01X11019Y6105D01*
G01X11010Y6078D01*
G01X10998Y6055D01*
G01X10982Y6035D01*
G01X10964Y6019D01*
G01X10942Y6006D01*
G01X10918Y5998D01*
G01X10905Y6002D01*
G01X10894Y6010D01*
G01X10888Y6021D01*
G01X10885Y6038D01*
G01X10888Y6053D01*
G01X10895Y6065D01*
G01X10908Y6075D01*
G01X10926Y6082D01*
G01X10985Y6098D01*
G01X10989Y6112D01*
G01X10991Y6124D01*
G01X10993Y6136D01*
G01X10993Y6148D01*
G01X10992Y6168D01*
G01X10989Y6186D01*
G01X10982Y6200D01*
G01X10971Y6212D01*
G01X10957Y6221D01*
G01X10938Y6227D01*
G01X10914Y6230D01*
G01X10885Y6232D01*
G01X10857Y6232D01*
G01X10851Y6205D01*
G01X10844Y6178D01*
G01X10836Y6153D01*
G01X10828Y6130D01*
G01X10813Y6092D01*
G01X10798Y6060D01*
G01X10783Y6035D01*
G01X10767Y6016D01*
G01X10751Y6002D01*
G01X10733Y5993D01*
G01X10715Y5988D01*
G37*

%LPC*%
G36*
G01X10677Y6066D02*
G01X10707Y6061D01*
G01X10719Y6061D01*
G01X10732Y6064D01*
G01X10744Y6069D01*
G01X10756Y6077D01*
G01X10768Y6089D01*
G01X10780Y6104D01*
G01X10792Y6125D01*
G01X10803Y6151D01*
G01X10809Y6167D01*
G01X10816Y6187D01*
G01X10823Y6209D01*
G01X10830Y6232D01*
G01X10690Y6232D01*
G01X10667Y6200D01*
G01X10651Y6175D01*
G01X10642Y6153D01*
G01X10639Y6132D01*
G01X10643Y6103D01*
G01X10656Y6081D01*
G01X10677Y6066D01*
G37*

%LPD*%
G36*
G01X11210Y6417D02*
G01X11185Y6417D01*
G01X11177Y6488D01*
G01X10784Y6488D01*
G01X10747Y6487D01*
G01X10710Y6487D01*
G01X10673Y6487D01*
G01X10636Y6486D01*
G01X10627Y6417D01*
G01X10600Y6417D01*
G01X10600Y6630D01*
G01X10627Y6630D01*
G01X10636Y6561D01*
G01X10668Y6561D01*
G01X10700Y6560D01*
G01X10732Y6560D01*
G01X10764Y6559D01*
G01X10822Y6619D01*
G01X10600Y6755D01*
G01X10600Y6873D01*
G01X10627Y6873D01*
G01X10635Y6817D01*
G01X10873Y6669D01*
G01X10975Y6769D01*
G01X10985Y6851D01*
G01X11014Y6851D01*
G01X11014Y6650D01*
G01X10985Y6650D01*
G01X10972Y6719D01*
G01X10809Y6559D01*
G01X11117Y6559D01*
G01X11242Y6563D01*
G01X11247Y6551D01*
G01X11210Y6417D01*
G37*

%LPC*%

%LPD*%
G36*
G01X10832Y6898D02*
G01X10806Y6896D01*
G01X10779Y6898D01*
G01X10755Y6901D01*
G01X10732Y6906D01*
G01X10711Y6913D01*
G01X10691Y6922D01*
G01X10673Y6933D01*
G01X10657Y6945D01*
G01X10643Y6958D01*
G01X10630Y6973D01*
G01X10619Y6989D01*
G01X10610Y7005D01*
G01X10602Y7023D01*
G01X10596Y7041D01*
G01X10592Y7059D01*
G01X10589Y7078D01*
G01X10589Y7098D01*
G01X10589Y7117D01*
G01X10592Y7136D01*
G01X10596Y7154D01*
G01X10602Y7172D01*
G01X10610Y7189D01*
G01X10619Y7206D01*
G01X10630Y7222D01*
G01X10643Y7236D01*
G01X10657Y7250D01*
G01X10673Y7262D01*
G01X10691Y7273D01*
G01X10711Y7282D01*
G01X10732Y7289D01*
G01X10755Y7294D01*
G01X10779Y7297D01*
G01X10806Y7298D01*
G01X10832Y7297D01*
G01X10857Y7294D01*
G01X10880Y7289D01*
G01X10902Y7281D01*
G01X10922Y7272D01*
G01X10939Y7261D01*
G01X10956Y7249D01*
G01X10971Y7236D01*
G01X10984Y7221D01*
G01X10995Y7205D01*
G01X11005Y7189D01*
G01X11013Y7171D01*
G01X11019Y7153D01*
G01X11023Y7135D01*
G01X11026Y7117D01*
G01X11027Y7098D01*
G01X11026Y7078D01*
G01X11023Y7059D01*
G01X11018Y7041D01*
G01X11012Y7023D01*
G01X11005Y7005D01*
G01X10995Y6989D01*
G01X10984Y6973D01*
G01X10970Y6958D01*
G01X10956Y6945D01*
G01X10939Y6933D01*
G01X10921Y6922D01*
G01X10901Y6913D01*
G01X10880Y6906D01*
G01X10857Y6901D01*
G01X10832Y6898D01*
G37*

%LPC*%
G36*
G01X10777Y6978D02*
G01X10806Y6976D01*
G01X10835Y6978D01*
G01X10862Y6980D01*
G01X10886Y6984D01*
G01X10909Y6991D01*
G01X10928Y6999D01*
G01X10945Y7008D01*
G01X10960Y7019D01*
G01X10972Y7032D01*
G01X10981Y7046D01*
G01X10988Y7062D01*
G01X10992Y7079D01*
G01X10993Y7098D01*
G01X10992Y7116D01*
G01X10988Y7133D01*
G01X10981Y7148D01*
G01X10972Y7163D01*
G01X10960Y7175D01*
G01X10945Y7186D01*
G01X10928Y7196D01*
G01X10909Y7204D01*
G01X10886Y7210D01*
G01X10862Y7215D01*
G01X10835Y7217D01*
G01X10806Y7219D01*
G01X10777Y7217D01*
G01X10750Y7215D01*
G01X10726Y7210D01*
G01X10705Y7204D01*
G01X10685Y7196D01*
G01X10668Y7186D01*
G01X10654Y7175D01*
G01X10643Y7163D01*
G01X10633Y7148D01*
G01X10627Y7133D01*
G01X10623Y7116D01*
G01X10622Y7098D01*
G01X10623Y7079D01*
G01X10627Y7062D01*
G01X10633Y7046D01*
G01X10643Y7032D01*
G01X10654Y7019D01*
G01X10668Y7008D01*
G01X10685Y6999D01*
G01X10705Y6991D01*
G01X10726Y6984D01*
G01X10750Y6980D01*
G01X10777Y6978D01*
G37*

%LPD*%
G36*
G01X11009Y7355D02*
G01X10982Y7355D01*
G01X10969Y7417D01*
G01X10747Y7415D01*
G01X10706Y7417D01*
G01X10672Y7423D01*
G01X10645Y7432D01*
G01X10624Y7445D01*
G01X10608Y7462D01*
G01X10597Y7482D01*
G01X10590Y7504D01*
G01X10589Y7530D01*
G01X10590Y7550D01*
G01X10594Y7571D01*
G01X10600Y7591D01*
G01X10609Y7611D01*
G01X10621Y7631D01*
G01X10635Y7650D01*
G01X10652Y7668D01*
G01X10672Y7686D01*
G01X10593Y7694D01*
G01X10600Y7815D01*
G01X10626Y7815D01*
G01X10635Y7755D01*
G01X10889Y7755D01*
G01X11013Y7757D01*
G01X11022Y7750D01*
G01X11007Y7623D01*
G01X10981Y7623D01*
G01X10969Y7686D01*
G01X10702Y7682D01*
G01X10677Y7653D01*
G01X10660Y7623D01*
G01X10649Y7592D01*
G01X10646Y7561D01*
G01X10647Y7544D01*
G01X10651Y7529D01*
G01X10658Y7516D01*
G01X10669Y7506D01*
G01X10683Y7498D01*
G01X10701Y7492D01*
G01X10723Y7489D01*
G01X10751Y7488D01*
G01X10889Y7488D01*
G01X11013Y7492D01*
G01X11022Y7482D01*
G01X11009Y7355D01*
G37*

%LPC*%

%LPD*%
G36*
G01X11007Y7855D02*
G01X10977Y7855D01*
G01X10977Y7930D01*
G01X10764Y7930D01*
G01X10741Y7929D01*
G01X10722Y7929D01*
G01X10706Y7929D01*
G01X10690Y7928D01*
G01X10666Y7930D01*
G01X10645Y7935D01*
G01X10627Y7944D01*
G01X10613Y7955D01*
G01X10602Y7969D01*
G01X10594Y7986D01*
G01X10590Y8005D01*
G01X10589Y8028D01*
G01X10592Y8059D01*
G01X10601Y8087D01*
G01X10615Y8110D01*
G01X10634Y8130D01*
G01X10653Y8111D01*
G01X10643Y8095D01*
G01X10635Y8081D01*
G01X10630Y8067D01*
G01X10628Y8051D01*
G01X10632Y8031D01*
G01X10644Y8015D01*
G01X10664Y8005D01*
G01X10693Y8001D01*
G01X10977Y8001D01*
G01X10977Y8119D01*
G01X11014Y8119D01*
G01X11014Y8003D01*
G01X11135Y8007D01*
G01X11135Y7957D01*
G01X11018Y7934D01*
G01X11007Y7855D01*
G37*

%LPC*%

%LPD*%
G36*
G01X11210Y8363D02*
G01X11185Y8363D01*
G01X11177Y8434D01*
G01X10784Y8434D01*
G01X10750Y8433D01*
G01X10711Y8433D01*
G01X10673Y8432D01*
G01X10636Y8432D01*
G01X10627Y8367D01*
G01X10600Y8367D01*
G01X10590Y8496D01*
G01X10651Y8503D01*
G01X10620Y8534D01*
G01X10601Y8565D01*
G01X10591Y8596D01*
G01X10589Y8626D01*
G01X10589Y8646D01*
G01X10593Y8665D01*
G01X10598Y8682D01*
G01X10605Y8699D01*
G01X10614Y8715D01*
G01X10624Y8730D01*
G01X10636Y8744D01*
G01X10651Y8756D01*
G01X10666Y8767D01*
G01X10683Y8778D01*
G01X10701Y8786D01*
G01X10721Y8793D01*
G01X10742Y8799D01*
G01X10764Y8803D01*
G01X10787Y8806D01*
G01X10811Y8807D01*
G01X10844Y8805D01*
G01X10874Y8801D01*
G01X10902Y8794D01*
G01X10927Y8784D01*
G01X10950Y8772D01*
G01X10970Y8758D01*
G01X10987Y8742D01*
G01X11001Y8724D01*
G01X11012Y8705D01*
G01X11020Y8684D01*
G01X11025Y8662D01*
G01X11027Y8638D01*
G01X11026Y8621D01*
G01X11023Y8604D01*
G01X11018Y8587D01*
G01X11011Y8569D01*
G01X11002Y8553D01*
G01X10991Y8536D01*
G01X10977Y8519D01*
G01X10961Y8503D01*
G01X11117Y8503D01*
G01X11242Y8507D01*
G01X11247Y8494D01*
G01X11210Y8363D01*
G37*

%LPC*%
G36*
G01X10659Y8532D02*
G01X10681Y8505D01*
G01X10932Y8505D01*
G01X10959Y8539D01*
G01X10974Y8567D01*
G01X10981Y8592D01*
G01X10982Y8615D01*
G01X10981Y8631D01*
G01X10977Y8646D01*
G01X10971Y8661D01*
G01X10963Y8674D01*
G01X10952Y8686D01*
G01X10938Y8697D01*
G01X10922Y8707D01*
G01X10903Y8715D01*
G01X10882Y8721D01*
G01X10859Y8726D01*
G01X10834Y8728D01*
G01X10806Y8730D01*
G01X10776Y8728D01*
G01X10750Y8725D01*
G01X10727Y8720D01*
G01X10706Y8713D01*
G01X10689Y8704D01*
G01X10673Y8694D01*
G01X10661Y8682D01*
G01X10651Y8669D01*
G01X10643Y8656D01*
G01X10638Y8641D01*
G01X10635Y8626D01*
G01X10634Y8611D01*
G01X10636Y8585D01*
G01X10644Y8559D01*
G01X10659Y8532D01*
G37*

%LPD*%
G36*
G01X10832Y8886D02*
G01X10806Y8884D01*
G01X10779Y8886D01*
G01X10755Y8889D01*
G01X10732Y8894D01*
G01X10711Y8901D01*
G01X10691Y8910D01*
G01X10673Y8921D01*
G01X10657Y8933D01*
G01X10643Y8946D01*
G01X10630Y8961D01*
G01X10619Y8977D01*
G01X10610Y8993D01*
G01X10602Y9011D01*
G01X10596Y9029D01*
G01X10592Y9047D01*
G01X10589Y9066D01*
G01X10589Y9086D01*
G01X10589Y9105D01*
G01X10592Y9123D01*
G01X10596Y9142D01*
G01X10602Y9160D01*
G01X10610Y9177D01*
G01X10619Y9194D01*
G01X10630Y9210D01*
G01X10643Y9224D01*
G01X10657Y9238D01*
G01X10673Y9250D01*
G01X10691Y9261D01*
G01X10711Y9269D01*
G01X10732Y9277D01*
G01X10755Y9282D01*
G01X10779Y9285D01*
G01X10806Y9286D01*
G01X10832Y9285D01*
G01X10857Y9282D01*
G01X10880Y9277D01*
G01X10902Y9269D01*
G01X10922Y9260D01*
G01X10939Y9250D01*
G01X10956Y9237D01*
G01X10971Y9224D01*
G01X10984Y9209D01*
G01X10995Y9194D01*
G01X11005Y9177D01*
G01X11013Y9159D01*
G01X11019Y9142D01*
G01X11023Y9123D01*
G01X11026Y9105D01*
G01X11027Y9086D01*
G01X11026Y9066D01*
G01X11023Y9047D01*
G01X11018Y9029D01*
G01X11012Y9011D01*
G01X11005Y8993D01*
G01X10995Y8977D01*
G01X10984Y8961D01*
G01X10970Y8946D01*
G01X10956Y8933D01*
G01X10939Y8921D01*
G01X10921Y8910D01*
G01X10901Y8901D01*
G01X10880Y8894D01*
G01X10857Y8889D01*
G01X10832Y8886D01*
G37*

%LPC*%
G36*
G01X10777Y8965D02*
G01X10806Y8965D01*
G01X10835Y8965D01*
G01X10862Y8968D01*
G01X10886Y8973D01*
G01X10909Y8979D01*
G01X10928Y8987D01*
G01X10945Y8996D01*
G01X10960Y9007D01*
G01X10972Y9020D01*
G01X10981Y9034D01*
G01X10988Y9050D01*
G01X10992Y9067D01*
G01X10993Y9086D01*
G01X10992Y9104D01*
G01X10988Y9121D01*
G01X10981Y9136D01*
G01X10972Y9151D01*
G01X10960Y9163D01*
G01X10945Y9175D01*
G01X10928Y9184D01*
G01X10909Y9192D01*
G01X10886Y9198D01*
G01X10862Y9203D01*
G01X10835Y9205D01*
G01X10806Y9207D01*
G01X10777Y9205D01*
G01X10750Y9203D01*
G01X10726Y9198D01*
G01X10705Y9192D01*
G01X10685Y9184D01*
G01X10668Y9175D01*
G01X10654Y9163D01*
G01X10643Y9151D01*
G01X10633Y9136D01*
G01X10627Y9121D01*
G01X10623Y9104D01*
G01X10622Y9086D01*
G01X10623Y9067D01*
G01X10627Y9050D01*
G01X10633Y9034D01*
G01X10643Y9020D01*
G01X10654Y9007D01*
G01X10668Y8996D01*
G01X10685Y8987D01*
G01X10705Y8979D01*
G01X10726Y8973D01*
G01X10750Y8968D01*
G01X10777Y8965D01*
G37*

%LPD*%
G36*
G01X10715Y9368D02*
G01X10696Y9367D01*
G01X10671Y9369D01*
G01X10649Y9376D01*
G01X10631Y9386D01*
G01X10616Y9401D01*
G01X10604Y9418D01*
G01X10595Y9437D01*
G01X10590Y9459D01*
G01X10589Y9482D01*
G01X10589Y9501D01*
G01X10593Y9518D01*
G01X10598Y9534D01*
G01X10606Y9550D01*
G01X10616Y9565D01*
G01X10628Y9580D01*
G01X10642Y9596D01*
G01X10659Y9613D01*
G01X10630Y9623D01*
G01X10608Y9639D01*
G01X10594Y9662D01*
G01X10589Y9692D01*
G01X10592Y9713D01*
G01X10600Y9733D01*
G01X10614Y9751D01*
G01X10635Y9767D01*
G01X10652Y9751D01*
G01X10642Y9742D01*
G01X10635Y9734D01*
G01X10631Y9726D01*
G01X10630Y9715D01*
G01X10632Y9702D01*
G01X10642Y9692D01*
G01X10660Y9686D01*
G01X10685Y9684D01*
G01X10877Y9684D01*
G01X10902Y9682D01*
G01X10926Y9680D01*
G01X10946Y9675D01*
G01X10964Y9669D01*
G01X10979Y9660D01*
G01X10992Y9650D01*
G01X11003Y9638D01*
G01X11012Y9624D01*
G01X11018Y9607D01*
G01X11023Y9590D01*
G01X11026Y9569D01*
G01X11027Y9548D01*
G01X11025Y9515D01*
G01X11019Y9485D01*
G01X11010Y9459D01*
G01X10998Y9435D01*
G01X10982Y9415D01*
G01X10964Y9398D01*
G01X10942Y9386D01*
G01X10918Y9378D01*
G01X10905Y9382D01*
G01X10894Y9390D01*
G01X10888Y9401D01*
G01X10885Y9417D01*
G01X10888Y9433D01*
G01X10895Y9445D01*
G01X10908Y9455D01*
G01X10926Y9461D01*
G01X10985Y9478D01*
G01X10989Y9492D01*
G01X10991Y9504D01*
G01X10993Y9516D01*
G01X10993Y9528D01*
G01X10992Y9548D01*
G01X10989Y9565D01*
G01X10982Y9580D01*
G01X10971Y9592D01*
G01X10957Y9601D01*
G01X10938Y9607D01*
G01X10914Y9610D01*
G01X10885Y9611D01*
G01X10857Y9611D01*
G01X10851Y9585D01*
G01X10844Y9558D01*
G01X10836Y9533D01*
G01X10828Y9511D01*
G01X10813Y9471D01*
G01X10798Y9440D01*
G01X10783Y9415D01*
G01X10767Y9396D01*
G01X10751Y9382D01*
G01X10733Y9373D01*
G01X10715Y9368D01*
G37*

%LPC*%
G36*
G01X10677Y9446D02*
G01X10707Y9440D01*
G01X10719Y9441D01*
G01X10732Y9444D01*
G01X10744Y9449D01*
G01X10756Y9457D01*
G01X10768Y9469D01*
G01X10780Y9484D01*
G01X10792Y9505D01*
G01X10803Y9530D01*
G01X10809Y9547D01*
G01X10816Y9567D01*
G01X10823Y9588D01*
G01X10830Y9611D01*
G01X10690Y9611D01*
G01X10667Y9580D01*
G01X10651Y9555D01*
G01X10642Y9533D01*
G01X10639Y9511D01*
G01X10643Y9483D01*
G01X10656Y9461D01*
G01X10677Y9446D01*
G37*

%LPD*%
G36*
G01X10977Y9798D02*
G01X10952Y9798D01*
G01X10944Y9869D01*
G01X10919Y9870D01*
G01X10892Y9870D01*
G01X10863Y9871D01*
G01X10750Y9871D01*
G01X10711Y9870D01*
G01X10672Y9870D01*
G01X10636Y9869D01*
G01X10627Y9805D01*
G01X10600Y9805D01*
G01X10600Y10019D01*
G01X10627Y10019D01*
G01X10638Y9946D01*
G01X10673Y9945D01*
G01X10712Y9944D01*
G01X10750Y9944D01*
G01X10784Y9944D01*
G01X10852Y9944D01*
G01X10889Y9957D01*
G01X10920Y9974D01*
G01X10947Y9995D01*
G01X10968Y10019D01*
G01X10959Y10030D01*
G01X10948Y10043D01*
G01X10940Y10056D01*
G01X10935Y10069D01*
G01X10934Y10084D01*
G01X10938Y10107D01*
G01X10950Y10123D01*
G01X10969Y10132D01*
G01X10993Y10134D01*
G01X11007Y10124D01*
G01X11018Y10109D01*
G01X11024Y10091D01*
G01X11027Y10071D01*
G01X11025Y10053D01*
G01X11019Y10034D01*
G01X11010Y10017D01*
G01X10997Y9999D01*
G01X10980Y9983D01*
G01X10961Y9968D01*
G01X10938Y9954D01*
G01X10913Y9942D01*
G01X11018Y9934D01*
G01X11026Y9923D01*
G01X10977Y9798D01*
G37*

%LPC*%

%LPD*%
G36*
G01X10828Y10169D02*
G01X10803Y10169D01*
G01X10772Y10170D01*
G01X10743Y10175D01*
G01X10716Y10182D01*
G01X10691Y10191D01*
G01X10668Y10204D01*
G01X10648Y10218D01*
G01X10631Y10235D01*
G01X10616Y10254D01*
G01X10604Y10275D01*
G01X10596Y10298D01*
G01X10590Y10323D01*
G01X10589Y10348D01*
G01X10593Y10386D01*
G01X10605Y10419D01*
G01X10624Y10447D01*
G01X10651Y10471D01*
G01X10590Y10476D01*
G01X10600Y10613D01*
G01X10627Y10613D01*
G01X10635Y10542D01*
G01X11117Y10542D01*
G01X11242Y10544D01*
G01X11247Y10532D01*
G01X11210Y10398D01*
G01X11185Y10398D01*
G01X11177Y10471D01*
G01X10969Y10471D01*
G01X10997Y10443D01*
G01X11014Y10415D01*
G01X11024Y10386D01*
G01X11027Y10355D01*
G01X11026Y10336D01*
G01X11022Y10317D01*
G01X11018Y10298D01*
G01X11011Y10281D01*
G01X11002Y10264D01*
G01X10992Y10249D01*
G01X10980Y10234D01*
G01X10966Y10221D01*
G01X10951Y10210D01*
G01X10934Y10199D01*
G01X10915Y10190D01*
G01X10896Y10182D01*
G01X10875Y10176D01*
G01X10852Y10172D01*
G01X10828Y10169D01*
G37*

%LPC*%
G36*
G01X10777Y10246D02*
G01X10806Y10246D01*
G01X10835Y10247D01*
G01X10862Y10250D01*
G01X10886Y10255D01*
G01X10907Y10263D01*
G01X10926Y10272D01*
G01X10941Y10282D01*
G01X10954Y10294D01*
G01X10965Y10308D01*
G01X10972Y10322D01*
G01X10978Y10338D01*
G01X10981Y10354D01*
G01X10982Y10371D01*
G01X10980Y10393D01*
G01X10973Y10416D01*
G01X10959Y10442D01*
G01X10936Y10469D01*
G01X10682Y10469D01*
G01X10659Y10445D01*
G01X10644Y10421D01*
G01X10636Y10396D01*
G01X10634Y10369D01*
G01X10635Y10352D01*
G01X10638Y10336D01*
G01X10643Y10320D01*
G01X10651Y10306D01*
G01X10661Y10293D01*
G01X10674Y10281D01*
G01X10689Y10271D01*
G01X10707Y10262D01*
G01X10727Y10255D01*
G01X10751Y10250D01*
G01X10777Y10246D01*
G37*

%LPD*%
G01X11899Y22800D02*
G01X12328Y22800D01*
G01X11899Y22800D02*
G01X11899Y22615D01*
G01X11919Y22555D01*
G01X11939Y22534D01*
G01X11980Y22513D01*
G01X12021Y22513D01*
G01X12062Y22534D01*
G01X12083Y22555D01*
G01X12103Y22615D01*
G01X12103Y22800D01*
G01X12103Y22657D02*
G01X12328Y22513D01*
G01X11980Y22378D02*
G01X11960Y22338D01*
G01X11899Y22276D01*
G01X12328Y22276D01*
G01X11899Y21896D02*
G01X11899Y22100D01*
G01X12083Y22121D01*
G01X12062Y22100D01*
G01X12042Y22038D01*
G01X12042Y21978D01*
G01X12062Y21915D01*
G01X12103Y21875D01*
G01X12164Y21855D01*
G01X12205Y21855D01*
G01X12267Y21875D01*
G01X12308Y21915D01*
G01X12328Y21978D01*
G01X12328Y22038D01*
G01X12308Y22100D01*
G01X12287Y22121D01*
G01X12246Y22140D01*
G01X22194Y12920D02*
G01X22194Y12614D01*
G01X22174Y12552D01*
G01X22133Y12511D01*
G01X22071Y12491D01*
G01X22030Y12491D01*
G01X21969Y12511D01*
G01X21928Y12552D01*
G01X21908Y12614D01*
G01X21908Y12920D01*
G01X21527Y12920D02*
G01X21732Y12920D01*
G01X21752Y12736D01*
G01X21732Y12757D01*
G01X21670Y12777D01*
G01X21609Y12777D01*
G01X21548Y12757D01*
G01X21507Y12716D01*
G01X21486Y12655D01*
G01X21486Y12614D01*
G01X21507Y12552D01*
G01X21548Y12511D01*
G01X21609Y12491D01*
G01X21670Y12491D01*
G01X21732Y12511D01*
G01X21752Y12532D01*
G01X21773Y12573D01*
G54D13*
G01X294Y16794D02*
G01X266Y16809D01*
G01X239Y16836D01*
G01X225Y16863D01*
G01X225Y16917D01*
G01X239Y16944D01*
G01X266Y16973D01*
G01X294Y16986D01*
G01X334Y17000D01*
G01X403Y17000D01*
G01X444Y16986D01*
G01X471Y16973D01*
G01X498Y16944D01*
G01X512Y16917D01*
G01X512Y16863D01*
G01X498Y16836D01*
G01X471Y16809D01*
G01X444Y16794D01*
G01X403Y16794D01*
G01X403Y16863D02*
G01X403Y16794D01*
G01X225Y16705D02*
G01X512Y16705D01*
G01X225Y16705D02*
G01X225Y16582D01*
G01X239Y16542D01*
G01X253Y16528D01*
G01X280Y16515D01*
G01X307Y16515D01*
G01X334Y16528D01*
G01X348Y16542D01*
G01X362Y16582D01*
G01X362Y16705D01*
G01X362Y16609D02*
G01X512Y16515D01*
G01X225Y16425D02*
G01X512Y16425D01*
G01X225Y16425D02*
G01X512Y16234D01*
G01X225Y16234D02*
G01X512Y16234D01*
G01X275Y11949D02*
G01X561Y11949D01*
G01X275Y11949D02*
G01X275Y11826D01*
G01X289Y11785D01*
G01X302Y11772D01*
G01X330Y11758D01*
G01X356Y11758D01*
G01X385Y11772D01*
G01X397Y11785D01*
G01X411Y11826D01*
G01X411Y11949D02*
G01X411Y11826D01*
G01X425Y11785D01*
G01X439Y11772D01*
G01X465Y11758D01*
G01X506Y11758D01*
G01X535Y11772D01*
G01X547Y11785D01*
G01X561Y11826D01*
G01X561Y11949D01*
G01X275Y11668D02*
G01X561Y11668D01*
G01X561Y11668D02*
G01X561Y11504D01*
G01X275Y11414D02*
G01X561Y11414D01*
G01X275Y11224D02*
G01X465Y11414D01*
G01X397Y11346D02*
G01X561Y11224D01*
G54D10*
G75*
G01X31314Y16308D02*
G2X31315Y16308I1J31D01*
G01*
G75*
G01X24600Y15025D02*
G03X24600Y15025I-100J0D01*
G01*
G54D69*
G75*
G01X20626Y10548D02*
G03X20626Y10548I-189J0D01*
G01*
G54D10*
G75*
G01X23085Y19070D02*
G03X23085Y19070I-80J0D01*
G01*
G75*
G01X32030Y10650D02*
G03X32030Y10650I-80J0D01*
G01*

%LPD*%
G36*
G01X28610Y25052D02*
G01X28610Y25052D01*
G01X33925Y25052D01*
G01X33925Y23162D01*
G01X33570Y23162D01*
G01X33570Y20525D01*
G01X32586Y20525D01*
G01X32586Y20879D01*
G01X32113Y20879D01*
G01X32113Y20525D01*
G01X28964Y20525D01*
G01X28964Y23162D01*
G01X28610Y23162D01*
G01X28610Y25052D01*
G37*
M00*
M02*
