G04 ---------------------------- Layer name :TOP PASTER LAYER*
G04 EasyEDA v5.7.26, Mon, 08 Oct 2018 11:53:26 GMT*
G04 3e30844db99a4207a4187d0db1b8c40a*
G04 Gerber Generator version 0.2*
G04 Scale: 100 percent, Rotated: No, Reflected: No *
G04 Dimensions in inches *
G04 leading zeros omitted , absolute positions ,2 integer and 4 decimal *
%FSLAX24Y24*%
%MOIN*%
G90*
G70D02*

%ADD14C,0.027559*%
%ADD15C,0.015748*%
%ADD16C,0.011024*%
%ADD19R,0.043307X0.039370*%
%ADD20R,0.039370X0.043307*%
%ADD21R,0.078740X0.017717*%
%ADD22R,0.078740X0.043307*%
%ADD23R,0.033000X0.033000*%
%ADD24R,0.047000X0.033000*%
%ADD25R,0.057870X0.045670*%
%ADD26R,0.053500X0.071500*%
%ADD27R,0.027600X0.009843*%
%ADD28R,0.045670X0.057870*%
%ADD29R,0.071500X0.053500*%
%ADD30R,0.025590X0.023620*%
%ADD31R,0.049213X0.027559*%
%ADD32R,0.071000X0.016000*%
%ADD33R,0.039370X0.060000*%
%ADD34R,0.102400X0.025600*%
%ADD35R,0.013780X0.086614*%

%LPD*%
G54D14*
G01X19900Y5529D02*
G01X19900Y6120D01*
G01X20400Y5529D02*
G01X20400Y6120D01*
G01X20900Y5529D02*
G01X20900Y6120D01*
G01X21400Y5529D02*
G01X21400Y6120D01*
G01X19900Y7909D02*
G01X19900Y8500D01*
G01X20400Y7909D02*
G01X20400Y8500D01*
G01X20900Y7909D02*
G01X20900Y8500D01*
G01X21400Y7909D02*
G01X21400Y8500D01*
G54D15*
G01X25585Y8691D02*
G01X25585Y8218D01*
G01X25328Y8691D02*
G01X25328Y8218D01*
G01X25073Y8691D02*
G01X25073Y8218D01*
G01X24818Y8691D02*
G01X24818Y8218D01*
G01X24561Y8691D02*
G01X24561Y8218D01*
G01X24306Y8691D02*
G01X24306Y8218D01*
G01X24050Y8691D02*
G01X24050Y8218D01*
G01X23793Y8691D02*
G01X23793Y8218D01*
G01X23538Y8691D02*
G01X23538Y8218D01*
G01X23281Y8691D02*
G01X23281Y8218D01*
G01X23026Y8691D02*
G01X23026Y8218D01*
G01X22769Y8691D02*
G01X22769Y8218D01*
G01X22514Y8691D02*
G01X22514Y8218D01*
G01X22259Y8691D02*
G01X22259Y8218D01*
G01X25585Y5631D02*
G01X25585Y5158D01*
G01X25328Y5631D02*
G01X25328Y5158D01*
G01X25073Y5631D02*
G01X25073Y5158D01*
G01X24818Y5631D02*
G01X24818Y5158D01*
G01X24561Y5631D02*
G01X24561Y5158D01*
G01X24306Y5631D02*
G01X24306Y5158D01*
G01X24050Y5631D02*
G01X24050Y5158D01*
G01X23793Y5631D02*
G01X23793Y5158D01*
G01X23538Y5631D02*
G01X23538Y5158D01*
G01X23281Y5631D02*
G01X23281Y5158D01*
G01X23026Y5631D02*
G01X23026Y5158D01*
G01X22769Y5631D02*
G01X22769Y5158D01*
G01X22514Y5631D02*
G01X22514Y5158D01*
G01X22259Y5631D02*
G01X22259Y5158D01*
G54D16*
G01X9250Y7750D02*
G01X9848Y7750D01*
G01X9250Y7946D02*
G01X9848Y7946D01*
G01X9250Y8143D02*
G01X9848Y8143D01*
G01X9250Y8340D02*
G01X9848Y8340D01*
G01X9250Y8537D02*
G01X9848Y8537D01*
G01X9250Y8734D02*
G01X9848Y8734D01*
G01X9250Y8931D02*
G01X9848Y8931D01*
G01X9250Y9128D02*
G01X9848Y9128D01*
G01X9250Y9324D02*
G01X9848Y9324D01*
G01X9250Y9521D02*
G01X9848Y9521D01*
G01X9250Y9718D02*
G01X9848Y9718D01*
G01X9250Y9915D02*
G01X9848Y9915D01*
G01X9250Y10112D02*
G01X9848Y10112D01*
G01X9250Y10309D02*
G01X9848Y10309D01*
G01X9250Y10505D02*
G01X9848Y10505D01*
G01X9250Y10702D02*
G01X9848Y10702D01*
G01X10258Y11112D02*
G01X10258Y11710D01*
G01X10455Y11112D02*
G01X10455Y11710D01*
G01X10652Y11112D02*
G01X10652Y11710D01*
G01X10848Y11112D02*
G01X10848Y11710D01*
G01X11045Y11112D02*
G01X11045Y11710D01*
G01X11242Y11112D02*
G01X11242Y11710D01*
G01X11439Y11112D02*
G01X11439Y11710D01*
G01X11636Y11112D02*
G01X11636Y11710D01*
G01X11833Y11112D02*
G01X11833Y11710D01*
G01X12030Y11112D02*
G01X12030Y11710D01*
G01X12226Y11112D02*
G01X12226Y11710D01*
G01X12423Y11112D02*
G01X12423Y11710D01*
G01X12620Y11112D02*
G01X12620Y11710D01*
G01X12817Y11112D02*
G01X12817Y11710D01*
G01X13014Y11112D02*
G01X13014Y11710D01*
G01X13211Y11112D02*
G01X13211Y11710D01*
G01X13620Y10702D02*
G01X14218Y10702D01*
G01X13620Y10505D02*
G01X14218Y10505D01*
G01X13620Y10309D02*
G01X14218Y10309D01*
G01X13620Y10112D02*
G01X14218Y10112D01*
G01X13620Y9915D02*
G01X14218Y9915D01*
G01X13620Y9718D02*
G01X14218Y9718D01*
G01X13620Y9521D02*
G01X14218Y9521D01*
G01X13620Y9324D02*
G01X14218Y9324D01*
G01X13620Y9128D02*
G01X14218Y9128D01*
G01X13620Y8931D02*
G01X14218Y8931D01*
G01X13620Y8734D02*
G01X14218Y8734D01*
G01X13620Y8537D02*
G01X14218Y8537D01*
G01X13620Y8340D02*
G01X14218Y8340D01*
G01X13620Y8143D02*
G01X14218Y8143D01*
G01X13620Y7946D02*
G01X14218Y7946D01*
G01X13620Y7750D02*
G01X14218Y7750D01*
G01X13211Y6742D02*
G01X13211Y7340D01*
G01X13014Y6742D02*
G01X13014Y7340D01*
G01X12817Y6742D02*
G01X12817Y7340D01*
G01X12620Y6742D02*
G01X12620Y7340D01*
G01X12423Y6742D02*
G01X12423Y7340D01*
G01X12226Y6742D02*
G01X12226Y7340D01*
G01X12030Y6742D02*
G01X12030Y7340D01*
G01X11833Y6742D02*
G01X11833Y7340D01*
G01X11636Y6742D02*
G01X11636Y7340D01*
G01X11439Y6742D02*
G01X11439Y7340D01*
G01X11242Y6742D02*
G01X11242Y7340D01*
G01X11045Y6742D02*
G01X11045Y7340D01*
G01X10848Y6742D02*
G01X10848Y7340D01*
G01X10652Y6742D02*
G01X10652Y7340D01*
G01X10455Y6742D02*
G01X10455Y7340D01*
G01X10258Y6742D02*
G01X10258Y7340D01*
G54D19*
G01X4150Y9710D03*
G01X4150Y9159D03*
G54D20*
G01X7160Y9025D03*
G01X6609Y9025D03*
G54D21*
G01X2098Y19878D03*
G01X2098Y20134D03*
G01X2098Y20390D03*
G01X2098Y20646D03*
G01X2098Y20902D03*
G54D22*
G01X2098Y21295D03*
G01X2098Y19484D03*
G54D23*
G01X3668Y20203D03*
G01X4457Y20203D03*
G01X3668Y21023D03*
G54D24*
G01X4377Y21023D03*
G54D25*
G01X5368Y21151D03*
G01X5368Y21951D03*
G01X5375Y20244D03*
G01X5375Y19444D03*
G54D19*
G01X5850Y12864D03*
G01X5850Y13415D03*
G54D20*
G01X2814Y12550D03*
G01X3365Y12550D03*
G54D26*
G01X7539Y14799D03*
G01X7539Y13509D03*
G54D19*
G01X8350Y13039D03*
G01X8350Y13590D03*
G54D27*
G01X15714Y13257D03*
G01X15714Y13454D03*
G01X15714Y13651D03*
G01X15714Y13848D03*
G01X15714Y14044D03*
G01X15714Y14242D03*
G01X15085Y14242D03*
G01X15085Y14044D03*
G01X15085Y13848D03*
G01X15085Y13651D03*
G01X15085Y13454D03*
G01X15085Y13257D03*
G54D20*
G01X16614Y14750D03*
G01X17165Y14750D03*
G54D19*
G01X14350Y13439D03*
G01X14350Y13990D03*
G54D28*
G01X17325Y14100D03*
G01X16525Y14100D03*
G54D29*
G01X17399Y15535D03*
G01X16109Y15535D03*
G54D20*
G01X1410Y7600D03*
G01X859Y7600D03*
G01X3414Y6875D03*
G01X3965Y6875D03*
G54D19*
G01X3525Y7914D03*
G01X3525Y8465D03*
G54D20*
G01X2839Y9725D03*
G01X3390Y9725D03*
G54D23*
G01X12735Y13090D03*
G01X13525Y13090D03*
G01X12735Y13909D03*
G54D24*
G01X13444Y13909D03*
G54D20*
G01X12960Y14900D03*
G01X12409Y14900D03*
G01X24635Y9550D03*
G01X24084Y9550D03*
G01X25164Y2625D03*
G01X25715Y2625D03*
G01X27710Y3000D03*
G01X27159Y3000D03*
G01X26260Y3700D03*
G01X25709Y3700D03*
G54D19*
G01X20025Y3060D03*
G01X20025Y2509D03*
G01X20650Y3060D03*
G01X20650Y2509D03*
G54D30*
G01X28200Y2519D03*
G01X28200Y2186D03*
G01X19350Y2380D03*
G01X19350Y2713D03*
G54D19*
G01X21275Y3060D03*
G01X21275Y2509D03*
G54D20*
G01X2614Y16075D03*
G01X3165Y16075D03*
G54D19*
G01X6750Y14210D03*
G01X6750Y13659D03*
G01X20550Y10563D03*
G01X20550Y11114D03*
G01X21675Y11110D03*
G01X21675Y10559D03*
G01X7000Y2989D03*
G01X7000Y3540D03*
G54D31*
G01X7682Y2325D03*
G01X8667Y2698D03*
G01X8667Y1951D03*
G54D20*
G01X9985Y1975D03*
G01X9434Y1975D03*
G54D19*
G01X18700Y5964D03*
G01X18700Y6515D03*
G01X15625Y3939D03*
G01X15625Y4490D03*
G54D32*
G01X16455Y5355D03*
G01X16455Y5094D03*
G01X16455Y4844D03*
G01X16455Y4584D03*
G01X16455Y4325D03*
G01X16455Y4075D03*
G01X16455Y3815D03*
G01X16455Y3565D03*
G01X18735Y3565D03*
G01X18735Y3815D03*
G01X18735Y4075D03*
G01X18735Y4325D03*
G01X18735Y4584D03*
G01X18735Y4844D03*
G01X18735Y5094D03*
G01X18735Y5355D03*
G54D20*
G01X9710Y13000D03*
G01X9159Y13000D03*
G01X13635Y5675D03*
G01X13084Y5675D03*
G54D19*
G01X14775Y11260D03*
G01X14775Y10709D03*
G54D33*
G01X10101Y5186D03*
G01X11398Y5165D03*
G54D19*
G01X10100Y3814D03*
G01X10100Y4365D03*
G01X11400Y3839D03*
G01X11400Y4390D03*
G54D20*
G01X13964Y7275D03*
G01X14515Y7275D03*
G54D34*
G01X33230Y5000D03*
G01X33230Y4500D03*
G01X33230Y4000D03*
G01X33230Y3500D03*
G01X33230Y3000D03*
G01X31769Y5000D03*
G01X31769Y4500D03*
G01X31769Y4000D03*
G01X31769Y3500D03*
G01X31769Y3000D03*
G54D32*
G01X2830Y14030D03*
G01X2830Y13769D03*
G01X2830Y13519D03*
G01X2830Y13259D03*
G01X5110Y13259D03*
G01X5110Y13519D03*
G01X5110Y13769D03*
G01X5110Y14030D03*
G54D20*
G01X5985Y15200D03*
G01X5434Y15200D03*
G01X8685Y7150D03*
G01X8134Y7150D03*
G54D35*
G01X27585Y1404D03*
G01X27309Y1405D03*
G01X27860Y1404D03*
G01X27034Y1405D03*
G01X26759Y1405D03*
G01X26482Y1405D03*
G01X26207Y1405D03*
G01X25931Y1405D03*
G01X25656Y1405D03*
G01X25381Y1405D03*
G01X25105Y1405D03*
G01X24829Y1405D03*
G01X24553Y1405D03*
G01X24277Y1405D03*
G01X24002Y1405D03*
G01X23727Y1405D03*
G01X23452Y1405D03*
G01X23176Y1404D03*
G01X22901Y1404D03*
G01X22625Y1405D03*
G01X22348Y1405D03*
G01X22073Y1405D03*
G01X21797Y1405D03*
G01X21522Y1405D03*
G01X21247Y1405D03*
G01X20971Y1405D03*
G01X20696Y1405D03*
G01X20419Y1405D03*
G01X20144Y1405D03*
G01X19868Y1405D03*
G54D34*
G01X33230Y9425D03*
G01X33230Y8925D03*
G01X33230Y8425D03*
G01X33230Y7925D03*
G01X33230Y7425D03*
G01X31769Y9425D03*
G01X31769Y8925D03*
G01X31769Y8425D03*
G01X31769Y7925D03*
G01X31769Y7425D03*
G54D20*
G01X21685Y5000D03*
G01X21134Y5000D03*
G01X19885Y9325D03*
G01X19334Y9325D03*
M00*
M02*
