G04 ---------------------------- Layer name :TOP SILK LAYER*
G04 EasyEDA v5.7.26, Mon, 08 Oct 2018 11:53:26 GMT*
G04 3e30844db99a4207a4187d0db1b8c40a*
G04 Gerber Generator version 0.2*
G04 Scale: 100 percent, Rotated: No, Reflected: No *
G04 Dimensions in inches *
G04 leading zeros omitted , absolute positions ,2 integer and 4 decimal *
%FSLAX24Y24*%
%MOIN*%
G90*
G70D02*

%ADD10C,0.010000*%
%ADD13C,0.008000*%
%ADD58C,0.007874*%
%ADD59C,0.007870*%
%ADD60C,0.013000*%
%ADD61C,0.006693*%
%ADD62C,0.004000*%
%ADD63C,0.006693*%
%ADD64C,0.023622*%
%ADD65C,0.011811*%
%ADD66C,0.007000*%

%LPD*%
G54D58*
G01X4464Y9278D02*
G01X4464Y8844D01*
G01X3835Y8844D01*
G01X3835Y9278D01*
G01X4464Y9592D02*
G01X4464Y10026D01*
G01X4071Y10026D01*
G01X3835Y10026D01*
G01X3835Y9592D01*
G01X6727Y8709D02*
G01X6293Y8709D01*
G01X6293Y9340D01*
G01X6727Y9340D01*
G01X7042Y8709D02*
G01X7476Y8709D01*
G01X7476Y9103D01*
G01X7476Y9340D01*
G01X7042Y9340D01*
G54D10*
G01X19700Y6384D02*
G01X21600Y6384D01*
G01X21600Y7625D01*
G01X19700Y7625D01*
G01X19700Y7625D02*
G01X19700Y7255D01*
G01X19700Y6755D02*
G01X19700Y6384D01*
G01X1100Y18400D02*
G01X1400Y18400D01*
G01X1100Y22400D02*
G01X1400Y22400D01*
G01X2000Y21600D02*
G01X2000Y22100D01*
G01X2000Y19200D02*
G01X2000Y18700D01*
G01X4638Y20444D02*
G01X3477Y20444D01*
G01X3477Y20444D02*
G01X3477Y20784D01*
G01X3477Y20784D02*
G01X4638Y20784D01*
G01X4638Y20784D02*
G01X4638Y20444D01*
G54D59*
G01X5777Y21769D02*
G01X5777Y22288D01*
G01X4961Y22288D01*
G01X4961Y21769D01*
G01X5777Y21323D02*
G01X5777Y20803D01*
G01X4961Y20803D01*
G01X4961Y21323D01*
G01X4967Y19626D02*
G01X4967Y19107D01*
G01X5781Y19107D01*
G01X5781Y19626D01*
G01X4967Y20071D02*
G01X4967Y20592D01*
G01X5781Y20592D01*
G01X5781Y20071D01*
G54D13*
G01X15500Y18800D02*
G01X14510Y18800D01*
G01X14510Y20800D01*
G01X15500Y20800D01*
G01X15500Y18800D01*
G54D58*
G01X5535Y13296D02*
G01X5535Y13730D01*
G01X6164Y13730D01*
G01X6164Y13296D01*
G01X5535Y12982D02*
G01X5535Y12548D01*
G01X5928Y12548D01*
G01X6164Y12548D01*
G01X6164Y12982D01*
G01X3247Y12865D02*
G01X3681Y12865D01*
G01X3681Y12234D01*
G01X3247Y12234D01*
G01X2932Y12865D02*
G01X2498Y12865D01*
G01X2498Y12471D01*
G01X2498Y12234D01*
G01X2932Y12234D01*
G54D10*
G01X7930Y13830D02*
G01X7930Y12809D01*
G01X7150Y12809D01*
G01X7150Y13830D01*
G54D60*
G01X7169Y13009D02*
G01X7910Y13009D01*
G54D10*
G01X7150Y14469D02*
G01X7150Y15273D01*
G01X7938Y15273D01*
G01X7938Y14469D01*
G54D58*
G01X8035Y13471D02*
G01X8035Y13905D01*
G01X8664Y13905D01*
G01X8664Y13471D01*
G01X8035Y13157D02*
G01X8035Y12723D01*
G01X8428Y12723D01*
G01X8664Y12723D01*
G01X8664Y13157D01*
G54D61*
G01X15006Y14340D02*
G01X15006Y13159D01*
G01X15793Y14340D02*
G01X15793Y13159D01*
G01X15793Y14340D02*
G01X15006Y14340D01*
G01X15793Y13159D02*
G01X15006Y13159D01*
G54D58*
G01X17047Y15065D02*
G01X17481Y15065D01*
G01X17481Y14434D01*
G01X17047Y14434D01*
G01X16732Y15065D02*
G01X16298Y15065D01*
G01X16298Y14671D01*
G01X16298Y14434D01*
G01X16732Y14434D01*
G01X14035Y13871D02*
G01X14035Y14305D01*
G01X14664Y14305D01*
G01X14664Y13871D01*
G01X14035Y13557D02*
G01X14035Y13123D01*
G01X14428Y13123D01*
G01X14664Y13123D01*
G01X14664Y13557D01*
G54D59*
G01X16706Y14507D02*
G01X16186Y14507D01*
G01X16186Y13692D01*
G01X16706Y13692D01*
G01X17152Y14507D02*
G01X17672Y14507D01*
G01X17672Y13692D01*
G01X17152Y13692D01*
G54D10*
G01X16430Y15144D02*
G01X15410Y15144D01*
G01X15410Y15925D01*
G01X16430Y15925D01*
G54D60*
G01X15610Y15905D02*
G01X15610Y15165D01*
G54D10*
G01X17069Y15925D02*
G01X17873Y15925D01*
G01X17873Y15136D01*
G01X17069Y15136D01*
G54D58*
G01X977Y7284D02*
G01X543Y7284D01*
G01X543Y7915D01*
G01X977Y7915D01*
G01X1292Y7284D02*
G01X1726Y7284D01*
G01X1726Y7678D01*
G01X1726Y7915D01*
G01X1292Y7915D01*
G01X3847Y7190D02*
G01X4281Y7190D01*
G01X4281Y6559D01*
G01X3847Y6559D01*
G01X3532Y7190D02*
G01X3098Y7190D01*
G01X3098Y6796D01*
G01X3098Y6559D01*
G01X3532Y6559D01*
G01X3210Y8346D02*
G01X3210Y8780D01*
G01X3839Y8780D01*
G01X3839Y8346D01*
G01X3210Y8032D02*
G01X3210Y7598D01*
G01X3603Y7598D01*
G01X3839Y7598D01*
G01X3839Y8032D01*
G01X3272Y10040D02*
G01X3706Y10040D01*
G01X3706Y9409D01*
G01X3272Y9409D01*
G01X2957Y10040D02*
G01X2523Y10040D01*
G01X2523Y9646D01*
G01X2523Y9409D01*
G01X2957Y9409D01*
G54D10*
G01X13705Y13330D02*
G01X12544Y13330D01*
G01X12544Y13330D02*
G01X12544Y13669D01*
G01X12544Y13669D02*
G01X13705Y13669D01*
G01X13705Y13669D02*
G01X13705Y13330D01*
G54D58*
G01X12527Y14584D02*
G01X12093Y14584D01*
G01X12093Y15215D01*
G01X12527Y15215D01*
G01X12842Y14584D02*
G01X13276Y14584D01*
G01X13276Y14978D01*
G01X13276Y15215D01*
G01X12842Y15215D01*
G01X24202Y9234D02*
G01X23768Y9234D01*
G01X23768Y9865D01*
G01X24202Y9865D01*
G01X24517Y9234D02*
G01X24951Y9234D01*
G01X24951Y9628D01*
G01X24951Y9865D01*
G01X24517Y9865D01*
G01X25597Y2940D02*
G01X26031Y2940D01*
G01X26031Y2309D01*
G01X25597Y2309D01*
G01X25282Y2940D02*
G01X24848Y2940D01*
G01X24848Y2546D01*
G01X24848Y2309D01*
G01X25282Y2309D01*
G01X27277Y2684D02*
G01X26844Y2684D01*
G01X26844Y3315D01*
G01X27277Y3315D01*
G01X27593Y2684D02*
G01X28026Y2684D01*
G01X28026Y3078D01*
G01X28026Y3315D01*
G01X27593Y3315D01*
G01X25827Y3384D02*
G01X25394Y3384D01*
G01X25394Y4015D01*
G01X25827Y4015D01*
G01X26143Y3384D02*
G01X26576Y3384D01*
G01X26576Y3778D01*
G01X26576Y4015D01*
G01X26143Y4015D01*
G01X20339Y2628D02*
G01X20339Y2194D01*
G01X19710Y2194D01*
G01X19710Y2628D01*
G01X20339Y2942D02*
G01X20339Y3376D01*
G01X19946Y3376D01*
G01X19710Y3376D01*
G01X19710Y2942D01*
G01X20964Y2628D02*
G01X20964Y2194D01*
G01X20335Y2194D01*
G01X20335Y2628D01*
G01X20964Y2942D02*
G01X20964Y3376D01*
G01X20571Y3376D01*
G01X20335Y3376D01*
G01X20335Y2942D01*
G54D62*
G01X28030Y2280D02*
G01X28030Y2030D01*
G01X28369Y2030D01*
G01X28369Y2240D01*
G01X28369Y2280D01*
G01X28369Y2430D02*
G01X28369Y2669D01*
G01X28030Y2669D01*
G01X28030Y2459D01*
G01X28030Y2430D01*
G01X19519Y2619D02*
G01X19519Y2869D01*
G01X19180Y2869D01*
G01X19180Y2659D01*
G01X19180Y2619D01*
G01X19180Y2469D02*
G01X19180Y2230D01*
G01X19519Y2230D01*
G01X19519Y2440D01*
G01X19519Y2469D01*
G54D58*
G01X21589Y2628D02*
G01X21589Y2194D01*
G01X20960Y2194D01*
G01X20960Y2628D01*
G01X21589Y2942D02*
G01X21589Y3376D01*
G01X21196Y3376D01*
G01X20960Y3376D01*
G01X20960Y2942D01*
G01X3047Y16390D02*
G01X3480Y16390D01*
G01X3480Y15759D01*
G01X3047Y15759D01*
G01X2731Y16390D02*
G01X2298Y16390D01*
G01X2298Y15996D01*
G01X2298Y15759D01*
G01X2731Y15759D01*
G01X7064Y13778D02*
G01X7064Y13344D01*
G01X6435Y13344D01*
G01X6435Y13778D01*
G01X7064Y14092D02*
G01X7064Y14526D01*
G01X6671Y14526D01*
G01X6435Y14526D01*
G01X6435Y14092D01*
G01X20235Y10996D02*
G01X20235Y11430D01*
G01X20864Y11430D01*
G01X20864Y10996D01*
G01X20235Y10682D02*
G01X20235Y10248D01*
G01X20628Y10248D01*
G01X20864Y10248D01*
G01X20864Y10682D01*
G01X21989Y10678D02*
G01X21989Y10244D01*
G01X21360Y10244D01*
G01X21360Y10678D01*
G01X21989Y10992D02*
G01X21989Y11426D01*
G01X21596Y11426D01*
G01X21360Y11426D01*
G01X21360Y10992D01*
G01X6685Y3421D02*
G01X6685Y3855D01*
G01X7314Y3855D01*
G01X7314Y3421D01*
G01X6685Y3107D02*
G01X6685Y2673D01*
G01X7078Y2673D01*
G01X7314Y2673D01*
G01X7314Y3107D01*
G54D10*
G01X4725Y4944D02*
G01X4725Y4544D01*
G01X4925Y4744D02*
G01X4525Y4744D01*
G01X7918Y2640D02*
G01X7918Y2900D01*
G01X7918Y2640D01*
G01X7918Y2900D01*
G01X8239Y2900D01*
G01X8239Y1750D02*
G01X7918Y1750D01*
G01X7918Y2009D01*
G54D58*
G01X8528Y2207D02*
G01X8528Y2442D01*
G01X9552Y1659D02*
G01X9119Y1659D01*
G01X9119Y2290D01*
G01X9552Y2290D01*
G01X9868Y1659D02*
G01X10301Y1659D01*
G01X10301Y2053D01*
G01X10301Y2290D01*
G01X9868Y2290D01*
G01X18385Y6396D02*
G01X18385Y6830D01*
G01X19014Y6830D01*
G01X19014Y6396D01*
G01X18385Y6082D02*
G01X18385Y5648D01*
G01X18778Y5648D01*
G01X19014Y5648D01*
G01X19014Y6082D01*
G01X15310Y4371D02*
G01X15310Y4805D01*
G01X15939Y4805D01*
G01X15939Y4371D01*
G01X15310Y4057D02*
G01X15310Y3623D01*
G01X15703Y3623D01*
G01X15939Y3623D01*
G01X15939Y4057D01*
G54D10*
G01X25952Y6728D02*
G01X25952Y5825D01*
G01X21917Y5825D01*
G01X21917Y8025D01*
G01X25952Y8025D01*
G01X25952Y7121D01*
G01X16964Y3394D02*
G01X16964Y5521D01*
G01X18222Y3394D02*
G01X18222Y5521D01*
G01X16964Y3394D02*
G01X18222Y3394D01*
G01X16975Y5525D02*
G01X18175Y5525D01*
G54D58*
G01X9277Y12684D02*
G01X8843Y12684D01*
G01X8843Y13315D01*
G01X9277Y13315D01*
G01X9592Y12684D02*
G01X10026Y12684D01*
G01X10026Y13078D01*
G01X10026Y13315D01*
G01X9592Y13315D01*
G01X13202Y5359D02*
G01X12768Y5359D01*
G01X12768Y5990D01*
G01X13202Y5990D01*
G01X13517Y5359D02*
G01X13951Y5359D01*
G01X13951Y5753D01*
G01X13951Y5990D01*
G01X13517Y5990D01*
G01X15089Y10828D02*
G01X15089Y10394D01*
G01X14460Y10394D01*
G01X14460Y10828D01*
G01X15089Y11142D02*
G01X15089Y11576D01*
G01X14696Y11576D01*
G01X14460Y11576D01*
G01X14460Y11142D01*
G54D10*
G01X10119Y5469D02*
G01X11380Y5469D01*
G01X11380Y5469D02*
G01X11380Y4880D01*
G01X11380Y4880D02*
G01X10119Y4880D01*
G01X10119Y4880D02*
G01X10119Y5469D01*
G54D58*
G01X9785Y4246D02*
G01X9785Y4680D01*
G01X10414Y4680D01*
G01X10414Y4246D01*
G01X9785Y3932D02*
G01X9785Y3498D01*
G01X10178Y3498D01*
G01X10414Y3498D01*
G01X10414Y3932D01*
G01X11085Y4271D02*
G01X11085Y4705D01*
G01X11714Y4705D01*
G01X11714Y4271D01*
G01X11085Y3957D02*
G01X11085Y3523D01*
G01X11478Y3523D01*
G01X11714Y3523D01*
G01X11714Y3957D01*
G01X14397Y7590D02*
G01X14830Y7590D01*
G01X14830Y6959D01*
G01X14397Y6959D01*
G01X14081Y7590D02*
G01X13648Y7590D01*
G01X13648Y7196D01*
G01X13648Y6959D01*
G01X14081Y6959D01*
G54D10*
G01X31119Y4390D02*
G01X31119Y6069D01*
G01X33880Y6069D01*
G01X33880Y1930D01*
G01X31119Y1930D01*
G01X31119Y3609D01*
G01X3339Y13053D02*
G01X3339Y14234D01*
G01X4597Y13053D02*
G01X4597Y14230D01*
G01X3339Y13053D02*
G01X4597Y13053D01*
G01X3339Y14240D02*
G01X3739Y14240D01*
G01X4600Y14230D02*
G01X4185Y14230D01*
G54D58*
G01X5552Y14884D02*
G01X5119Y14884D01*
G01X5119Y15515D01*
G01X5552Y15515D01*
G01X5868Y14884D02*
G01X6301Y14884D01*
G01X6301Y15278D01*
G01X6301Y15515D01*
G01X5868Y15515D01*
G54D10*
G01X8200Y22100D02*
G01X13200Y22100D01*
G01X13200Y17000D01*
G01X9100Y17000D01*
G01X9100Y18000D01*
G01X8200Y18000D01*
G01X8200Y22100D01*
G54D58*
G01X8252Y6834D02*
G01X7818Y6834D01*
G01X7818Y7465D01*
G01X8252Y7465D01*
G01X8567Y6834D02*
G01X9001Y6834D01*
G01X9001Y7228D01*
G01X9001Y7465D01*
G01X8567Y7465D01*
G54D10*
G01X19386Y2076D02*
G01X27930Y2076D01*
G01X28206Y1800D01*
G01X28206Y971D01*
G01X27930Y698D01*
G01X19661Y698D01*
G01X19386Y971D01*
G01X19386Y2076D01*
G01X20213Y2076D01*
G01X31119Y8815D02*
G01X31119Y10494D01*
G01X33880Y10494D01*
G01X33880Y6355D01*
G01X31119Y6355D01*
G01X31119Y8034D01*
G54D58*
G01X10060Y10900D02*
G01X10060Y7553D01*
G01X13407Y7553D01*
G01X13407Y10900D01*
G01X10060Y10900D01*
G01X21252Y4684D02*
G01X20818Y4684D01*
G01X20818Y5315D01*
G01X21252Y5315D01*
G01X21567Y4684D02*
G01X22001Y4684D01*
G01X22001Y5078D01*
G01X22001Y5315D01*
G01X21567Y5315D01*
G01X19452Y9009D02*
G01X19018Y9009D01*
G01X19018Y9640D01*
G01X19452Y9640D01*
G01X19767Y9009D02*
G01X20201Y9009D01*
G01X20201Y9403D01*
G01X20201Y9640D01*
G01X19767Y9640D01*
G54D10*
G01X34175Y22952D02*
G01X18775Y22952D01*
G01X18775Y22952D02*
G01X18775Y13052D01*
G01X34175Y13052D01*
G01X34175Y22952D01*
G54D13*
G01X2043Y1388D02*
G01X1969Y1351D01*
G01X1897Y1278D01*
G01X1860Y1205D01*
G01X1825Y1096D01*
G01X1825Y915D01*
G01X1860Y805D01*
G01X1897Y734D01*
G01X1969Y661D01*
G01X2043Y625D01*
G01X2189Y625D01*
G01X2260Y661D01*
G01X2334Y734D01*
G01X2369Y805D01*
G01X2406Y915D01*
G01X2406Y1096D01*
G01X2369Y1205D01*
G01X2334Y1278D01*
G01X2260Y1351D01*
G01X2189Y1388D01*
G01X2043Y1388D01*
G01X2647Y1134D02*
G01X2647Y369D01*
G01X2647Y1025D02*
G01X2719Y1096D01*
G01X2792Y1134D01*
G01X2901Y1134D01*
G01X2973Y1096D01*
G01X3047Y1025D01*
G01X3082Y915D01*
G01X3082Y842D01*
G01X3047Y734D01*
G01X2973Y661D01*
G01X2901Y625D01*
G01X2792Y625D01*
G01X2719Y661D01*
G01X2647Y734D01*
G01X3322Y915D02*
G01X3760Y915D01*
G01X3760Y988D01*
G01X3722Y1061D01*
G01X3686Y1096D01*
G01X3614Y1134D01*
G01X3505Y1134D01*
G01X3431Y1096D01*
G01X3360Y1025D01*
G01X3322Y915D01*
G01X3322Y842D01*
G01X3360Y734D01*
G01X3431Y661D01*
G01X3505Y625D01*
G01X3614Y625D01*
G01X3686Y661D01*
G01X3760Y734D01*
G01X4000Y1134D02*
G01X4000Y625D01*
G01X4000Y988D02*
G01X4109Y1096D01*
G01X4181Y1134D01*
G01X4289Y1134D01*
G01X4363Y1096D01*
G01X4400Y988D01*
G01X4400Y625D01*
G01X4639Y951D02*
G01X5293Y951D01*
G01X5534Y1388D02*
G01X5825Y625D01*
G01X6115Y1388D02*
G01X5825Y625D01*
G01X6792Y1134D02*
G01X6792Y625D01*
G01X6792Y1025D02*
G01X6719Y1096D01*
G01X6647Y1134D01*
G01X6538Y1134D01*
G01X6464Y1096D01*
G01X6392Y1025D01*
G01X6356Y915D01*
G01X6356Y842D01*
G01X6392Y734D01*
G01X6464Y661D01*
G01X6538Y625D01*
G01X6647Y625D01*
G01X6719Y661D01*
G01X6792Y734D01*
G01X7031Y1134D02*
G01X7031Y625D01*
G01X7031Y915D02*
G01X7068Y1025D01*
G01X7140Y1096D01*
G01X7214Y1134D01*
G01X7322Y1134D01*
G01X7563Y1388D02*
G01X7600Y1351D01*
G01X7635Y1388D01*
G01X7600Y1425D01*
G01X7563Y1388D01*
G01X7600Y1134D02*
G01X7600Y625D01*
G01X8057Y1134D02*
G01X7985Y1096D01*
G01X7911Y1025D01*
G01X7876Y915D01*
G01X7876Y842D01*
G01X7911Y734D01*
G01X7985Y661D01*
G01X8057Y625D01*
G01X8167Y625D01*
G01X8239Y661D01*
G01X8311Y734D01*
G01X8348Y842D01*
G01X8348Y915D01*
G01X8311Y1025D01*
G01X8239Y1096D01*
G01X8167Y1134D01*
G01X8057Y1134D01*
G01X9148Y1134D02*
G01X9148Y625D01*
G01X9148Y915D02*
G01X9185Y1025D01*
G01X9257Y1096D01*
G01X9330Y1134D01*
G01X9439Y1134D01*
G01X9680Y915D02*
G01X10115Y915D01*
G01X10115Y988D01*
G01X10080Y1061D01*
G01X10043Y1096D01*
G01X9969Y1134D01*
G01X9860Y1134D01*
G01X9789Y1096D01*
G01X9715Y1025D01*
G01X9680Y915D01*
G01X9680Y842D01*
G01X9715Y734D01*
G01X9789Y661D01*
G01X9860Y625D01*
G01X9969Y625D01*
G01X10043Y661D01*
G01X10115Y734D01*
G01X10356Y1134D02*
G01X10573Y625D01*
G01X10792Y1134D02*
G01X10573Y625D01*
G01X11592Y1242D02*
G01X11664Y1278D01*
G01X11773Y1388D01*
G01X11773Y625D01*
G01X12050Y805D02*
G01X12014Y769D01*
G01X12050Y734D01*
G01X12086Y769D01*
G01X12050Y805D01*
G01X12544Y1388D02*
G01X12435Y1351D01*
G01X12363Y1242D01*
G01X12327Y1061D01*
G01X12327Y951D01*
G01X12363Y769D01*
G01X12435Y661D01*
G01X12544Y625D01*
G01X12618Y625D01*
G01X12727Y661D01*
G01X12800Y769D01*
G01X12835Y951D01*
G01X12835Y1061D01*
G01X12800Y1242D01*
G01X12727Y1351D01*
G01X12618Y1388D01*
G01X12544Y1388D01*
G54D66*
G01X4774Y9439D02*
G01X5203Y9439D01*
G01X4774Y9439D02*
G01X4774Y9623D01*
G01X4794Y9684D01*
G01X4814Y9705D01*
G01X4855Y9725D01*
G01X4896Y9725D01*
G01X4937Y9705D01*
G01X4958Y9684D01*
G01X4978Y9623D01*
G01X4978Y9439D01*
G01X4978Y9582D02*
G01X5203Y9725D01*
G01X4855Y9860D02*
G01X4835Y9901D01*
G01X4774Y9963D01*
G01X5203Y9963D01*
G01X4855Y10098D02*
G01X4835Y10139D01*
G01X4774Y10200D01*
G01X5203Y10200D01*
G01X5850Y9900D02*
G01X5850Y9471D01*
G01X5850Y9900D02*
G01X6034Y9900D01*
G01X6094Y9880D01*
G01X6115Y9860D01*
G01X6135Y9819D01*
G01X6135Y9778D01*
G01X6115Y9737D01*
G01X6094Y9716D01*
G01X6034Y9696D01*
G01X5850Y9696D01*
G01X5993Y9696D02*
G01X6135Y9471D01*
G01X6271Y9819D02*
G01X6311Y9839D01*
G01X6373Y9900D01*
G01X6373Y9471D01*
G01X6713Y9900D02*
G01X6509Y9614D01*
G01X6814Y9614D01*
G01X6713Y9900D02*
G01X6713Y9471D01*
G01X18855Y6975D02*
G01X19160Y6975D01*
G01X19222Y6994D01*
G01X19264Y7036D01*
G01X19284Y7098D01*
G01X19284Y7138D01*
G01X19264Y7200D01*
G01X19222Y7240D01*
G01X19160Y7261D01*
G01X18855Y7261D01*
G01X18915Y7642D02*
G01X18875Y7621D01*
G01X18855Y7559D01*
G01X18855Y7519D01*
G01X18875Y7457D01*
G01X18935Y7417D01*
G01X19039Y7396D01*
G01X19140Y7396D01*
G01X19222Y7417D01*
G01X19264Y7457D01*
G01X19284Y7519D01*
G01X19284Y7540D01*
G01X19264Y7601D01*
G01X19222Y7642D01*
G01X19160Y7661D01*
G01X19140Y7661D01*
G01X19080Y7642D01*
G01X19039Y7601D01*
G01X19018Y7540D01*
G01X19018Y7519D01*
G01X19039Y7457D01*
G01X19080Y7417D01*
G01X19140Y7396D01*
G01X2755Y20400D02*
G01X3060Y20400D01*
G01X3122Y20419D01*
G01X3164Y20461D01*
G01X3184Y20523D01*
G01X3184Y20563D01*
G01X3164Y20625D01*
G01X3122Y20665D01*
G01X3060Y20686D01*
G01X2755Y20686D01*
G01X2815Y21107D02*
G01X2775Y21067D01*
G01X2755Y21005D01*
G01X2755Y20923D01*
G01X2775Y20861D01*
G01X2815Y20821D01*
G01X2856Y20821D01*
G01X2897Y20842D01*
G01X2918Y20861D01*
G01X2939Y20903D01*
G01X2980Y21026D01*
G01X3000Y21067D01*
G01X3019Y21086D01*
G01X3060Y21107D01*
G01X3122Y21107D01*
G01X3164Y21067D01*
G01X3184Y21005D01*
G01X3184Y20923D01*
G01X3164Y20861D01*
G01X3122Y20821D01*
G01X2755Y21242D02*
G01X3184Y21242D01*
G01X2755Y21242D02*
G01X2755Y21427D01*
G01X2775Y21488D01*
G01X2794Y21509D01*
G01X2835Y21528D01*
G01X2877Y21528D01*
G01X2918Y21509D01*
G01X2939Y21488D01*
G01X2959Y21427D01*
G01X2959Y21242D02*
G01X2959Y21427D01*
G01X2980Y21488D01*
G01X3000Y21509D01*
G01X3040Y21528D01*
G01X3102Y21528D01*
G01X3143Y21509D01*
G01X3164Y21488D01*
G01X3184Y21427D01*
G01X3184Y21242D01*
G01X2835Y21663D02*
G01X2815Y21705D01*
G01X2755Y21765D01*
G01X3184Y21765D01*
G01X3200Y19950D02*
G01X3200Y19521D01*
G01X3200Y19950D02*
G01X3343Y19950D01*
G01X3405Y19930D01*
G01X3445Y19889D01*
G01X3466Y19848D01*
G01X3486Y19787D01*
G01X3486Y19685D01*
G01X3466Y19623D01*
G01X3445Y19582D01*
G01X3405Y19541D01*
G01X3343Y19521D01*
G01X3200Y19521D01*
G01X3621Y19869D02*
G01X3662Y19889D01*
G01X3724Y19950D01*
G01X3724Y19521D01*
G01X4427Y21891D02*
G01X4386Y21870D01*
G01X4345Y21829D01*
G01X4325Y21789D01*
G01X4325Y21707D01*
G01X4345Y21666D01*
G01X4386Y21625D01*
G01X4427Y21604D01*
G01X4488Y21584D01*
G01X4590Y21584D01*
G01X4652Y21604D01*
G01X4693Y21625D01*
G01X4734Y21666D01*
G01X4754Y21707D01*
G01X4754Y21789D01*
G01X4734Y21829D01*
G01X4693Y21870D01*
G01X4652Y21891D01*
G01X4406Y22026D02*
G01X4386Y22067D01*
G01X4325Y22128D01*
G01X4754Y22128D01*
G01X4427Y22284D02*
G01X4406Y22284D01*
G01X4365Y22304D01*
G01X4345Y22324D01*
G01X4325Y22365D01*
G01X4325Y22447D01*
G01X4345Y22488D01*
G01X4365Y22509D01*
G01X4406Y22529D01*
G01X4447Y22529D01*
G01X4488Y22509D01*
G01X4550Y22468D01*
G01X4754Y22263D01*
G01X4754Y22549D01*
G01X6152Y19782D02*
G01X6111Y19761D01*
G01X6070Y19720D01*
G01X6050Y19680D01*
G01X6050Y19598D01*
G01X6070Y19557D01*
G01X6111Y19516D01*
G01X6152Y19495D01*
G01X6213Y19475D01*
G01X6315Y19475D01*
G01X6377Y19495D01*
G01X6418Y19516D01*
G01X6459Y19557D01*
G01X6479Y19598D01*
G01X6479Y19680D01*
G01X6459Y19720D01*
G01X6418Y19761D01*
G01X6377Y19782D01*
G01X6131Y19917D02*
G01X6111Y19958D01*
G01X6050Y20019D01*
G01X6479Y20019D01*
G01X6050Y20195D02*
G01X6050Y20420D01*
G01X6213Y20297D01*
G01X6213Y20359D01*
G01X6234Y20400D01*
G01X6254Y20420D01*
G01X6315Y20440D01*
G01X6356Y20440D01*
G01X6418Y20420D01*
G01X6459Y20379D01*
G01X6479Y20318D01*
G01X6479Y20256D01*
G01X6459Y20195D01*
G01X6438Y20175D01*
G01X6397Y20154D01*
G01X15750Y18474D02*
G01X16179Y18474D01*
G01X16179Y18474D02*
G01X16179Y18719D01*
G01X15750Y18854D02*
G01X16179Y18854D01*
G01X15750Y18989D02*
G01X16179Y18989D01*
G01X15750Y18989D02*
G01X15750Y19174D01*
G01X15770Y19235D01*
G01X15790Y19255D01*
G01X15831Y19276D01*
G01X15893Y19276D01*
G01X15934Y19255D01*
G01X15954Y19235D01*
G01X15975Y19174D01*
G01X15975Y18989D01*
G01X15750Y19534D02*
G01X15770Y19493D01*
G01X15811Y19452D01*
G01X15852Y19431D01*
G01X15913Y19411D01*
G01X16015Y19411D01*
G01X16077Y19431D01*
G01X16118Y19452D01*
G01X16159Y19493D01*
G01X16179Y19534D01*
G01X16179Y19615D01*
G01X16159Y19656D01*
G01X16118Y19697D01*
G01X16077Y19718D01*
G01X16015Y19738D01*
G01X15913Y19738D01*
G01X15852Y19718D01*
G01X15811Y19697D01*
G01X15770Y19656D01*
G01X15750Y19615D01*
G01X15750Y19534D01*
G01X16322Y19873D02*
G01X16322Y20241D01*
G01X15831Y20376D02*
G01X15811Y20417D01*
G01X15750Y20479D01*
G01X16179Y20479D01*
G01X15811Y20900D02*
G01X15770Y20859D01*
G01X15750Y20798D01*
G01X15750Y20716D01*
G01X15770Y20654D01*
G01X15811Y20614D01*
G01X15852Y20614D01*
G01X15893Y20634D01*
G01X15913Y20654D01*
G01X15934Y20695D01*
G01X15975Y20818D01*
G01X15995Y20859D01*
G01X16015Y20879D01*
G01X16056Y20900D01*
G01X16118Y20900D01*
G01X16159Y20859D01*
G01X16179Y20798D01*
G01X16179Y20716D01*
G01X16159Y20654D01*
G01X16118Y20614D01*
G01X5901Y11717D02*
G01X5860Y11696D01*
G01X5819Y11655D01*
G01X5799Y11615D01*
G01X5799Y11533D01*
G01X5819Y11492D01*
G01X5860Y11451D01*
G01X5901Y11430D01*
G01X5962Y11410D01*
G01X6064Y11410D01*
G01X6126Y11430D01*
G01X6167Y11451D01*
G01X6208Y11492D01*
G01X6228Y11533D01*
G01X6228Y11615D01*
G01X6208Y11655D01*
G01X6167Y11696D01*
G01X6126Y11717D01*
G01X5880Y11852D02*
G01X5860Y11893D01*
G01X5799Y11954D01*
G01X6228Y11954D01*
G01X5799Y12212D02*
G01X5819Y12150D01*
G01X5880Y12110D01*
G01X5983Y12089D01*
G01X6044Y12089D01*
G01X6146Y12110D01*
G01X6208Y12150D01*
G01X6228Y12212D01*
G01X6228Y12253D01*
G01X6208Y12314D01*
G01X6146Y12355D01*
G01X6044Y12375D01*
G01X5983Y12375D01*
G01X5880Y12355D01*
G01X5819Y12314D01*
G01X5799Y12253D01*
G01X5799Y12212D01*
G01X2749Y12050D02*
G01X2749Y11621D01*
G01X2749Y12050D02*
G01X2933Y12050D01*
G01X2994Y12030D01*
G01X3015Y12010D01*
G01X3035Y11969D01*
G01X3035Y11928D01*
G01X3015Y11887D01*
G01X2994Y11866D01*
G01X2933Y11846D01*
G01X2749Y11846D01*
G01X2892Y11846D02*
G01X3035Y11621D01*
G01X3170Y11969D02*
G01X3211Y11989D01*
G01X3273Y12050D01*
G01X3273Y11621D01*
G01X3694Y12050D02*
G01X3489Y11621D01*
G01X3408Y12050D02*
G01X3694Y12050D01*
G01X7451Y12126D02*
G01X7410Y12105D01*
G01X7369Y12064D01*
G01X7349Y12024D01*
G01X7349Y11942D01*
G01X7369Y11901D01*
G01X7410Y11860D01*
G01X7451Y11839D01*
G01X7512Y11819D01*
G01X7614Y11819D01*
G01X7676Y11839D01*
G01X7717Y11860D01*
G01X7758Y11901D01*
G01X7778Y11942D01*
G01X7778Y12024D01*
G01X7758Y12064D01*
G01X7717Y12105D01*
G01X7676Y12126D01*
G01X7430Y12261D02*
G01X7410Y12302D01*
G01X7349Y12363D01*
G01X7778Y12363D01*
G01X7430Y12498D02*
G01X7410Y12539D01*
G01X7349Y12600D01*
G01X7778Y12600D01*
G01X8149Y14055D02*
G01X8578Y14055D01*
G01X8149Y14055D02*
G01X8149Y14239D01*
G01X8169Y14300D01*
G01X8189Y14321D01*
G01X8230Y14341D01*
G01X8271Y14341D01*
G01X8312Y14321D01*
G01X8333Y14300D01*
G01X8353Y14239D01*
G01X8353Y14055D01*
G01X8353Y14198D02*
G01X8578Y14341D01*
G01X8230Y14476D02*
G01X8210Y14517D01*
G01X8149Y14579D01*
G01X8578Y14579D01*
G01X8149Y14816D02*
G01X8169Y14755D01*
G01X8210Y14734D01*
G01X8251Y14734D01*
G01X8292Y14755D01*
G01X8312Y14795D01*
G01X8333Y14877D01*
G01X8353Y14939D01*
G01X8394Y14980D01*
G01X8435Y15000D01*
G01X8496Y15000D01*
G01X8537Y14980D01*
G01X8558Y14959D01*
G01X8578Y14898D01*
G01X8578Y14816D01*
G01X8558Y14755D01*
G01X8537Y14734D01*
G01X8496Y14714D01*
G01X8435Y14714D01*
G01X8394Y14734D01*
G01X8353Y14775D01*
G01X8333Y14836D01*
G01X8312Y14918D01*
G01X8292Y14959D01*
G01X8251Y14980D01*
G01X8210Y14980D01*
G01X8169Y14959D01*
G01X8149Y14898D01*
G01X8149Y14816D01*
G01X14849Y14510D02*
G01X15155Y14510D01*
G01X15217Y14530D01*
G01X15258Y14571D01*
G01X15278Y14633D01*
G01X15278Y14674D01*
G01X15258Y14735D01*
G01X15217Y14776D01*
G01X15155Y14796D01*
G01X14849Y14796D01*
G01X14930Y14931D02*
G01X14910Y14972D01*
G01X14849Y15034D01*
G01X15278Y15034D01*
G01X14849Y15373D02*
G01X15135Y15169D01*
G01X15135Y15475D01*
G01X14849Y15373D02*
G01X15278Y15373D01*
G01X16750Y13525D02*
G01X16750Y13096D01*
G01X16750Y13525D02*
G01X16934Y13525D01*
G01X16994Y13505D01*
G01X17015Y13485D01*
G01X17035Y13444D01*
G01X17035Y13403D01*
G01X17015Y13362D01*
G01X16994Y13341D01*
G01X16934Y13321D01*
G01X16750Y13321D01*
G01X16893Y13321D02*
G01X17035Y13096D01*
G01X17192Y13423D02*
G01X17192Y13444D01*
G01X17211Y13485D01*
G01X17232Y13505D01*
G01X17273Y13525D01*
G01X17355Y13525D01*
G01X17396Y13505D01*
G01X17417Y13485D01*
G01X17436Y13444D01*
G01X17436Y13403D01*
G01X17417Y13362D01*
G01X17376Y13300D01*
G01X17171Y13096D01*
G01X17457Y13096D01*
G01X17613Y13423D02*
G01X17613Y13444D01*
G01X17634Y13485D01*
G01X17653Y13505D01*
G01X17694Y13525D01*
G01X17777Y13525D01*
G01X17818Y13505D01*
G01X17838Y13485D01*
G01X17859Y13444D01*
G01X17859Y13403D01*
G01X17838Y13362D01*
G01X17797Y13300D01*
G01X17593Y13096D01*
G01X17878Y13096D01*
G01X14149Y14650D02*
G01X14578Y14650D01*
G01X14149Y14650D02*
G01X14149Y14834D01*
G01X14169Y14894D01*
G01X14189Y14915D01*
G01X14230Y14936D01*
G01X14271Y14936D01*
G01X14312Y14915D01*
G01X14333Y14894D01*
G01X14353Y14834D01*
G01X14353Y14650D01*
G01X14353Y14792D02*
G01X14578Y14936D01*
G01X14251Y15092D02*
G01X14230Y15092D01*
G01X14189Y15111D01*
G01X14169Y15132D01*
G01X14149Y15173D01*
G01X14149Y15255D01*
G01X14169Y15296D01*
G01X14189Y15317D01*
G01X14230Y15336D01*
G01X14271Y15336D01*
G01X14312Y15317D01*
G01X14374Y15276D01*
G01X14578Y15071D01*
G01X14578Y15357D01*
G01X14149Y15696D02*
G01X14435Y15492D01*
G01X14435Y15800D01*
G01X14149Y15696D02*
G01X14578Y15696D01*
G01X17906Y14873D02*
G01X17885Y14914D01*
G01X17844Y14955D01*
G01X17804Y14975D01*
G01X17722Y14975D01*
G01X17681Y14955D01*
G01X17640Y14914D01*
G01X17619Y14873D01*
G01X17599Y14812D01*
G01X17599Y14710D01*
G01X17619Y14648D01*
G01X17640Y14607D01*
G01X17681Y14566D01*
G01X17722Y14546D01*
G01X17804Y14546D01*
G01X17844Y14566D01*
G01X17885Y14607D01*
G01X17906Y14648D01*
G01X18041Y14894D02*
G01X18082Y14914D01*
G01X18143Y14975D01*
G01X18143Y14546D01*
G01X18483Y14975D02*
G01X18278Y14689D01*
G01X18585Y14689D01*
G01X18483Y14975D02*
G01X18483Y14546D01*
G01X16906Y16398D02*
G01X16885Y16439D01*
G01X16844Y16480D01*
G01X16805Y16500D01*
G01X16722Y16500D01*
G01X16681Y16480D01*
G01X16640Y16439D01*
G01X16619Y16398D01*
G01X16600Y16337D01*
G01X16600Y16235D01*
G01X16619Y16173D01*
G01X16640Y16132D01*
G01X16681Y16091D01*
G01X16722Y16071D01*
G01X16805Y16071D01*
G01X16844Y16091D01*
G01X16885Y16132D01*
G01X16906Y16173D01*
G01X17042Y16419D02*
G01X17082Y16439D01*
G01X17143Y16500D01*
G01X17143Y16071D01*
G01X17525Y16500D02*
G01X17319Y16500D01*
G01X17300Y16316D01*
G01X17319Y16337D01*
G01X17381Y16357D01*
G01X17443Y16357D01*
G01X17503Y16337D01*
G01X17544Y16296D01*
G01X17564Y16235D01*
G01X17564Y16194D01*
G01X17544Y16132D01*
G01X17503Y16091D01*
G01X17443Y16071D01*
G01X17381Y16071D01*
G01X17319Y16091D01*
G01X17300Y16112D01*
G01X17278Y16153D01*
G01X1150Y6944D02*
G01X1150Y6515D01*
G01X1150Y6944D02*
G01X1334Y6944D01*
G01X1394Y6925D01*
G01X1415Y6905D01*
G01X1435Y6863D01*
G01X1435Y6823D01*
G01X1415Y6782D01*
G01X1394Y6761D01*
G01X1334Y6740D01*
G01X1150Y6740D01*
G01X1293Y6740D02*
G01X1435Y6515D01*
G01X1571Y6863D02*
G01X1611Y6884D01*
G01X1673Y6944D01*
G01X1673Y6515D01*
G01X1931Y6944D02*
G01X1869Y6925D01*
G01X1828Y6863D01*
G01X1809Y6761D01*
G01X1809Y6700D01*
G01X1828Y6598D01*
G01X1869Y6536D01*
G01X1931Y6515D01*
G01X1972Y6515D01*
G01X2034Y6536D01*
G01X2075Y6598D01*
G01X2094Y6700D01*
G01X2094Y6761D01*
G01X2075Y6863D01*
G01X2034Y6925D01*
G01X1972Y6944D01*
G01X1931Y6944D01*
G01X3975Y8025D02*
G01X3975Y7596D01*
G01X3975Y8025D02*
G01X4159Y8025D01*
G01X4219Y8005D01*
G01X4240Y7985D01*
G01X4260Y7944D01*
G01X4260Y7903D01*
G01X4240Y7862D01*
G01X4219Y7841D01*
G01X4159Y7821D01*
G01X3975Y7821D01*
G01X4118Y7821D02*
G01X4260Y7596D01*
G01X4682Y8025D02*
G01X4477Y7596D01*
G01X4396Y8025D02*
G01X4682Y8025D01*
G01X2380Y8175D02*
G01X2809Y8175D01*
G01X2380Y8175D02*
G01X2380Y8359D01*
G01X2400Y8419D01*
G01X2419Y8440D01*
G01X2460Y8461D01*
G01X2502Y8461D01*
G01X2543Y8440D01*
G01X2564Y8419D01*
G01X2584Y8359D01*
G01X2584Y8175D01*
G01X2584Y8317D02*
G01X2809Y8461D01*
G01X2380Y8698D02*
G01X2400Y8636D01*
G01X2440Y8617D01*
G01X2481Y8617D01*
G01X2522Y8636D01*
G01X2543Y8678D01*
G01X2564Y8759D01*
G01X2584Y8821D01*
G01X2625Y8861D01*
G01X2665Y8882D01*
G01X2727Y8882D01*
G01X2768Y8861D01*
G01X2789Y8842D01*
G01X2809Y8780D01*
G01X2809Y8698D01*
G01X2789Y8636D01*
G01X2768Y8617D01*
G01X2727Y8596D01*
G01X2665Y8596D01*
G01X2625Y8617D01*
G01X2584Y8657D01*
G01X2564Y8719D01*
G01X2543Y8801D01*
G01X2522Y8842D01*
G01X2481Y8861D01*
G01X2440Y8861D01*
G01X2400Y8842D01*
G01X2380Y8780D01*
G01X2380Y8698D01*
G01X2825Y10675D02*
G01X2825Y10246D01*
G01X2825Y10675D02*
G01X3009Y10675D01*
G01X3069Y10655D01*
G01X3090Y10635D01*
G01X3110Y10594D01*
G01X3110Y10553D01*
G01X3090Y10512D01*
G01X3069Y10491D01*
G01X3009Y10471D01*
G01X2825Y10471D01*
G01X2968Y10471D02*
G01X3110Y10246D01*
G01X3511Y10532D02*
G01X3492Y10471D01*
G01X3451Y10430D01*
G01X3389Y10410D01*
G01X3368Y10410D01*
G01X3307Y10430D01*
G01X3267Y10471D01*
G01X3246Y10532D01*
G01X3246Y10553D01*
G01X3267Y10614D01*
G01X3307Y10655D01*
G01X3368Y10675D01*
G01X3389Y10675D01*
G01X3451Y10655D01*
G01X3492Y10614D01*
G01X3511Y10532D01*
G01X3511Y10430D01*
G01X3492Y10328D01*
G01X3451Y10266D01*
G01X3389Y10246D01*
G01X3348Y10246D01*
G01X3286Y10266D01*
G01X3267Y10307D01*
G01X12800Y12825D02*
G01X12800Y12519D01*
G01X12820Y12457D01*
G01X12861Y12416D01*
G01X12923Y12396D01*
G01X12964Y12396D01*
G01X13025Y12416D01*
G01X13066Y12457D01*
G01X13086Y12519D01*
G01X13086Y12825D01*
G01X13242Y12723D02*
G01X13242Y12744D01*
G01X13262Y12785D01*
G01X13283Y12805D01*
G01X13324Y12825D01*
G01X13405Y12825D01*
G01X13446Y12805D01*
G01X13467Y12785D01*
G01X13487Y12744D01*
G01X13487Y12703D01*
G01X13467Y12662D01*
G01X13426Y12600D01*
G01X13221Y12396D01*
G01X13508Y12396D01*
G01X12551Y15694D02*
G01X12530Y15735D01*
G01X12489Y15776D01*
G01X12449Y15796D01*
G01X12367Y15796D01*
G01X12326Y15776D01*
G01X12285Y15735D01*
G01X12264Y15694D01*
G01X12244Y15633D01*
G01X12244Y15531D01*
G01X12264Y15469D01*
G01X12285Y15428D01*
G01X12326Y15387D01*
G01X12367Y15367D01*
G01X12449Y15367D01*
G01X12489Y15387D01*
G01X12530Y15428D01*
G01X12551Y15469D01*
G01X12890Y15796D02*
G01X12686Y15510D01*
G01X12993Y15510D01*
G01X12890Y15796D02*
G01X12890Y15367D01*
G01X25406Y9598D02*
G01X25385Y9639D01*
G01X25344Y9680D01*
G01X25305Y9700D01*
G01X25222Y9700D01*
G01X25181Y9680D01*
G01X25140Y9639D01*
G01X25119Y9598D01*
G01X25100Y9537D01*
G01X25100Y9435D01*
G01X25119Y9373D01*
G01X25140Y9332D01*
G01X25181Y9291D01*
G01X25222Y9271D01*
G01X25305Y9271D01*
G01X25344Y9291D01*
G01X25385Y9332D01*
G01X25406Y9373D01*
G01X25542Y9619D02*
G01X25582Y9639D01*
G01X25643Y9700D01*
G01X25643Y9271D01*
G01X26025Y9639D02*
G01X26003Y9680D01*
G01X25943Y9700D01*
G01X25902Y9700D01*
G01X25839Y9680D01*
G01X25800Y9619D01*
G01X25778Y9516D01*
G01X25778Y9414D01*
G01X25800Y9332D01*
G01X25839Y9291D01*
G01X25902Y9271D01*
G01X25922Y9271D01*
G01X25984Y9291D01*
G01X26025Y9332D01*
G01X26044Y9394D01*
G01X26044Y9414D01*
G01X26025Y9475D01*
G01X25984Y9516D01*
G01X25922Y9537D01*
G01X25902Y9537D01*
G01X25839Y9516D01*
G01X25800Y9475D01*
G01X25778Y9414D01*
G01X23525Y2625D02*
G01X23525Y2196D01*
G01X23525Y2625D02*
G01X23709Y2625D01*
G01X23769Y2605D01*
G01X23790Y2585D01*
G01X23810Y2544D01*
G01X23810Y2503D01*
G01X23790Y2462D01*
G01X23769Y2441D01*
G01X23709Y2421D01*
G01X23525Y2421D01*
G01X23668Y2421D02*
G01X23810Y2196D01*
G01X23967Y2523D02*
G01X23967Y2544D01*
G01X23986Y2585D01*
G01X24007Y2605D01*
G01X24048Y2625D01*
G01X24130Y2625D01*
G01X24171Y2605D01*
G01X24192Y2585D01*
G01X24211Y2544D01*
G01X24211Y2503D01*
G01X24192Y2462D01*
G01X24151Y2400D01*
G01X23946Y2196D01*
G01X24232Y2196D01*
G01X24613Y2625D02*
G01X24409Y2625D01*
G01X24388Y2441D01*
G01X24409Y2462D01*
G01X24469Y2482D01*
G01X24531Y2482D01*
G01X24593Y2462D01*
G01X24634Y2421D01*
G01X24653Y2360D01*
G01X24653Y2319D01*
G01X24634Y2257D01*
G01X24593Y2216D01*
G01X24531Y2196D01*
G01X24469Y2196D01*
G01X24409Y2216D01*
G01X24388Y2237D01*
G01X24368Y2278D01*
G01X27212Y3798D02*
G01X27191Y3839D01*
G01X27150Y3880D01*
G01X27110Y3900D01*
G01X27028Y3900D01*
G01X26987Y3880D01*
G01X26946Y3839D01*
G01X26925Y3798D01*
G01X26905Y3737D01*
G01X26905Y3635D01*
G01X26925Y3573D01*
G01X26946Y3532D01*
G01X26987Y3491D01*
G01X27028Y3471D01*
G01X27110Y3471D01*
G01X27150Y3491D01*
G01X27191Y3532D01*
G01X27212Y3573D01*
G01X27347Y3819D02*
G01X27388Y3839D01*
G01X27449Y3900D01*
G01X27449Y3471D01*
G01X27850Y3757D02*
G01X27830Y3696D01*
G01X27789Y3655D01*
G01X27727Y3635D01*
G01X27707Y3635D01*
G01X27645Y3655D01*
G01X27605Y3696D01*
G01X27584Y3757D01*
G01X27584Y3778D01*
G01X27605Y3839D01*
G01X27645Y3880D01*
G01X27707Y3900D01*
G01X27727Y3900D01*
G01X27789Y3880D01*
G01X27830Y3839D01*
G01X27850Y3757D01*
G01X27850Y3655D01*
G01X27830Y3553D01*
G01X27789Y3491D01*
G01X27727Y3471D01*
G01X27686Y3471D01*
G01X27625Y3491D01*
G01X27605Y3532D01*
G01X25681Y4448D02*
G01X25660Y4489D01*
G01X25619Y4530D01*
G01X25580Y4550D01*
G01X25497Y4550D01*
G01X25456Y4530D01*
G01X25415Y4489D01*
G01X25394Y4448D01*
G01X25375Y4387D01*
G01X25375Y4285D01*
G01X25394Y4223D01*
G01X25415Y4182D01*
G01X25456Y4141D01*
G01X25497Y4121D01*
G01X25580Y4121D01*
G01X25619Y4141D01*
G01X25660Y4182D01*
G01X25681Y4223D01*
G01X25836Y4448D02*
G01X25836Y4469D01*
G01X25857Y4510D01*
G01X25877Y4530D01*
G01X25918Y4550D01*
G01X26001Y4550D01*
G01X26042Y4530D01*
G01X26061Y4510D01*
G01X26082Y4469D01*
G01X26082Y4428D01*
G01X26061Y4387D01*
G01X26021Y4325D01*
G01X25817Y4121D01*
G01X26102Y4121D01*
G01X26360Y4550D02*
G01X26300Y4530D01*
G01X26259Y4469D01*
G01X26238Y4366D01*
G01X26238Y4305D01*
G01X26259Y4203D01*
G01X26300Y4141D01*
G01X26360Y4121D01*
G01X26402Y4121D01*
G01X26463Y4141D01*
G01X26503Y4203D01*
G01X26525Y4305D01*
G01X26525Y4366D01*
G01X26503Y4469D01*
G01X26463Y4530D01*
G01X26402Y4550D01*
G01X26360Y4550D01*
G01X19751Y3867D02*
G01X19710Y3846D01*
G01X19669Y3805D01*
G01X19649Y3765D01*
G01X19649Y3683D01*
G01X19669Y3642D01*
G01X19710Y3601D01*
G01X19751Y3580D01*
G01X19812Y3560D01*
G01X19914Y3560D01*
G01X19976Y3580D01*
G01X20017Y3601D01*
G01X20058Y3642D01*
G01X20078Y3683D01*
G01X20078Y3765D01*
G01X20058Y3805D01*
G01X20017Y3846D01*
G01X19976Y3867D01*
G01X19730Y4002D02*
G01X19710Y4043D01*
G01X19649Y4104D01*
G01X20078Y4104D01*
G01X19649Y4525D02*
G01X20078Y4321D01*
G01X19649Y4239D02*
G01X19649Y4525D01*
G01X20451Y3842D02*
G01X20410Y3821D01*
G01X20369Y3780D01*
G01X20349Y3740D01*
G01X20349Y3658D01*
G01X20369Y3617D01*
G01X20410Y3576D01*
G01X20451Y3555D01*
G01X20512Y3535D01*
G01X20614Y3535D01*
G01X20676Y3555D01*
G01X20717Y3576D01*
G01X20758Y3617D01*
G01X20778Y3658D01*
G01X20778Y3740D01*
G01X20758Y3780D01*
G01X20717Y3821D01*
G01X20676Y3842D01*
G01X20430Y3977D02*
G01X20410Y4018D01*
G01X20349Y4079D01*
G01X20778Y4079D01*
G01X20349Y4316D02*
G01X20369Y4255D01*
G01X20410Y4235D01*
G01X20451Y4235D01*
G01X20492Y4255D01*
G01X20512Y4296D01*
G01X20533Y4378D01*
G01X20553Y4439D01*
G01X20594Y4480D01*
G01X20635Y4500D01*
G01X20696Y4500D01*
G01X20737Y4480D01*
G01X20758Y4460D01*
G01X20778Y4398D01*
G01X20778Y4316D01*
G01X20758Y4255D01*
G01X20737Y4235D01*
G01X20696Y4214D01*
G01X20635Y4214D01*
G01X20594Y4235D01*
G01X20553Y4275D01*
G01X20533Y4337D01*
G01X20512Y4419D01*
G01X20492Y4460D01*
G01X20451Y4480D01*
G01X20410Y4480D01*
G01X20369Y4460D01*
G01X20349Y4398D01*
G01X20349Y4316D01*
G01X27999Y2921D02*
G01X28428Y2921D01*
G01X27999Y2921D02*
G01X27999Y3105D01*
G01X28019Y3166D01*
G01X28039Y3187D01*
G01X28080Y3207D01*
G01X28121Y3207D01*
G01X28162Y3187D01*
G01X28183Y3166D01*
G01X28203Y3105D01*
G01X28203Y2921D01*
G01X28203Y3064D02*
G01X28428Y3207D01*
G01X27999Y3383D02*
G01X27999Y3608D01*
G01X28162Y3486D01*
G01X28162Y3547D01*
G01X28183Y3588D01*
G01X28203Y3608D01*
G01X28264Y3629D01*
G01X28305Y3629D01*
G01X28367Y3608D01*
G01X28408Y3567D01*
G01X28428Y3506D01*
G01X28428Y3445D01*
G01X28408Y3383D01*
G01X28387Y3363D01*
G01X28346Y3342D01*
G01X28101Y3784D02*
G01X28080Y3784D01*
G01X28039Y3805D01*
G01X28019Y3825D01*
G01X27999Y3866D01*
G01X27999Y3948D01*
G01X28019Y3989D01*
G01X28039Y4009D01*
G01X28080Y4030D01*
G01X28121Y4030D01*
G01X28162Y4009D01*
G01X28224Y3968D01*
G01X28428Y3764D01*
G01X28428Y4050D01*
G01X18674Y2046D02*
G01X19103Y2046D01*
G01X18674Y2046D02*
G01X18674Y2230D01*
G01X18694Y2291D01*
G01X18714Y2312D01*
G01X18755Y2332D01*
G01X18796Y2332D01*
G01X18837Y2312D01*
G01X18858Y2291D01*
G01X18878Y2230D01*
G01X18878Y2046D01*
G01X18878Y2189D02*
G01X19103Y2332D01*
G01X18674Y2508D02*
G01X18674Y2733D01*
G01X18837Y2611D01*
G01X18837Y2672D01*
G01X18858Y2713D01*
G01X18878Y2733D01*
G01X18939Y2754D01*
G01X18980Y2754D01*
G01X19042Y2733D01*
G01X19083Y2692D01*
G01X19103Y2631D01*
G01X19103Y2570D01*
G01X19083Y2508D01*
G01X19062Y2488D01*
G01X19021Y2467D01*
G01X18674Y2930D02*
G01X18674Y3155D01*
G01X18837Y3032D01*
G01X18837Y3093D01*
G01X18858Y3134D01*
G01X18878Y3155D01*
G01X18939Y3175D01*
G01X18980Y3175D01*
G01X19042Y3155D01*
G01X19083Y3114D01*
G01X19103Y3052D01*
G01X19103Y2991D01*
G01X19083Y2930D01*
G01X19062Y2909D01*
G01X19021Y2889D01*
G01X21724Y2321D02*
G01X22153Y2321D01*
G01X21724Y2321D02*
G01X21724Y2505D01*
G01X21744Y2566D01*
G01X21764Y2587D01*
G01X21805Y2607D01*
G01X21846Y2607D01*
G01X21887Y2587D01*
G01X21908Y2566D01*
G01X21928Y2505D01*
G01X21928Y2321D01*
G01X21928Y2464D02*
G01X22153Y2607D01*
G01X21724Y2783D02*
G01X21724Y3008D01*
G01X21887Y2886D01*
G01X21887Y2947D01*
G01X21908Y2988D01*
G01X21928Y3008D01*
G01X21989Y3029D01*
G01X22030Y3029D01*
G01X22092Y3008D01*
G01X22133Y2967D01*
G01X22153Y2906D01*
G01X22153Y2845D01*
G01X22133Y2783D01*
G01X22112Y2763D01*
G01X22071Y2742D01*
G01X21724Y3286D02*
G01X21744Y3225D01*
G01X21805Y3184D01*
G01X21908Y3164D01*
G01X21969Y3164D01*
G01X22071Y3184D01*
G01X22133Y3225D01*
G01X22153Y3286D01*
G01X22153Y3327D01*
G01X22133Y3389D01*
G01X22071Y3430D01*
G01X21969Y3450D01*
G01X21908Y3450D01*
G01X21805Y3430D01*
G01X21744Y3389D01*
G01X21724Y3327D01*
G01X21724Y3286D01*
G01X15890Y16028D02*
G01X16319Y16028D01*
G01X15890Y16028D02*
G01X15890Y16212D01*
G01X15910Y16273D01*
G01X15930Y16294D01*
G01X15971Y16314D01*
G01X16012Y16314D01*
G01X16053Y16294D01*
G01X16074Y16273D01*
G01X16094Y16212D01*
G01X16094Y16028D01*
G01X16094Y16171D02*
G01X16319Y16314D01*
G01X15992Y16470D02*
G01X15971Y16470D01*
G01X15930Y16490D01*
G01X15910Y16511D01*
G01X15890Y16552D01*
G01X15890Y16633D01*
G01X15910Y16674D01*
G01X15930Y16695D01*
G01X15971Y16715D01*
G01X16012Y16715D01*
G01X16053Y16695D01*
G01X16115Y16654D01*
G01X16319Y16449D01*
G01X16319Y16736D01*
G01X15971Y16871D02*
G01X15951Y16912D01*
G01X15890Y16973D01*
G01X16319Y16973D01*
G01X2325Y17050D02*
G01X2325Y16621D01*
G01X2325Y17050D02*
G01X2509Y17050D01*
G01X2569Y17030D01*
G01X2590Y17010D01*
G01X2610Y16969D01*
G01X2610Y16928D01*
G01X2590Y16887D01*
G01X2569Y16866D01*
G01X2509Y16846D01*
G01X2325Y16846D01*
G01X2468Y16846D02*
G01X2610Y16621D01*
G01X2767Y16948D02*
G01X2767Y16969D01*
G01X2786Y17010D01*
G01X2807Y17030D01*
G01X2848Y17050D01*
G01X2930Y17050D01*
G01X2971Y17030D01*
G01X2992Y17010D01*
G01X3011Y16969D01*
G01X3011Y16928D01*
G01X2992Y16887D01*
G01X2951Y16825D01*
G01X2746Y16621D01*
G01X3032Y16621D01*
G01X3453Y17050D02*
G01X3250Y16621D01*
G01X3168Y17050D02*
G01X3453Y17050D01*
G01X6701Y14982D02*
G01X6660Y14961D01*
G01X6619Y14919D01*
G01X6599Y14880D01*
G01X6599Y14798D01*
G01X6619Y14757D01*
G01X6660Y14715D01*
G01X6701Y14694D01*
G01X6762Y14675D01*
G01X6864Y14675D01*
G01X6926Y14694D01*
G01X6967Y14715D01*
G01X7008Y14757D01*
G01X7028Y14798D01*
G01X7028Y14880D01*
G01X7008Y14919D01*
G01X6967Y14961D01*
G01X6926Y14982D01*
G01X6701Y15136D02*
G01X6680Y15136D01*
G01X6639Y15157D01*
G01X6619Y15178D01*
G01X6599Y15219D01*
G01X6599Y15301D01*
G01X6619Y15342D01*
G01X6639Y15361D01*
G01X6680Y15382D01*
G01X6721Y15382D01*
G01X6762Y15361D01*
G01X6824Y15321D01*
G01X7028Y15117D01*
G01X7028Y15403D01*
G01X6701Y15559D02*
G01X6680Y15559D01*
G01X6639Y15578D01*
G01X6619Y15600D01*
G01X6599Y15640D01*
G01X6599Y15721D01*
G01X6619Y15763D01*
G01X6639Y15784D01*
G01X6680Y15803D01*
G01X6721Y15803D01*
G01X6762Y15784D01*
G01X6824Y15742D01*
G01X7028Y15538D01*
G01X7028Y15825D01*
G01X20424Y11621D02*
G01X20853Y11621D01*
G01X20424Y11621D02*
G01X20424Y11805D01*
G01X20444Y11866D01*
G01X20464Y11887D01*
G01X20505Y11907D01*
G01X20546Y11907D01*
G01X20587Y11887D01*
G01X20608Y11866D01*
G01X20628Y11805D01*
G01X20628Y11621D01*
G01X20628Y11764D02*
G01X20853Y11907D01*
G01X20424Y12247D02*
G01X20710Y12042D01*
G01X20710Y12349D01*
G01X20424Y12247D02*
G01X20853Y12247D01*
G01X21421Y11550D02*
G01X21850Y11550D01*
G01X21421Y11550D02*
G01X21421Y11734D01*
G01X21441Y11794D01*
G01X21461Y11815D01*
G01X21502Y11836D01*
G01X21543Y11836D01*
G01X21584Y11815D01*
G01X21605Y11794D01*
G01X21625Y11734D01*
G01X21625Y11550D01*
G01X21625Y11692D02*
G01X21850Y11836D01*
G01X21421Y12011D02*
G01X21421Y12236D01*
G01X21584Y12115D01*
G01X21584Y12176D01*
G01X21605Y12217D01*
G01X21625Y12236D01*
G01X21686Y12257D01*
G01X21727Y12257D01*
G01X21789Y12236D01*
G01X21830Y12196D01*
G01X21850Y12134D01*
G01X21850Y12073D01*
G01X21830Y12011D01*
G01X21809Y11992D01*
G01X21768Y11971D01*
G01X6849Y1471D02*
G01X7278Y1471D01*
G01X6849Y1471D02*
G01X6849Y1655D01*
G01X6869Y1716D01*
G01X6889Y1737D01*
G01X6930Y1757D01*
G01X6971Y1757D01*
G01X7012Y1737D01*
G01X7033Y1716D01*
G01X7053Y1655D01*
G01X7053Y1471D01*
G01X7053Y1614D02*
G01X7278Y1757D01*
G01X6849Y1933D02*
G01X6849Y2158D01*
G01X7012Y2036D01*
G01X7012Y2097D01*
G01X7033Y2138D01*
G01X7053Y2158D01*
G01X7114Y2179D01*
G01X7155Y2179D01*
G01X7217Y2158D01*
G01X7258Y2117D01*
G01X7278Y2056D01*
G01X7278Y1995D01*
G01X7258Y1933D01*
G01X7237Y1913D01*
G01X7196Y1892D01*
G01X6849Y2600D02*
G01X7278Y2396D01*
G01X6849Y2314D02*
G01X6849Y2600D01*
G01X1025Y2664D02*
G01X1454Y2664D01*
G01X1025Y2664D02*
G01X1025Y2848D01*
G01X1045Y2909D01*
G01X1065Y2930D01*
G01X1106Y2950D01*
G01X1147Y2950D01*
G01X1188Y2930D01*
G01X1209Y2909D01*
G01X1229Y2848D01*
G01X1229Y2664D02*
G01X1229Y2848D01*
G01X1250Y2909D01*
G01X1270Y2930D01*
G01X1311Y2950D01*
G01X1372Y2950D01*
G01X1413Y2930D01*
G01X1434Y2909D01*
G01X1454Y2848D01*
G01X1454Y2664D01*
G01X1025Y3085D02*
G01X1331Y3085D01*
G01X1393Y3106D01*
G01X1434Y3147D01*
G01X1454Y3208D01*
G01X1454Y3249D01*
G01X1434Y3310D01*
G01X1393Y3351D01*
G01X1331Y3372D01*
G01X1025Y3372D01*
G01X1025Y3793D02*
G01X1454Y3507D01*
G01X1025Y3507D02*
G01X1025Y3793D01*
G01X1454Y3507D02*
G01X1454Y3793D01*
G01X1025Y4214D02*
G01X1454Y3928D01*
G01X1025Y3928D02*
G01X1025Y4214D01*
G01X1454Y3928D02*
G01X1454Y4214D01*
G01X1025Y4349D02*
G01X1454Y4349D01*
G01X1025Y4349D02*
G01X1025Y4615D01*
G01X1229Y4349D02*
G01X1229Y4513D01*
G01X1454Y4349D02*
G01X1454Y4615D01*
G01X1025Y4750D02*
G01X1454Y4750D01*
G01X1025Y4750D02*
G01X1025Y4934D01*
G01X1045Y4996D01*
G01X1065Y5016D01*
G01X1106Y5037D01*
G01X1147Y5037D01*
G01X1188Y5016D01*
G01X1209Y4996D01*
G01X1229Y4934D01*
G01X1229Y4750D01*
G01X1229Y4894D02*
G01X1454Y5037D01*
G01X1106Y5172D02*
G01X1086Y5213D01*
G01X1025Y5274D01*
G01X1454Y5274D01*
G01X7974Y3233D02*
G01X7994Y3192D01*
G01X8035Y3151D01*
G01X8076Y3130D01*
G01X8137Y3110D01*
G01X8239Y3110D01*
G01X8301Y3130D01*
G01X8342Y3151D01*
G01X8383Y3192D01*
G01X8403Y3233D01*
G01X8403Y3315D01*
G01X8383Y3355D01*
G01X8342Y3396D01*
G01X8301Y3417D01*
G01X8239Y3437D01*
G01X8137Y3437D01*
G01X8076Y3417D01*
G01X8035Y3396D01*
G01X7994Y3355D01*
G01X7974Y3315D01*
G01X7974Y3233D01*
G01X8321Y3294D02*
G01X8444Y3417D01*
G01X8055Y3572D02*
G01X8035Y3613D01*
G01X7974Y3675D01*
G01X8403Y3675D01*
G01X9175Y2925D02*
G01X9175Y2496D01*
G01X9175Y2925D02*
G01X9359Y2925D01*
G01X9420Y2905D01*
G01X9441Y2885D01*
G01X9461Y2844D01*
G01X9461Y2803D01*
G01X9441Y2762D01*
G01X9420Y2741D01*
G01X9359Y2721D01*
G01X9175Y2721D01*
G01X9318Y2721D02*
G01X9461Y2496D01*
G01X9637Y2925D02*
G01X9862Y2925D01*
G01X9740Y2762D01*
G01X9801Y2762D01*
G01X9842Y2741D01*
G01X9862Y2721D01*
G01X9883Y2660D01*
G01X9883Y2619D01*
G01X9862Y2557D01*
G01X9821Y2516D01*
G01X9760Y2496D01*
G01X9699Y2496D01*
G01X9637Y2516D01*
G01X9617Y2537D01*
G01X9596Y2578D01*
G01X10120Y2925D02*
G01X10059Y2905D01*
G01X10038Y2864D01*
G01X10038Y2823D01*
G01X10059Y2782D01*
G01X10100Y2762D01*
G01X10181Y2741D01*
G01X10243Y2721D01*
G01X10284Y2680D01*
G01X10304Y2639D01*
G01X10304Y2578D01*
G01X10284Y2537D01*
G01X10263Y2516D01*
G01X10202Y2496D01*
G01X10120Y2496D01*
G01X10059Y2516D01*
G01X10038Y2537D01*
G01X10018Y2578D01*
G01X10018Y2639D01*
G01X10038Y2680D01*
G01X10079Y2721D01*
G01X10140Y2741D01*
G01X10222Y2762D01*
G01X10263Y2782D01*
G01X10284Y2823D01*
G01X10284Y2864D01*
G01X10263Y2905D01*
G01X10202Y2925D01*
G01X10120Y2925D01*
G01X17951Y6037D02*
G01X17910Y6016D01*
G01X17869Y5975D01*
G01X17849Y5935D01*
G01X17849Y5853D01*
G01X17869Y5812D01*
G01X17910Y5771D01*
G01X17951Y5750D01*
G01X18012Y5730D01*
G01X18114Y5730D01*
G01X18176Y5750D01*
G01X18217Y5771D01*
G01X18258Y5812D01*
G01X18278Y5853D01*
G01X18278Y5935D01*
G01X18258Y5975D01*
G01X18217Y6016D01*
G01X18176Y6037D01*
G01X17951Y6192D02*
G01X17930Y6192D01*
G01X17889Y6213D01*
G01X17869Y6233D01*
G01X17849Y6274D01*
G01X17849Y6356D01*
G01X17869Y6397D01*
G01X17889Y6417D01*
G01X17930Y6438D01*
G01X17971Y6438D01*
G01X18012Y6417D01*
G01X18074Y6376D01*
G01X18278Y6172D01*
G01X18278Y6458D01*
G01X17849Y6798D02*
G01X18135Y6593D01*
G01X18135Y6900D01*
G01X17849Y6798D02*
G01X18278Y6798D01*
G01X15090Y5217D02*
G01X15069Y5259D01*
G01X15028Y5300D01*
G01X14988Y5319D01*
G01X14906Y5319D01*
G01X14865Y5300D01*
G01X14824Y5259D01*
G01X14803Y5217D01*
G01X14783Y5157D01*
G01X14783Y5055D01*
G01X14803Y4992D01*
G01X14824Y4951D01*
G01X14865Y4911D01*
G01X14906Y4890D01*
G01X14988Y4890D01*
G01X15028Y4911D01*
G01X15069Y4951D01*
G01X15090Y4992D01*
G01X15245Y5217D02*
G01X15245Y5238D01*
G01X15266Y5280D01*
G01X15286Y5300D01*
G01X15327Y5319D01*
G01X15409Y5319D01*
G01X15450Y5300D01*
G01X15470Y5280D01*
G01X15491Y5238D01*
G01X15491Y5198D01*
G01X15470Y5157D01*
G01X15429Y5094D01*
G01X15225Y4890D01*
G01X15511Y4890D01*
G01X15933Y5319D02*
G01X15728Y4890D01*
G01X15646Y5319D02*
G01X15933Y5319D01*
G01X26180Y6925D02*
G01X26485Y6925D01*
G01X26547Y6944D01*
G01X26589Y6986D01*
G01X26609Y7048D01*
G01X26609Y7088D01*
G01X26589Y7150D01*
G01X26547Y7190D01*
G01X26485Y7211D01*
G01X26180Y7211D01*
G01X26260Y7346D02*
G01X26240Y7386D01*
G01X26180Y7448D01*
G01X26609Y7448D01*
G01X26180Y7828D02*
G01X26180Y7625D01*
G01X26364Y7603D01*
G01X26343Y7625D01*
G01X26322Y7686D01*
G01X26322Y7746D01*
G01X26343Y7809D01*
G01X26384Y7850D01*
G01X26444Y7869D01*
G01X26485Y7869D01*
G01X26547Y7850D01*
G01X26589Y7809D01*
G01X26609Y7746D01*
G01X26609Y7686D01*
G01X26589Y7625D01*
G01X26568Y7603D01*
G01X26527Y7584D01*
G01X16900Y6050D02*
G01X16900Y5744D01*
G01X16919Y5682D01*
G01X16960Y5641D01*
G01X17022Y5621D01*
G01X17064Y5621D01*
G01X17125Y5641D01*
G01X17165Y5682D01*
G01X17185Y5744D01*
G01X17185Y6050D01*
G01X17607Y6050D02*
G01X17402Y5621D01*
G01X17321Y6050D02*
G01X17607Y6050D01*
G01X9081Y13798D02*
G01X9060Y13839D01*
G01X9019Y13880D01*
G01X8980Y13900D01*
G01X8897Y13900D01*
G01X8856Y13880D01*
G01X8815Y13839D01*
G01X8794Y13798D01*
G01X8775Y13737D01*
G01X8775Y13635D01*
G01X8794Y13573D01*
G01X8815Y13532D01*
G01X8856Y13491D01*
G01X8897Y13471D01*
G01X8980Y13471D01*
G01X9019Y13491D01*
G01X9060Y13532D01*
G01X9081Y13573D01*
G01X9236Y13798D02*
G01X9236Y13819D01*
G01X9257Y13860D01*
G01X9277Y13880D01*
G01X9318Y13900D01*
G01X9401Y13900D01*
G01X9442Y13880D01*
G01X9461Y13860D01*
G01X9482Y13819D01*
G01X9482Y13778D01*
G01X9461Y13737D01*
G01X9421Y13675D01*
G01X9217Y13471D01*
G01X9502Y13471D01*
G01X9739Y13900D02*
G01X9678Y13880D01*
G01X9659Y13839D01*
G01X9659Y13798D01*
G01X9678Y13757D01*
G01X9719Y13737D01*
G01X9802Y13716D01*
G01X9863Y13696D01*
G01X9903Y13655D01*
G01X9925Y13614D01*
G01X9925Y13553D01*
G01X9903Y13512D01*
G01X9884Y13491D01*
G01X9822Y13471D01*
G01X9739Y13471D01*
G01X9678Y13491D01*
G01X9659Y13512D01*
G01X9638Y13553D01*
G01X9638Y13614D01*
G01X9659Y13655D01*
G01X9700Y13696D01*
G01X9760Y13716D01*
G01X9843Y13737D01*
G01X9884Y13757D01*
G01X9903Y13798D01*
G01X9903Y13839D01*
G01X9884Y13880D01*
G01X9822Y13900D01*
G01X9739Y13900D01*
G01X14281Y6487D02*
G01X14260Y6528D01*
G01X14219Y6569D01*
G01X14180Y6589D01*
G01X14097Y6589D01*
G01X14056Y6569D01*
G01X14015Y6528D01*
G01X13994Y6487D01*
G01X13975Y6426D01*
G01X13975Y6324D01*
G01X13994Y6262D01*
G01X14015Y6221D01*
G01X14056Y6180D01*
G01X14097Y6160D01*
G01X14180Y6160D01*
G01X14219Y6180D01*
G01X14260Y6221D01*
G01X14281Y6262D01*
G01X14436Y6487D02*
G01X14436Y6508D01*
G01X14457Y6549D01*
G01X14477Y6569D01*
G01X14518Y6589D01*
G01X14601Y6589D01*
G01X14642Y6569D01*
G01X14661Y6549D01*
G01X14682Y6508D01*
G01X14682Y6467D01*
G01X14661Y6426D01*
G01X14621Y6364D01*
G01X14417Y6160D01*
G01X14702Y6160D01*
G01X15103Y6446D02*
G01X15084Y6385D01*
G01X15043Y6344D01*
G01X14981Y6324D01*
G01X14960Y6324D01*
G01X14900Y6344D01*
G01X14859Y6385D01*
G01X14838Y6446D01*
G01X14838Y6467D01*
G01X14859Y6528D01*
G01X14900Y6569D01*
G01X14960Y6589D01*
G01X14981Y6589D01*
G01X15043Y6569D01*
G01X15084Y6528D01*
G01X15103Y6446D01*
G01X15103Y6344D01*
G01X15084Y6242D01*
G01X15043Y6180D01*
G01X14981Y6160D01*
G01X14939Y6160D01*
G01X14878Y6180D01*
G01X14859Y6221D01*
G01X15326Y10892D02*
G01X15285Y10871D01*
G01X15244Y10830D01*
G01X15224Y10790D01*
G01X15224Y10708D01*
G01X15244Y10667D01*
G01X15285Y10626D01*
G01X15326Y10605D01*
G01X15387Y10585D01*
G01X15489Y10585D01*
G01X15551Y10605D01*
G01X15592Y10626D01*
G01X15633Y10667D01*
G01X15653Y10708D01*
G01X15653Y10790D01*
G01X15633Y10830D01*
G01X15592Y10871D01*
G01X15551Y10892D01*
G01X15224Y11068D02*
G01X15224Y11293D01*
G01X15387Y11170D01*
G01X15387Y11231D01*
G01X15408Y11272D01*
G01X15428Y11293D01*
G01X15489Y11313D01*
G01X15530Y11313D01*
G01X15592Y11293D01*
G01X15633Y11252D01*
G01X15653Y11190D01*
G01X15653Y11129D01*
G01X15633Y11068D01*
G01X15612Y11047D01*
G01X15571Y11027D01*
G01X15305Y11448D02*
G01X15285Y11489D01*
G01X15224Y11550D01*
G01X15653Y11550D01*
G01X10650Y6319D02*
G01X10935Y5890D01*
G01X10935Y6319D02*
G01X10650Y5890D01*
G01X11092Y6217D02*
G01X11092Y6238D01*
G01X11111Y6280D01*
G01X11132Y6300D01*
G01X11173Y6319D01*
G01X11255Y6319D01*
G01X11296Y6300D01*
G01X11317Y6280D01*
G01X11336Y6238D01*
G01X11336Y6198D01*
G01X11317Y6157D01*
G01X11276Y6094D01*
G01X11071Y5890D01*
G01X11357Y5890D01*
G01X9326Y4078D02*
G01X9285Y4057D01*
G01X9244Y4016D01*
G01X9224Y3976D01*
G01X9224Y3894D01*
G01X9244Y3853D01*
G01X9285Y3812D01*
G01X9326Y3791D01*
G01X9387Y3771D01*
G01X9489Y3771D01*
G01X9551Y3791D01*
G01X9592Y3812D01*
G01X9633Y3853D01*
G01X9653Y3894D01*
G01X9653Y3976D01*
G01X9633Y4016D01*
G01X9592Y4057D01*
G01X9551Y4078D01*
G01X9224Y4458D02*
G01X9224Y4254D01*
G01X9408Y4233D01*
G01X9387Y4254D01*
G01X9367Y4315D01*
G01X9367Y4376D01*
G01X9387Y4438D01*
G01X9428Y4479D01*
G01X9489Y4499D01*
G01X9530Y4499D01*
G01X9592Y4479D01*
G01X9633Y4438D01*
G01X9653Y4376D01*
G01X9653Y4315D01*
G01X9633Y4254D01*
G01X9612Y4233D01*
G01X9571Y4213D01*
G01X12051Y4053D02*
G01X12010Y4032D01*
G01X11969Y3991D01*
G01X11949Y3951D01*
G01X11949Y3869D01*
G01X11969Y3828D01*
G01X12010Y3787D01*
G01X12051Y3766D01*
G01X12112Y3746D01*
G01X12214Y3746D01*
G01X12276Y3766D01*
G01X12317Y3787D01*
G01X12358Y3828D01*
G01X12378Y3869D01*
G01X12378Y3951D01*
G01X12358Y3991D01*
G01X12317Y4032D01*
G01X12276Y4053D01*
G01X11949Y4229D02*
G01X11949Y4454D01*
G01X12112Y4331D01*
G01X12112Y4392D01*
G01X12133Y4433D01*
G01X12153Y4454D01*
G01X12214Y4474D01*
G01X12255Y4474D01*
G01X12317Y4454D01*
G01X12358Y4413D01*
G01X12378Y4351D01*
G01X12378Y4290D01*
G01X12358Y4229D01*
G01X12337Y4208D01*
G01X12296Y4188D01*
G01X14531Y8217D02*
G01X14510Y8259D01*
G01X14469Y8300D01*
G01X14430Y8319D01*
G01X14347Y8319D01*
G01X14306Y8300D01*
G01X14265Y8259D01*
G01X14244Y8217D01*
G01X14225Y8157D01*
G01X14225Y8055D01*
G01X14244Y7992D01*
G01X14265Y7951D01*
G01X14306Y7911D01*
G01X14347Y7890D01*
G01X14430Y7890D01*
G01X14469Y7911D01*
G01X14510Y7951D01*
G01X14531Y7992D01*
G01X14707Y8319D02*
G01X14932Y8319D01*
G01X14810Y8157D01*
G01X14871Y8157D01*
G01X14911Y8136D01*
G01X14932Y8115D01*
G01X14952Y8055D01*
G01X14952Y8013D01*
G01X14932Y7951D01*
G01X14892Y7911D01*
G01X14830Y7890D01*
G01X14768Y7890D01*
G01X14707Y7911D01*
G01X14686Y7932D01*
G01X14667Y7973D01*
G01X15109Y8217D02*
G01X15109Y8238D01*
G01X15128Y8280D01*
G01X15150Y8300D01*
G01X15189Y8319D01*
G01X15272Y8319D01*
G01X15313Y8300D01*
G01X15334Y8280D01*
G01X15353Y8238D01*
G01X15353Y8198D01*
G01X15334Y8157D01*
G01X15293Y8094D01*
G01X15088Y7890D01*
G01X15375Y7890D01*
G01X34055Y4000D02*
G01X34484Y4000D01*
G01X34055Y4257D02*
G01X34075Y4217D01*
G01X34115Y4176D01*
G01X34156Y4155D01*
G01X34218Y4134D01*
G01X34319Y4134D01*
G01X34381Y4155D01*
G01X34422Y4176D01*
G01X34464Y4217D01*
G01X34484Y4257D01*
G01X34484Y4340D01*
G01X34464Y4380D01*
G01X34422Y4421D01*
G01X34381Y4442D01*
G01X34319Y4461D01*
G01X34218Y4461D01*
G01X34156Y4442D01*
G01X34115Y4421D01*
G01X34075Y4380D01*
G01X34055Y4340D01*
G01X34055Y4257D01*
G01X3550Y14800D02*
G01X3550Y14494D01*
G01X3569Y14432D01*
G01X3610Y14391D01*
G01X3672Y14371D01*
G01X3714Y14371D01*
G01X3775Y14391D01*
G01X3815Y14432D01*
G01X3835Y14494D01*
G01X3835Y14800D01*
G01X3971Y14719D02*
G01X4011Y14739D01*
G01X4073Y14800D01*
G01X4073Y14371D01*
G01X4331Y14800D02*
G01X4269Y14780D01*
G01X4228Y14719D01*
G01X4209Y14616D01*
G01X4209Y14555D01*
G01X4228Y14453D01*
G01X4269Y14391D01*
G01X4331Y14371D01*
G01X4372Y14371D01*
G01X4434Y14391D01*
G01X4475Y14453D01*
G01X4494Y14555D01*
G01X4494Y14616D01*
G01X4475Y14719D01*
G01X4434Y14780D01*
G01X4372Y14800D01*
G01X4331Y14800D01*
G01X5531Y15898D02*
G01X5510Y15939D01*
G01X5469Y15980D01*
G01X5430Y16000D01*
G01X5347Y16000D01*
G01X5306Y15980D01*
G01X5265Y15939D01*
G01X5244Y15898D01*
G01X5225Y15837D01*
G01X5225Y15735D01*
G01X5244Y15673D01*
G01X5265Y15632D01*
G01X5306Y15591D01*
G01X5347Y15571D01*
G01X5430Y15571D01*
G01X5469Y15591D01*
G01X5510Y15632D01*
G01X5531Y15673D01*
G01X5932Y15857D02*
G01X5911Y15796D01*
G01X5871Y15755D01*
G01X5810Y15735D01*
G01X5789Y15735D01*
G01X5727Y15755D01*
G01X5686Y15796D01*
G01X5667Y15857D01*
G01X5667Y15878D01*
G01X5686Y15939D01*
G01X5727Y15980D01*
G01X5789Y16000D01*
G01X5810Y16000D01*
G01X5871Y15980D01*
G01X5911Y15939D01*
G01X5932Y15857D01*
G01X5932Y15755D01*
G01X5911Y15653D01*
G01X5871Y15591D01*
G01X5810Y15571D01*
G01X5768Y15571D01*
G01X5707Y15591D01*
G01X5686Y15632D01*
G01X10700Y22844D02*
G01X10700Y22538D01*
G01X10719Y22477D01*
G01X10760Y22436D01*
G01X10822Y22415D01*
G01X10864Y22415D01*
G01X10925Y22436D01*
G01X10965Y22477D01*
G01X10985Y22538D01*
G01X10985Y22844D01*
G01X11121Y22763D02*
G01X11161Y22784D01*
G01X11223Y22844D01*
G01X11223Y22415D01*
G01X11359Y22763D02*
G01X11400Y22784D01*
G01X11460Y22844D01*
G01X11460Y22415D01*
G54D13*
G01X8500Y21300D02*
G01X8500Y20537D01*
G01X8500Y21300D02*
G01X8827Y21300D01*
G01X8935Y21264D01*
G01X8972Y21228D01*
G01X9009Y21155D01*
G01X9009Y21082D01*
G01X8972Y21009D01*
G01X8935Y20973D01*
G01X8827Y20937D01*
G01X8500Y20937D01*
G01X8755Y20937D02*
G01X9009Y20537D01*
G01X9248Y20828D02*
G01X9685Y20828D01*
G01X9685Y20900D01*
G01X9648Y20973D01*
G01X9613Y21009D01*
G01X9539Y21046D01*
G01X9431Y21046D01*
G01X9357Y21009D01*
G01X9285Y20937D01*
G01X9248Y20828D01*
G01X9248Y20755D01*
G01X9285Y20646D01*
G01X9357Y20573D01*
G01X9431Y20537D01*
G01X9539Y20537D01*
G01X9613Y20573D01*
G01X9685Y20646D01*
G01X10361Y21046D02*
G01X10361Y20464D01*
G01X10325Y20355D01*
G01X10289Y20319D01*
G01X10215Y20282D01*
G01X10106Y20282D01*
G01X10035Y20319D01*
G01X10361Y20937D02*
G01X10289Y21009D01*
G01X10215Y21046D01*
G01X10106Y21046D01*
G01X10035Y21009D01*
G01X9961Y20937D01*
G01X9925Y20828D01*
G01X9925Y20755D01*
G01X9961Y20646D01*
G01X10035Y20573D01*
G01X10106Y20537D01*
G01X10215Y20537D01*
G01X10289Y20573D01*
G01X10361Y20646D01*
G01X10675Y21300D02*
G01X11075Y21300D01*
G01X10856Y21009D01*
G01X10964Y21009D01*
G01X11038Y20973D01*
G01X11075Y20937D01*
G01X11110Y20828D01*
G01X11110Y20755D01*
G01X11075Y20646D01*
G01X11002Y20573D01*
G01X10893Y20537D01*
G01X10784Y20537D01*
G01X10675Y20573D01*
G01X10638Y20609D01*
G01X10602Y20682D01*
G01X11386Y20719D02*
G01X11351Y20682D01*
G01X11386Y20646D01*
G01X11423Y20682D01*
G01X11386Y20719D01*
G01X11735Y21300D02*
G01X12135Y21300D01*
G01X11918Y21009D01*
G01X12027Y21009D01*
G01X12100Y20973D01*
G01X12135Y20937D01*
G01X12172Y20828D01*
G01X12172Y20755D01*
G01X12135Y20646D01*
G01X12064Y20573D01*
G01X11955Y20537D01*
G01X11844Y20537D01*
G01X11735Y20573D01*
G01X11700Y20609D01*
G01X11664Y20682D01*
G01X12413Y21300D02*
G01X12703Y20537D01*
G01X12994Y21300D02*
G01X12703Y20537D01*
G54D66*
G01X7281Y6673D02*
G01X7260Y6714D01*
G01X7219Y6755D01*
G01X7180Y6775D01*
G01X7097Y6775D01*
G01X7056Y6755D01*
G01X7015Y6714D01*
G01X6994Y6673D01*
G01X6975Y6612D01*
G01X6975Y6510D01*
G01X6994Y6448D01*
G01X7015Y6407D01*
G01X7056Y6366D01*
G01X7097Y6346D01*
G01X7180Y6346D01*
G01X7219Y6366D01*
G01X7260Y6407D01*
G01X7281Y6448D01*
G01X7457Y6775D02*
G01X7682Y6775D01*
G01X7560Y6612D01*
G01X7621Y6612D01*
G01X7661Y6591D01*
G01X7682Y6571D01*
G01X7702Y6510D01*
G01X7702Y6469D01*
G01X7682Y6407D01*
G01X7642Y6366D01*
G01X7580Y6346D01*
G01X7518Y6346D01*
G01X7457Y6366D01*
G01X7436Y6387D01*
G01X7417Y6428D01*
G01X7960Y6775D02*
G01X7900Y6755D01*
G01X7859Y6694D01*
G01X7838Y6591D01*
G01X7838Y6530D01*
G01X7859Y6428D01*
G01X7900Y6366D01*
G01X7960Y6346D01*
G01X8002Y6346D01*
G01X8063Y6366D01*
G01X8103Y6428D01*
G01X8125Y6530D01*
G01X8125Y6591D01*
G01X8103Y6694D01*
G01X8063Y6755D01*
G01X8002Y6775D01*
G01X7960Y6775D01*
G01X10968Y14500D02*
G01X10968Y14071D01*
G01X10825Y14500D02*
G01X11110Y14500D01*
G01X11246Y14500D02*
G01X11246Y14071D01*
G01X11246Y14500D02*
G01X11430Y14500D01*
G01X11492Y14480D01*
G01X11511Y14460D01*
G01X11532Y14419D01*
G01X11532Y14357D01*
G01X11511Y14316D01*
G01X11492Y14296D01*
G01X11430Y14275D01*
G01X11246Y14275D01*
G01X11668Y13928D02*
G01X12035Y13928D01*
G01X12171Y14500D02*
G01X12171Y14071D01*
G01X12171Y14500D02*
G01X12335Y14071D01*
G01X12497Y14500D02*
G01X12335Y14071D01*
G01X12497Y14500D02*
G01X12497Y14071D01*
G01X12939Y14398D02*
G01X12919Y14439D01*
G01X12878Y14480D01*
G01X12838Y14500D01*
G01X12756Y14500D01*
G01X12714Y14480D01*
G01X12673Y14439D01*
G01X12653Y14398D01*
G01X12632Y14337D01*
G01X12632Y14235D01*
G01X12653Y14173D01*
G01X12673Y14132D01*
G01X12714Y14091D01*
G01X12756Y14071D01*
G01X12838Y14071D01*
G01X12878Y14091D01*
G01X12919Y14132D01*
G01X12939Y14173D01*
G01X13197Y14500D02*
G01X13156Y14480D01*
G01X13115Y14439D01*
G01X13094Y14398D01*
G01X13075Y14337D01*
G01X13075Y14235D01*
G01X13094Y14173D01*
G01X13115Y14132D01*
G01X13156Y14091D01*
G01X13197Y14071D01*
G01X13280Y14071D01*
G01X13319Y14091D01*
G01X13360Y14132D01*
G01X13381Y14173D01*
G01X13402Y14235D01*
G01X13402Y14337D01*
G01X13381Y14398D01*
G01X13360Y14439D01*
G01X13319Y14480D01*
G01X13280Y14500D01*
G01X13197Y14500D01*
G01X26343Y12050D02*
G01X26343Y11621D01*
G01X26200Y12050D02*
G01X26485Y12050D01*
G01X26621Y12050D02*
G01X26621Y11621D01*
G01X26621Y12050D02*
G01X26805Y12050D01*
G01X26867Y12030D01*
G01X26886Y12010D01*
G01X26907Y11969D01*
G01X26907Y11907D01*
G01X26886Y11866D01*
G01X26867Y11846D01*
G01X26805Y11825D01*
G01X26621Y11825D01*
G01X27043Y11478D02*
G01X27410Y11478D01*
G01X27546Y12050D02*
G01X27546Y11621D01*
G01X27546Y12050D02*
G01X27710Y11621D01*
G01X27872Y12050D02*
G01X27710Y11621D01*
G01X27872Y12050D02*
G01X27872Y11621D01*
G01X28007Y12050D02*
G01X28007Y11621D01*
G01X28430Y11989D02*
G01X28389Y12030D01*
G01X28327Y12050D01*
G01X28244Y12050D01*
G01X28184Y12030D01*
G01X28143Y11989D01*
G01X28143Y11948D01*
G01X28164Y11907D01*
G01X28184Y11887D01*
G01X28225Y11866D01*
G01X28347Y11825D01*
G01X28389Y11805D01*
G01X28409Y11785D01*
G01X28430Y11744D01*
G01X28430Y11682D01*
G01X28389Y11641D01*
G01X28327Y11621D01*
G01X28244Y11621D01*
G01X28184Y11641D01*
G01X28143Y11682D01*
G01X28686Y12050D02*
G01X28646Y12030D01*
G01X28605Y11989D01*
G01X28585Y11948D01*
G01X28564Y11887D01*
G01X28564Y11785D01*
G01X28585Y11723D01*
G01X28605Y11682D01*
G01X28646Y11641D01*
G01X28686Y11621D01*
G01X28768Y11621D01*
G01X28810Y11641D01*
G01X28851Y11682D01*
G01X28871Y11723D01*
G01X28892Y11785D01*
G01X28892Y11887D01*
G01X28871Y11948D01*
G01X28851Y11989D01*
G01X28810Y12030D01*
G01X28768Y12050D01*
G01X28686Y12050D01*
G01X25493Y10350D02*
G01X25493Y9921D01*
G01X25350Y10350D02*
G01X25635Y10350D01*
G01X25771Y10350D02*
G01X25771Y9921D01*
G01X25771Y10350D02*
G01X25955Y10350D01*
G01X26017Y10330D01*
G01X26036Y10310D01*
G01X26057Y10269D01*
G01X26057Y10207D01*
G01X26036Y10166D01*
G01X26017Y10146D01*
G01X25955Y10125D01*
G01X25771Y10125D01*
G01X26193Y9778D02*
G01X26560Y9778D01*
G01X26696Y10350D02*
G01X26696Y9921D01*
G01X26696Y10350D02*
G01X26860Y9921D01*
G01X27022Y10350D02*
G01X26860Y9921D01*
G01X27022Y10350D02*
G01X27022Y9921D01*
G01X27281Y10350D02*
G01X27239Y10330D01*
G01X27198Y10289D01*
G01X27178Y10248D01*
G01X27157Y10187D01*
G01X27157Y10085D01*
G01X27178Y10023D01*
G01X27198Y9982D01*
G01X27239Y9941D01*
G01X27281Y9921D01*
G01X27363Y9921D01*
G01X27403Y9941D01*
G01X27444Y9982D01*
G01X27464Y10023D01*
G01X27485Y10085D01*
G01X27485Y10187D01*
G01X27464Y10248D01*
G01X27444Y10289D01*
G01X27403Y10330D01*
G01X27363Y10350D01*
G01X27281Y10350D01*
G01X27906Y10289D02*
G01X27865Y10330D01*
G01X27805Y10350D01*
G01X27722Y10350D01*
G01X27660Y10330D01*
G01X27619Y10289D01*
G01X27619Y10248D01*
G01X27640Y10207D01*
G01X27660Y10187D01*
G01X27702Y10166D01*
G01X27825Y10125D01*
G01X27865Y10105D01*
G01X27885Y10085D01*
G01X27906Y10044D01*
G01X27906Y9982D01*
G01X27865Y9941D01*
G01X27805Y9921D01*
G01X27722Y9921D01*
G01X27660Y9941D01*
G01X27619Y9982D01*
G01X28042Y10350D02*
G01X28042Y9921D01*
G01X23793Y12025D02*
G01X23793Y11596D01*
G01X23650Y12025D02*
G01X23935Y12025D01*
G01X24071Y12025D02*
G01X24071Y11596D01*
G01X24071Y12025D02*
G01X24255Y12025D01*
G01X24317Y12005D01*
G01X24336Y11985D01*
G01X24357Y11944D01*
G01X24357Y11882D01*
G01X24336Y11841D01*
G01X24317Y11821D01*
G01X24255Y11800D01*
G01X24071Y11800D01*
G01X24493Y11453D02*
G01X24860Y11453D01*
G01X25302Y11923D02*
G01X25281Y11964D01*
G01X25240Y12005D01*
G01X25200Y12025D01*
G01X25118Y12025D01*
G01X25077Y12005D01*
G01X25036Y11964D01*
G01X25015Y11923D01*
G01X24996Y11862D01*
G01X24996Y11760D01*
G01X25015Y11698D01*
G01X25036Y11657D01*
G01X25077Y11616D01*
G01X25118Y11596D01*
G01X25200Y11596D01*
G01X25240Y11616D01*
G01X25281Y11657D01*
G01X25302Y11698D01*
G01X25438Y12025D02*
G01X25438Y11596D01*
G01X25438Y11596D02*
G01X25682Y11596D01*
G01X25818Y12025D02*
G01X25818Y11596D01*
G01X26105Y12025D02*
G01X25818Y11739D01*
G01X25919Y11841D02*
G01X26105Y11596D01*
G01X26318Y9850D02*
G01X26318Y9421D01*
G01X26175Y9850D02*
G01X26460Y9850D01*
G01X26596Y9850D02*
G01X26596Y9421D01*
G01X26596Y9850D02*
G01X26780Y9850D01*
G01X26842Y9830D01*
G01X26861Y9810D01*
G01X26882Y9769D01*
G01X26882Y9707D01*
G01X26861Y9666D01*
G01X26842Y9646D01*
G01X26780Y9625D01*
G01X26596Y9625D01*
G01X27018Y9278D02*
G01X27385Y9278D01*
G01X27521Y9850D02*
G01X27521Y9421D01*
G01X27521Y9850D02*
G01X27705Y9850D01*
G01X27765Y9830D01*
G01X27786Y9810D01*
G01X27806Y9769D01*
G01X27806Y9728D01*
G01X27786Y9687D01*
G01X27765Y9666D01*
G01X27705Y9646D01*
G01X27521Y9646D02*
G01X27705Y9646D01*
G01X27765Y9625D01*
G01X27786Y9605D01*
G01X27806Y9564D01*
G01X27806Y9503D01*
G01X27786Y9462D01*
G01X27765Y9441D01*
G01X27705Y9421D01*
G01X27521Y9421D01*
G01X27942Y9850D02*
G01X27942Y9421D01*
G01X27942Y9421D02*
G01X28188Y9421D01*
G01X28322Y9278D02*
G01X28690Y9278D01*
G01X28826Y9850D02*
G01X28826Y9421D01*
G01X28960Y9850D02*
G01X28960Y9421D01*
G01X28960Y9850D02*
G01X29247Y9421D01*
G01X29247Y9850D02*
G01X29247Y9421D01*
G01X29525Y9850D02*
G01X29525Y9421D01*
G01X29381Y9850D02*
G01X29668Y9850D01*
G01X27850Y600D02*
G01X27850Y294D01*
G01X27869Y232D01*
G01X27910Y191D01*
G01X27972Y171D01*
G01X28014Y171D01*
G01X28075Y191D01*
G01X28115Y232D01*
G01X28135Y294D01*
G01X28135Y600D01*
G01X28271Y519D02*
G01X28311Y539D01*
G01X28373Y600D01*
G01X28373Y171D01*
G01X28528Y498D02*
G01X28528Y519D01*
G01X28550Y560D01*
G01X28569Y580D01*
G01X28610Y600D01*
G01X28693Y600D01*
G01X28734Y580D01*
G01X28753Y560D01*
G01X28775Y519D01*
G01X28775Y478D01*
G01X28753Y437D01*
G01X28713Y375D01*
G01X28509Y171D01*
G01X28794Y171D01*
G01X34060Y7950D02*
G01X34019Y7909D01*
G01X33999Y7848D01*
G01X33999Y7766D01*
G01X34019Y7705D01*
G01X34060Y7664D01*
G01X34101Y7664D01*
G01X34142Y7684D01*
G01X34162Y7705D01*
G01X34183Y7746D01*
G01X34224Y7869D01*
G01X34244Y7909D01*
G01X34264Y7930D01*
G01X34305Y7950D01*
G01X34367Y7950D01*
G01X34408Y7909D01*
G01X34428Y7848D01*
G01X34428Y7766D01*
G01X34408Y7705D01*
G01X34367Y7664D01*
G01X33999Y8085D02*
G01X34428Y8085D01*
G01X33999Y8085D02*
G01X33999Y8351D01*
G01X34203Y8085D02*
G01X34203Y8249D01*
G01X34428Y8085D02*
G01X34428Y8351D01*
G01X33999Y8486D02*
G01X34428Y8486D01*
G01X33999Y8486D02*
G01X33999Y8670D01*
G01X34019Y8732D01*
G01X34039Y8752D01*
G01X34080Y8773D01*
G01X34121Y8773D01*
G01X34162Y8752D01*
G01X34183Y8732D01*
G01X34203Y8670D01*
G01X34203Y8486D01*
G01X34203Y8629D02*
G01X34428Y8773D01*
G01X33999Y8908D02*
G01X34428Y8908D01*
G01X33999Y9206D02*
G01X34428Y9043D01*
G01X33999Y9206D02*
G01X34428Y9370D01*
G01X34285Y9104D02*
G01X34285Y9309D01*
G01X33999Y9505D02*
G01X34428Y9505D01*
G01X34428Y9505D02*
G01X34428Y9750D01*
G01X8450Y11274D02*
G01X8450Y10968D01*
G01X8470Y10906D01*
G01X8511Y10865D01*
G01X8573Y10845D01*
G01X8614Y10845D01*
G01X8675Y10865D01*
G01X8716Y10906D01*
G01X8736Y10968D01*
G01X8736Y11274D01*
G01X9137Y11131D02*
G01X9117Y11070D01*
G01X9076Y11029D01*
G01X9015Y11009D01*
G01X8994Y11009D01*
G01X8933Y11029D01*
G01X8892Y11070D01*
G01X8871Y11131D01*
G01X8871Y11152D01*
G01X8892Y11213D01*
G01X8933Y11254D01*
G01X8994Y11274D01*
G01X9015Y11274D01*
G01X9076Y11254D01*
G01X9117Y11213D01*
G01X9137Y11131D01*
G01X9137Y11029D01*
G01X9117Y10927D01*
G01X9076Y10865D01*
G01X9015Y10845D01*
G01X8974Y10845D01*
G01X8912Y10865D01*
G01X8892Y10906D01*
G01X22150Y4925D02*
G01X22150Y4496D01*
G01X22150Y4925D02*
G01X22334Y4925D01*
G01X22394Y4905D01*
G01X22415Y4885D01*
G01X22435Y4844D01*
G01X22435Y4803D01*
G01X22415Y4762D01*
G01X22394Y4741D01*
G01X22334Y4721D01*
G01X22150Y4721D01*
G01X22293Y4721D02*
G01X22435Y4496D01*
G01X22571Y4844D02*
G01X22611Y4864D01*
G01X22673Y4925D01*
G01X22673Y4496D01*
G01X20549Y9800D02*
G01X20549Y9371D01*
G01X20549Y9800D02*
G01X20733Y9800D01*
G01X20794Y9780D01*
G01X20815Y9760D01*
G01X20835Y9719D01*
G01X20835Y9678D01*
G01X20815Y9637D01*
G01X20794Y9616D01*
G01X20733Y9596D01*
G01X20549Y9596D01*
G01X20692Y9596D02*
G01X20835Y9371D01*
G01X20991Y9698D02*
G01X20991Y9719D01*
G01X21011Y9760D01*
G01X21032Y9780D01*
G01X21073Y9800D01*
G01X21154Y9800D01*
G01X21195Y9780D01*
G01X21216Y9760D01*
G01X21236Y9719D01*
G01X21236Y9678D01*
G01X21216Y9637D01*
G01X21175Y9575D01*
G01X20970Y9371D01*
G01X21257Y9371D01*
G01X349Y3042D02*
G01X778Y3042D01*
G01X349Y2900D02*
G01X349Y3186D01*
G01X349Y3321D02*
G01X778Y3321D01*
G01X349Y3321D02*
G01X349Y3505D01*
G01X369Y3567D01*
G01X389Y3586D01*
G01X430Y3607D01*
G01X492Y3607D01*
G01X533Y3586D01*
G01X553Y3567D01*
G01X574Y3505D01*
G01X574Y3321D01*
G01X921Y3742D02*
G01X921Y4111D01*
G01X349Y4246D02*
G01X778Y4246D01*
G01X349Y4246D02*
G01X349Y4430D01*
G01X369Y4490D01*
G01X389Y4511D01*
G01X430Y4532D01*
G01X471Y4532D01*
G01X512Y4511D01*
G01X533Y4490D01*
G01X553Y4430D01*
G01X553Y4246D01*
G01X553Y4388D02*
G01X778Y4532D01*
G01X410Y4953D02*
G01X369Y4913D01*
G01X349Y4851D01*
G01X349Y4769D01*
G01X369Y4707D01*
G01X410Y4667D01*
G01X451Y4667D01*
G01X492Y4688D01*
G01X512Y4707D01*
G01X533Y4748D01*
G01X574Y4871D01*
G01X594Y4913D01*
G01X614Y4932D01*
G01X655Y4953D01*
G01X717Y4953D01*
G01X758Y4913D01*
G01X778Y4851D01*
G01X778Y4769D01*
G01X758Y4707D01*
G01X717Y4667D01*
G01X349Y5232D02*
G01X778Y5232D01*
G01X349Y5088D02*
G01X349Y5375D01*
G01X18875Y12853D02*
G01X18875Y12423D01*
G01X18875Y12853D02*
G01X19059Y12853D01*
G01X19119Y12832D01*
G01X19140Y12812D01*
G01X19160Y12771D01*
G01X19160Y12730D01*
G01X19140Y12689D01*
G01X19119Y12668D01*
G01X19059Y12648D01*
G01X18875Y12648D02*
G01X19059Y12648D01*
G01X19119Y12628D01*
G01X19140Y12607D01*
G01X19160Y12566D01*
G01X19160Y12505D01*
G01X19140Y12464D01*
G01X19119Y12443D01*
G01X19059Y12423D01*
G01X18875Y12423D01*
G01X19460Y12853D02*
G01X19296Y12423D01*
G01X19460Y12853D02*
G01X19623Y12423D01*
G01X19357Y12566D02*
G01X19561Y12566D01*
G01X19902Y12853D02*
G01X19902Y12423D01*
G01X19759Y12853D02*
G01X20044Y12853D01*
G01X20322Y12853D02*
G01X20322Y12423D01*
G01X20180Y12853D02*
G01X20465Y12853D01*
G54D13*
G01X19375Y22288D02*
G01X19375Y21525D01*
G01X19375Y21525D02*
G01X19810Y21525D01*
G01X20051Y22288D02*
G01X20088Y22252D01*
G01X20123Y22288D01*
G01X20088Y22325D01*
G01X20051Y22288D01*
G01X20088Y22034D02*
G01X20088Y21525D01*
G01X20364Y22034D02*
G01X20364Y21270D01*
G01X20364Y21925D02*
G01X20436Y21997D01*
G01X20510Y22034D01*
G01X20618Y22034D01*
G01X20690Y21997D01*
G01X20764Y21925D01*
G01X20800Y21816D01*
G01X20800Y21743D01*
G01X20764Y21634D01*
G01X20690Y21561D01*
G01X20618Y21525D01*
G01X20510Y21525D01*
G01X20436Y21561D01*
G01X20364Y21634D01*
G01X21222Y22034D02*
G01X21150Y21997D01*
G01X21077Y21925D01*
G01X21039Y21816D01*
G01X21039Y21743D01*
G01X21077Y21634D01*
G01X21150Y21561D01*
G01X21222Y21525D01*
G01X21331Y21525D01*
G01X21403Y21561D01*
G01X21477Y21634D01*
G01X21513Y21743D01*
G01X21513Y21816D01*
G01X21477Y21925D01*
G01X21403Y21997D01*
G01X21331Y22034D01*
G01X21222Y22034D01*
G01X21752Y21270D02*
G01X22407Y21270D01*
G01X22647Y22143D02*
G01X22719Y22179D01*
G01X22830Y22288D01*
G01X22830Y21525D01*
G01X23578Y22179D02*
G01X23506Y22252D01*
G01X23397Y22288D01*
G01X23251Y22288D01*
G01X23142Y22252D01*
G01X23069Y22179D01*
G01X23069Y22107D01*
G01X23106Y22034D01*
G01X23142Y21997D01*
G01X23214Y21961D01*
G01X23432Y21888D01*
G01X23506Y21852D01*
G01X23542Y21816D01*
G01X23578Y21743D01*
G01X23578Y21634D01*
G01X23506Y21561D01*
G01X23397Y21525D01*
G01X23251Y21525D01*
G01X23142Y21561D01*
G01X23069Y21634D01*
G01X23818Y21270D02*
G01X24472Y21270D01*
G01X25150Y22288D02*
G01X24785Y22288D01*
G01X24750Y21961D01*
G01X24785Y21997D01*
G01X24894Y22034D01*
G01X25003Y22034D01*
G01X25113Y21997D01*
G01X25185Y21925D01*
G01X25222Y21816D01*
G01X25222Y21743D01*
G01X25185Y21634D01*
G01X25113Y21561D01*
G01X25003Y21525D01*
G01X24894Y21525D01*
G01X24785Y21561D01*
G01X24750Y21597D01*
G01X24713Y21670D01*
G01X25680Y22288D02*
G01X25571Y22252D01*
G01X25498Y22143D01*
G01X25461Y21961D01*
G01X25461Y21852D01*
G01X25498Y21670D01*
G01X25571Y21561D01*
G01X25680Y21525D01*
G01X25752Y21525D01*
G01X25861Y21561D01*
G01X25935Y21670D01*
G01X25971Y21852D01*
G01X25971Y21961D01*
G01X25935Y22143D01*
G01X25861Y22252D01*
G01X25752Y22288D01*
G01X25680Y22288D01*
G01X26430Y22288D02*
G01X26319Y22252D01*
G01X26247Y22143D01*
G01X26210Y21961D01*
G01X26210Y21852D01*
G01X26247Y21670D01*
G01X26319Y21561D01*
G01X26430Y21525D01*
G01X26502Y21525D01*
G01X26610Y21561D01*
G01X26684Y21670D01*
G01X26719Y21852D01*
G01X26719Y21961D01*
G01X26684Y22143D01*
G01X26610Y22252D01*
G01X26502Y22288D01*
G01X26430Y22288D01*
G01X26960Y22034D02*
G01X26960Y21525D01*
G01X26960Y21888D02*
G01X27069Y21997D01*
G01X27142Y22034D01*
G01X27251Y22034D01*
G01X27323Y21997D01*
G01X27360Y21888D01*
G01X27360Y21525D01*
G01X27360Y21888D02*
G01X27469Y21997D01*
G01X27542Y22034D01*
G01X27651Y22034D01*
G01X27723Y21997D01*
G01X27760Y21888D01*
G01X27760Y21525D01*
G01X28290Y22288D02*
G01X28000Y21525D01*
G01X28290Y22288D02*
G01X28581Y21525D01*
G01X28110Y21779D02*
G01X28472Y21779D01*
G01X28822Y22288D02*
G01X28822Y21525D01*
G01X28822Y21888D02*
G01X28931Y21997D01*
G01X29003Y22034D01*
G01X29113Y22034D01*
G01X29185Y21997D01*
G01X29222Y21888D01*
G01X29222Y21525D01*
G54D10*
G75*
G01X19700Y7255D02*
G2X19700Y6755I0J-250D01*
G01*
G75*
G01X25953Y7122D02*
G3X25953Y6728I0J-197D01*
G01*
G75*
G01X4190Y14230D02*
G2X3740Y14240I-225J9D01*
G01*
G54D64*
G75*
G01X10436Y8035D02*
G3X10438Y8035I1J-118D01*
G01*
G54D65*
G75*
G01X10003Y6962D02*
G3X10004Y6962I1J-59D01*
G01*
G54D10*
G75*
G01X19685Y6155D02*
G03X19685Y6155I-75J0D01*
G01*
G54D63*
G75*
G01X15793Y12963D02*
G03X15793Y12963I-49J0D01*
G01*
G54D10*
G75*
G01X15592Y16450D02*
G03X15592Y16450I-492J0D01*
G01*
G75*
G01X6387Y3941D02*
G03X6387Y3941I-2362J0D01*
G01*
G75*
G01X17275Y5325D02*
G03X17275Y5325I-100J0D01*
G01*
M00*
M02*
