;PTH Drill file created by EasyEDA 
M48
INCH,LZ
;Holesize 1 = 0.012 INCH
T01C0.012
;Holesize 2 = 0.024 INCH
T02C0.024
;Holesize 3 = 0.035 INCH
T03C0.035
;Holesize 4 = 0.035 INCH
T04C0.035
;Holesize 5 = 0.036 INCH
T05C0.036
;Holesize 6 = 0.039 INCH
T06C0.039
;Holesize 7 = 0.040 INCH
T07C0.040
%
G05
G90
T01
X010100Y019250
X010150Y018400
X007400Y019250
X007950Y018400
X008600Y019250
X010150Y017600
X009450Y018400
X008600Y018400
X015025Y022075
X006800Y022575
X015025Y021275
X013925Y021275
X013925Y022100
X012800Y022100
X012800Y021275
X013925Y020325
X012450Y020325
X009450Y022075
X007400Y022075
X007400Y021275
X007400Y020375
X008425Y020325
X010125Y020325
X008425Y021275
X008425Y022075
X009450Y021275
X011600Y018575
X012375Y018900
X014000Y018450
X015050Y018450
X014000Y019300
X016225Y013500
X004450Y019725
X003800Y022125
X004450Y008700
X003050Y006225
X016375Y003200
X009350Y014400
X021175Y010557
X011450Y013525
X011950Y013100
X003175Y016600
X004275Y014000
X012300Y013600
X011225Y006300
X011625Y006075
X011825Y005750
X007575Y006150
X024575Y019200
X022850Y002500
X022575Y002250
X022775Y008950
X022514Y009234
X031550Y014425
X031937Y014437
X032584Y014425
X028475Y018150
X027100Y020000
X029725Y017900
X033425Y017025
X020900Y008850
X020475Y004725
X021550Y009025
X022225Y003050
X023250Y009150
X002875Y014600
X004600Y012675
X005075Y012575
X003312Y014562
X014925Y008600
X015425Y008825
X015950Y009000
X020500Y009175
X001800Y007600
X002275Y009700
X003950Y008475
X011225Y015675
X011075Y013025
X008500Y008750
X008925Y008075
X010600Y010703
X019525Y018950
X019525Y017250
X029050Y008250
X024500Y014350
X018025Y014575
X017239Y016260
X014125Y015400
X022200Y016260
X025225Y022800
X028650Y005475
X028725Y004475
X030075Y011325
X023500Y003500
X024550Y003350
X020500Y011675
X021825Y011700
X013425Y015450
X023725Y011550
X023600Y012050
X025100Y003775
X024950Y007750
X020675Y010050
X019689Y004584
X018800Y008300
X019575Y010100
X030775Y017450
X033075Y017425
X024800Y004000
X016575Y006100
X015675Y005350
X016725Y006450
X015200Y005425
X015675Y009325
X015150Y009425
X015400Y010475
X016425Y010400
X015350Y007950
X014500Y002325
X023925Y003025
X024200Y002650
X024200Y003675
X024375Y004425
X032150Y010900
X029950Y011975
X029825Y015750
X027175Y015750
X022675Y018361
X023000Y017825
X026325Y020800
X026325Y021525
X032950Y006950
X031975Y006950
X002500Y006700
X005650Y007175
X005500Y012200
X010300Y012225
X030850Y005150
X034100Y004500
X012000Y005325
X012425Y005200
X031075Y000500
X031075Y002000
X014200Y003950
X006000Y020675
X007725Y008675
X013150Y018450
X012150Y019325
X014550Y018875
X001044Y006480
X005340Y010309
X006675Y010025
X006450Y006750
X006000Y011375
X006000Y010625
X006825Y000750
X004950Y000525
X033325Y002625
X031438Y002338
X033975Y007925
X030925Y007925
X013775Y006725
X013500Y006350
X021725Y014150
X022350Y013950
X023000Y013975
X021725Y014975
X022025Y015400
X022300Y015725
X019450Y000975
X033975Y008450
X015125Y003939
X017050Y005900
X017775Y005900
X020975Y004575
X012975Y006300
X030200Y009750
X029900Y008425
X011950Y012775
X021950Y008450
X017700Y001825
X017100Y001825
X033975Y008950
X015900Y012625
X012875Y012100
X013675Y011675
X015650Y012325
X019200Y012975
X019025Y011025
X013275Y012350
X016175Y012875
X023575Y012900
X013950Y012750
X016475Y013225
X024100Y013175
X025025Y013175
X025025Y011825
X012050Y012150
X012350Y012350
X008625Y006375
X015850Y002825
X023550Y004425
X018075Y002825
X017125Y002825
X005125Y010850
X008875Y009750
X004250Y010850
X023275Y004800
X017975Y003175
X016775Y002300
X015875Y002300
X025325Y009425
X026000Y009425
X025025Y009075
X026000Y009075
X017150Y005250
X030200Y022200
X031200Y022175
X032200Y022175
X030200Y020175
X031200Y020175
X030225Y019200
X029175Y019200
X029200Y020175
X031200Y019175
X032200Y019200
X031200Y018200
X030200Y018175
X027200Y017175
X026200Y018200
X029200Y016175
X029200Y015175
X027200Y013200
X027200Y014200
X029175Y013175
X029200Y010725
X027200Y010500
X033650Y013175
X033725Y011175
X032225Y010150
X031875Y006200
X032875Y006175
X033925Y006175
X030975Y006200
X028750Y006175
X027650Y006175
X026750Y006200
X025725Y006175
X024650Y006175
X023700Y006200
X023675Y007200
X024625Y007200
X025700Y007200
X026700Y007200
X027650Y007200
X026725Y008200
X022775Y006175
X020700Y006600
X020675Y007475
X019650Y007200
X018225Y007175
X017200Y008175
X018200Y008175
X017825Y004200
X019200Y003200
X022575Y004175
X021000Y004150
X022600Y003200
X027200Y004200
X026200Y004200
X029200Y002175
X028775Y003700
X032750Y001650
X031750Y000625
X024225Y022200
X023200Y022175
X022200Y022175
X021200Y022175
X020200Y022175
X019200Y022200
X018200Y022200
X018200Y021200
X019200Y021200
X022200Y021175
X021200Y021200
X023200Y021175
X018200Y019750
X019200Y019750
X017200Y021175
X017225Y022200
X017200Y018175
X016200Y018200
X016200Y017200
X021200Y018400
X021175Y016725
X019200Y016725
X018200Y017175
X020200Y015175
X021200Y015175
X019200Y015200
X018200Y015175
X020600Y013375
X023725Y013825
X024750Y016200
X024750Y015175
X025200Y014200
X021200Y012175
X018200Y010200
X017225Y010200
X015725Y007175
X015200Y006175
X014200Y005200
X014200Y006200
X011200Y002825
X010225Y002825
X009200Y005200
X009200Y004175
X008200Y004200
X008200Y005175
X007200Y005175
X007200Y004200
X008200Y003200
X006200Y002200
X005200Y002200
X005225Y004200
X005225Y006200
X006200Y005225
X011200Y001175
X012650Y001175
X016775Y001200
X005700Y001000
X002225Y001175
X002200Y004175
X003200Y004200
X003200Y003200
X003200Y002200
X002225Y003200
X001200Y004200
X001200Y005200
X002200Y005200
X003200Y005175
X001200Y010200
X002200Y010200
X003200Y010225
X007225Y010725
X007200Y011750
X005200Y011675
X007200Y012675
X008225Y014175
X006700Y015150
X006225Y017175
X006200Y016175
X005200Y016175
X005225Y017200
X004175Y017175
X004200Y016175
X004200Y015200
X003200Y018175
X003200Y019200
X001200Y017475
X002200Y012175
X003200Y011200
X002200Y011175
X014725Y012875
X015975Y010625
X014525Y010250
X006200Y022475
X004625Y022475
X003175Y022475
X012775Y022775
X013900Y022775
X014975Y022775
X007150Y017525
X005175Y007400
X005900Y006875
X009475Y007025
X009475Y006400
X009525Y011650
X004775Y009350
X007175Y007225
X024325Y009050
X023600Y019350
X028250Y000950
X024900Y003125
X007325Y009925
X008250Y006400
X024800Y010300
X024125Y010300
X021900Y009250
X018050Y002225
X014425Y016600
X012850Y018000
X013150Y017500
X012625Y017500
X015050Y017575
T02
X000425Y018382G85X000660Y018382
X000425Y022417G85X000660Y022417
X001881Y022417G85X002118Y022417
X001881Y018382G85X002118Y018382
X015100Y016803
X015100Y016096
T03
X015000Y020300
X015000Y019300
T04
X004025Y004925
X004025Y002955
T05
X008700Y016600
X009700Y016600
X010700Y016600
X011700Y016600
X012700Y016600
X008700Y017600
X005200Y008025
X006200Y008025
X007200Y008025
X008200Y008025
T06
X011824Y014025G85X011825Y014025
X027299Y011125G85X027300Y011125
X026299Y010500G85X026300Y010500
X025499Y011150G85X025500Y011150
X028275Y010475G85X028275Y010475
X000699Y002450G85X000700Y002450
T07
X001200Y016600
X001200Y015600
X001200Y014600
X001200Y013600
X001200Y012600
X001200Y011600
M30
