G04 ---------------------------- Layer name :BOTTOM PASTER LAYER*
G04 EasyEDA v5.7.26, Mon, 08 Oct 2018 11:53:26 GMT*
G04 3e30844db99a4207a4187d0db1b8c40a*
G04 Gerber Generator version 0.2*
G04 Scale: 100 percent, Rotated: No, Reflected: No *
G04 Dimensions in inches *
G04 leading zeros omitted , absolute positions ,2 integer and 4 decimal *
%FSLAX24Y24*%
%MOIN*%
G90*
G70D02*

%ADD19R,0.043307X0.039370*%
%ADD20R,0.039370X0.043307*%
%ADD26R,0.053500X0.071500*%
%ADD28R,0.045670X0.057870*%
%ADD32R,0.071000X0.016000*%
%ADD34R,0.102400X0.025600*%
%ADD44R,0.059055X0.031496*%
%ADD45R,0.041732X0.025591*%
%ADD46R,0.062992X0.039370*%
%ADD47R,0.039370X0.062992*%
%ADD48R,0.043000X0.039000*%
%ADD49R,0.031100X0.010200*%
%ADD50R,0.010200X0.031100*%
%ADD51R,0.080700X0.084600*%
%ADD52R,0.043300X0.023600*%
%ADD53R,0.141700X0.165400*%
%ADD54R,0.027559X0.049213*%
%ADD55R,0.039000X0.043000*%
%ADD56R,0.023622X0.059055*%
%ADD57R,0.080000X0.025900*%

%LPD*%
G54D26*
G01X9260Y20449D03*
G01X9260Y19159D03*
G54D44*
G01X32201Y7659D03*
G01X29051Y7659D03*
G01X14825Y1200D03*
G01X17974Y1200D03*
G01X32311Y1199D03*
G01X29162Y1199D03*
G01X14667Y7653D03*
G01X17816Y7653D03*
G54D45*
G01X11600Y20150D03*
G01X11600Y19776D03*
G01X11600Y19402D03*
G01X10734Y19402D03*
G01X10734Y20150D03*
G54D26*
G01X13110Y20474D03*
G01X13110Y19184D03*
G54D28*
G01X11100Y20900D03*
G01X10300Y20900D03*
G01X5275Y18475D03*
G01X4475Y18475D03*
G54D34*
G01X2505Y7125D03*
G01X2505Y7625D03*
G01X2505Y8125D03*
G01X2505Y8625D03*
G01X2505Y9125D03*
G01X1044Y7125D03*
G01X1044Y7625D03*
G01X1044Y8125D03*
G01X1044Y8625D03*
G01X1044Y9125D03*
G54D46*
G01X33925Y22919D03*
G01X33925Y22419D03*
G01X33925Y21919D03*
G01X33925Y21419D03*
G01X33925Y20919D03*
G01X28610Y22919D03*
G01X28610Y22419D03*
G01X28610Y21919D03*
G01X28610Y21419D03*
G01X28610Y20919D03*
G54D47*
G01X32350Y20525D03*
G54D44*
G01X7125Y16699D03*
G01X3975Y16699D03*
G54D48*
G01X29477Y5467D03*
G01X30147Y5467D03*
G01X29527Y4467D03*
G01X30197Y4467D03*
G01X10364Y21753D03*
G01X11035Y21753D03*
G01X2505Y17157D03*
G01X3175Y17157D03*
G54D20*
G01X24039Y20700D03*
G01X24590Y20700D03*
G01X24585Y19925D03*
G01X24034Y19925D03*
G54D19*
G01X19800Y20760D03*
G01X19800Y20209D03*
G01X18925Y19110D03*
G01X18925Y18559D03*
G01X18925Y17264D03*
G01X18925Y17815D03*
G54D20*
G01X14410Y17600D03*
G01X13859Y17600D03*
G54D19*
G01X12100Y18310D03*
G01X12100Y17759D03*
G54D20*
G01X31860Y16925D03*
G01X31309Y16925D03*
G54D19*
G01X29350Y12185D03*
G01X29350Y11634D03*
G54D20*
G01X30614Y10250D03*
G01X31165Y10250D03*
G54D19*
G01X30950Y13960D03*
G01X30950Y13409D03*
G54D49*
G01X32030Y12265D03*
G01X32030Y12075D03*
G01X32030Y11875D03*
G01X32030Y11675D03*
G01X32030Y11475D03*
G01X32030Y11284D03*
G54D50*
G01X31739Y10994D03*
G01X31550Y10994D03*
G01X31350Y10994D03*
G01X31150Y10994D03*
G01X30950Y10994D03*
G01X30760Y10994D03*
G54D49*
G01X30470Y11284D03*
G01X30470Y11475D03*
G01X30470Y11675D03*
G01X30470Y11875D03*
G01X30470Y12075D03*
G01X30470Y12265D03*
G54D50*
G01X30760Y12554D03*
G01X30950Y12554D03*
G01X31150Y12554D03*
G01X31350Y12554D03*
G01X31550Y12554D03*
G01X31739Y12554D03*
G54D51*
G01X31250Y11775D03*
G54D52*
G01X20600Y19409D03*
G01X20600Y19800D03*
G01X20600Y20200D03*
G01X20600Y20590D03*
G01X22700Y20590D03*
G01X22700Y20200D03*
G01X22700Y19800D03*
G01X22700Y19409D03*
G54D53*
G01X21650Y20000D03*
G54D20*
G01X26485Y14375D03*
G01X25934Y14375D03*
G54D19*
G01X22875Y16435D03*
G01X22875Y15884D03*
G54D32*
G01X23780Y14994D03*
G01X23780Y15255D03*
G01X23780Y15505D03*
G01X23780Y15765D03*
G01X23780Y16025D03*
G01X23780Y16275D03*
G01X23780Y16534D03*
G01X23780Y16784D03*
G01X26060Y16784D03*
G01X26060Y16534D03*
G01X26060Y16275D03*
G01X26060Y16025D03*
G01X26060Y15765D03*
G01X26060Y15505D03*
G01X26060Y15255D03*
G01X26060Y14994D03*
G54D20*
G01X34060Y18000D03*
G01X33509Y18000D03*
G01X9939Y15800D03*
G01X10490Y15800D03*
G54D54*
G01X12200Y16092D03*
G01X11826Y15107D03*
G01X12573Y15107D03*
G54D55*
G01X13839Y16130D03*
G01X13839Y16800D03*
G54D19*
G01X6150Y18960D03*
G01X6150Y18409D03*
G54D56*
G01X31600Y16025D03*
G01X32092Y16025D03*
G01X32584Y16025D03*
G01X33076Y16025D03*
G01X33076Y15001D03*
G01X32584Y15001D03*
G01X32092Y15001D03*
G01X31600Y15001D03*
G54D20*
G01X29589Y3625D03*
G01X30140Y3625D03*
G01X29539Y6250D03*
G01X30090Y6250D03*
G54D19*
G01X12000Y20839D03*
G01X12000Y21390D03*
G54D57*
G01X19655Y10536D03*
G01X19655Y11044D03*
G01X19655Y11553D03*
G01X19655Y12061D03*
G01X22694Y12061D03*
G01X22694Y11553D03*
G01X22694Y11044D03*
G01X22694Y10536D03*
M00*
M02*
